<?xml version="1.0" encoding="UTF-8" standalone="no"?>
<!-- Created with Inkscape (http://www.inkscape.org/) -->

<svg
   width="33.759998mm"
   height="34.998001mm"
   viewBox="0 0 33.759986 34.998001"
   version="1.1"
   id="svg1"
   xml:space="preserve"
   sodipodi:docname="logoShort.svg"
   inkscape:version="1.4 (86a8ad7, 2024-10-11)"
   inkscape:export-filename="X:\garantias\public\assets\images\logo.WSE.square.svg"
   inkscape:export-xdpi="96"
   inkscape:export-ydpi="96"
   xmlns:inkscape="http://www.inkscape.org/namespaces/inkscape"
   xmlns:sodipodi="http://sodipodi.sourceforge.net/DTD/sodipodi-0.dtd"
   xmlns="http://www.w3.org/2000/svg"
   xmlns:svg="http://www.w3.org/2000/svg"><sodipodi:namedview
     id="namedview1"
     pagecolor="#ffffff"
     bordercolor="#666666"
     borderopacity="1.0"
     inkscape:showpageshadow="2"
     inkscape:pageopacity="0.0"
     inkscape:pagecheckerboard="0"
     inkscape:deskcolor="#d1d1d1"
     inkscape:document-units="mm"
     showguides="true"
     inkscape:zoom="1.8892094"
     inkscape:cx="249.04597"
     inkscape:cy="97.130575"
     inkscape:window-width="2560"
     inkscape:window-height="1009"
     inkscape:window-x="-8"
     inkscape:window-y="-8"
     inkscape:window-maximized="1"
     inkscape:current-layer="layer1"><inkscape:page
       x="0"
       y="0"
       width="33.759987"
       height="34.998001"
       id="page2"
       margin="0"
       bleed="0" /></sodipodi:namedview><defs
     id="defs1" /><g
     inkscape:label="Layer 1"
     inkscape:groupmode="layer"
     id="layer1"
     transform="translate(-6.2117939,-113.19671)"><rect
       style="display:inline;fill:#ffffff;fill-opacity:1;stroke-width:1.978;paint-order:markers fill stroke"
       id="rect5"
       width="24.454901"
       height="27.822279"
       x="10.654824"
       y="117.12144" /><path
       d="m 29.396037,136.27376 c -0.837434,-0.02 -1.687019,0.0673 -2.497123,-0.19433 -0.797583,-0.20684 -1.640534,-0.2847 -2.411276,-0.56405 -0.319515,-0.28056 -0.7778,-0.0607 -1.08603,-0.36218 -0.312301,-0.1273 -0.630182,-0.34641 -0.372531,-0.69824 0.290029,-0.56034 0.465418,-1.20425 0.863723,-1.68515 0.402292,-0.86211 0.853047,-1.71909 1.233535,-2.58041 0,-0.75364 0,-1.50728 0,-2.26092 -0.450532,-0.0169 -0.1656,-0.55086 -0.5634,-0.72063 -0.282623,-0.2581 -0.511891,-0.6389 -0.826653,-0.82308 -0.429125,-0.14787 -0.780077,-0.53852 -1.179376,-0.77903 -0.18115,-0.32302 -0.789969,0.0562 -0.656306,-0.4256 -0.400768,0.11896 -0.560302,-0.1463 -0.845632,-0.27395 -0.301705,-0.10865 -0.744296,-0.008 -0.955225,-0.25148 -0.173068,-0.30314 -0.643486,-0.0635 -0.945516,-0.13116 -0.59374,-0.0299 0.330266,0.17153 0.51632,0.26049 0.444323,-0.002 0.558653,0.44387 0.941724,0.39613 0.489836,-0.17397 0.205554,0.42617 0.679906,0.26769 0.486238,0.16727 0.933646,0.51245 1.389989,0.76951 0.474597,0.4006 1.014976,0.74752 1.268725,1.33919 0.384396,0.42533 0.169194,1.01921 0.22484,1.53695 -0.109069,0.47693 -0.405174,0.91274 -0.58731,1.37361 -0.63693,0.6723 -1.076257,1.52023 -1.713835,2.20108 -0.3848,0.40907 -0.787426,0.80199 -1.178908,1.20501 -0.646884,-0.33231 -1.293765,-0.66463 -1.940647,-0.99694 -0.109675,-0.30931 -0.564108,-0.19514 -0.784138,-0.49207 -0.363414,-0.28345 -0.850067,-0.46208 -1.13424,-0.81293 -0.332178,-0.0874 -0.394818,-0.23092 -0.703723,-0.39792 -0.658099,-0.23485 -1.34714,-0.44885 -1.966372,-0.75178 -0.277066,-0.26882 -0.753439,-0.2076 -1.108511,-0.35835 -0.592709,-0.18396 -1.230264,-0.24643 -1.778803,-0.55005 0.06183,-3.85328 0.03391,-7.70718 0.04767,-11.56079 2.409237,0 4.818474,0 7.227711,0 0.17236,0.42813 -0.379132,0.4527 -0.267694,0.84688 0.05171,0.32209 -0.108136,0.73181 0.08364,0.99588 0.219064,0.35077 0.474851,0.37645 0.766746,0.0826 0.122177,-0.31081 0.363765,-0.66989 0.103423,-0.98136 -0.09836,-0.29812 -0.408332,-0.74256 -0.381521,-0.944 1.50465,0 3.0093,0 4.51395,0 0.02651,0.48012 -0.04162,0.99241 0.04386,1.45249 0.172298,0.35684 0.451405,0.4985 0.839116,0.42136 0.352143,-0.20675 0.349101,-0.56062 0.321237,-0.92477 -0.374097,0.0512 -0.398549,-0.49706 -0.593722,-0.74831 -0.255107,-0.39097 0.546361,-0.12125 0.789322,-0.20077 3.182201,0 6.364402,0 9.546603,0 0.301591,0.62574 0.10405,1.34392 0.160353,2.01509 -4.88e-4,4.99249 -9.73e-4,9.98498 -0.0015,14.97747 -0.135786,0.32399 -0.168526,0.76869 -0.621779,0.72085 -0.991622,0.18372 -1.967559,0.49154 -2.964359,0.61791 -0.498764,-0.003 -0.997529,-0.006 -1.496293,-0.01 z m -8.900793,-5.54815 c 0.74249,-0.0437 1.518777,-0.0792 2.228184,-0.257 0.215349,-0.24584 0.623518,-0.40779 0.515674,-0.79425 -0.180913,-0.20806 -0.691738,-8.1e-4 -0.977799,0.0805 -0.343685,0.0788 -0.67118,0.26672 -1.029905,0.24413 -0.0011,-0.35257 0.08658,-0.74378 -0.292929,-0.93172 -0.172808,-0.27527 -0.644002,-0.44175 -0.767138,-0.0481 0.175056,0.32662 0.350114,0.65324 0.525174,0.97986 -0.75178,-0.0392 -1.535758,0.12632 -2.242438,-0.19967 -0.331376,-0.13129 -0.737717,-0.15295 -0.958939,-0.44268 -0.52949,-0.0662 -0.403683,-0.30806 -0.0784,-0.6034 -0.01484,-0.36055 -0.130217,-0.66919 -0.434077,-0.8805 -0.165903,0.24969 -0.190049,0.60581 -0.168279,0.92163 -0.356574,0.0319 -0.78836,-0.12719 -1.012225,0.24187 -0.134128,0.37471 -0.701765,0.139 -0.59393,0.54923 0.09714,0.36638 0.43721,-0.22441 0.519788,-0.25333 0.226684,0.0344 1.076642,-0.0714 0.487111,0.1467 -0.323302,0.1511 -0.677511,0.27235 -0.750439,0.66524 -0.310236,0.38303 0.02101,0.44966 0.362731,0.39038 0.282087,-0.0616 0.765108,-0.18821 0.851435,-0.45289 -0.224627,-0.40583 0.521882,-0.52676 0.402753,-0.11332 0.571556,0.3007 1.145758,0.59655 1.797828,0.66727 0.538066,0.17605 1.060775,0.13799 1.615816,0.0901 z m 5.101724,0.0761 c 0.526525,-0.0388 1.061048,-0.18069 1.560927,-0.34147 0.25493,-0.25487 0.609304,-0.12064 0.886981,-0.28049 0.532108,-0.30786 1.124346,-0.54 1.481863,-1.06775 0.627476,-0.56959 0.865256,-1.40901 1.281391,-2.12493 0.270631,-0.0778 0.82571,0.22994 0.884794,-0.13468 -0.06499,-0.47509 0.461094,-0.32706 0.631347,-0.58833 0.207609,-0.36201 0.347769,-0.73913 0.284045,-1.16195 0.17487,-0.4294 -0.42413,-0.40815 -0.628309,-0.20788 -0.235072,0.25404 -0.691008,0.40666 -0.576306,0.82131 -0.378872,-0.18299 -0.389965,0.56818 -0.01556,0.40154 0.17958,0.41323 -0.238264,0.43704 -0.568507,0.45873 -0.415263,-0.007 -0.722904,0.13526 -0.827521,0.56091 -0.194269,0.45756 -0.458038,0.86379 -0.852804,1.17326 -0.289866,0.23849 -0.541915,0.58333 -0.861042,0.75172 -0.484694,-0.17096 -0.211048,0.41642 -0.673499,0.2677 -0.327498,0.0389 -0.459825,0.42791 -0.89835,0.26769 -0.418781,0.007 -0.860387,-0.077 -1.207938,0.21404 -0.150222,0.19149 -0.319612,0.62011 -0.180944,0.86289 0.04607,0.15627 0.142833,0.13154 0.27944,0.12769 z M 15.569699,128.794 c 0.402765,0.19921 0.429844,-0.49319 0.149237,-0.57193 -0.251724,-0.0413 -0.850351,-0.63739 -0.77832,-0.1507 -0.08841,0.3332 0.142718,0.73788 0.498646,0.72265 0.04348,-1e-5 0.08696,-1e-5 0.130437,-2e-5 z m 17.841731,-0.18062 c 0.358145,0.0288 0.143356,-0.62031 -0.01201,-0.787 -0.246147,-0.26318 -0.468614,-0.56512 -0.856869,-0.59569 -0.262043,-0.11696 -0.605971,0.30007 -0.603474,0.54827 0.02459,0.32805 0.428649,0.5971 0.732974,0.69768 0.245869,0.0526 0.483913,0.21105 0.739383,0.13674 z m -19.474662,-0.70791 c 0.300562,0.006 0.314825,-0.79332 0.02335,-0.7176 -0.429037,-0.0894 -0.139842,0.53936 -0.224116,0.79468 0.06692,-0.0257 0.133845,-0.0514 0.200766,-0.0771 z m -1.647515,-0.0615 c 0.329137,0.007 0.453747,-0.36451 0.838455,-0.29639 0.269269,-0.18406 0.535359,-0.57817 0.173329,-0.8138 -0.211355,-0.39824 -0.653883,-0.12936 -0.972282,-0.0332 -0.314478,0.24281 -0.603268,0.51542 -0.89633,0.78308 0.28463,0.118 0.53152,0.38942 0.856828,0.36022 z m 4.136131,-0.59102 c 0.505789,0.007 0.982293,-0.10575 1.427189,-0.34745 0.470825,-0.13053 0.820177,-0.44748 1.153914,-0.7884 0.458891,-0.0772 0.0097,0.52459 0.01633,0.76918 -0.08284,0.41526 0.311317,0.56724 0.558596,0.19901 0.358167,-0.16523 0.534847,-0.42403 0.445364,-0.82005 0.04892,-0.44001 -0.828646,0.13207 -0.669235,-0.36467 0.117637,-0.19385 0.676578,-0.70681 0.223719,-0.72039 -0.425327,-0.10828 -0.593447,0.3839 -0.878832,0.60231 -0.286966,0.22249 -0.458169,0.71522 -0.88881,0.60231 -0.280434,0.0424 -0.215741,0.42988 -0.700735,0.26769 0.0703,0.40647 -0.435376,0.23696 -0.740807,0.2677 -0.566522,0 -1.133044,0 -1.699567,0 0.0919,-0.47553 -0.587669,-0.25037 -0.0296,0.0239 0.487936,0.20034 1.018799,0.44543 1.564187,0.32532 0.07276,-0.006 0.14552,-0.011 0.218281,-0.0165 z m 5.806611,0.0687 c 0.372281,0.0832 0.84719,-0.0361 0.638755,-0.50113 -0.07423,-0.35021 -0.576211,-0.081 -0.83732,-0.16062 -0.21679,0.11746 -0.760384,0.33478 -0.410724,0.61921 0.145066,0.0976 0.423037,0.0148 0.609289,0.0426 z m 3.21557,-0.41088 c 0.354009,0.0524 0.667907,-0.0147 0.913276,-0.28595 0.230034,-0.26023 -0.198091,-0.62185 -0.490252,-0.66874 -0.320029,-0.12636 -0.640362,-0.40997 -0.959604,-0.13053 -0.422408,0.0268 -0.408952,0.52608 -0.255183,0.79307 0.192046,0.35098 0.438491,0.30462 0.791763,0.29215 z m 4.205012,-0.2583 c 0.403816,0.11586 0.411927,-0.42697 0.250216,-0.66924 -0.398366,0 -0.796732,0 -1.195097,0 0.145341,0.33811 0.61377,0.33395 0.68835,0.53539 -0.06411,0.225 0.124706,0.10348 0.256531,0.13385 z m -16.257463,-0.29559 c 0.400628,0.0607 0.381621,-0.48762 0.307025,-0.75807 -0.01654,-0.51728 -0.522511,-0.74482 -0.833399,-1.08785 -0.517016,-0.15609 -0.292249,0.4296 -0.337353,0.74542 -0.0833,0.38626 0.08001,0.67487 0.377238,0.91043 0.143405,0.19013 0.241226,0.27937 0.486489,0.19007 z m 1.004902,0.0279 c 0.392596,0.0878 0.541195,-0.38523 0.808294,-0.58587 0.02113,-0.25374 0.05249,-0.84506 -0.267694,-0.55962 0.104821,0.43937 -0.529835,0.005 -0.642459,0.36917 -0.209213,0.12753 -0.299456,0.82894 0.0168,0.77632 h 0.05914 z m 16.310058,-0.43169 c 0.414278,-8.1e-4 0.1274,-0.62842 0.09997,-0.88208 -0.273823,-0.44555 -0.435115,-0.25103 -0.557434,0.16507 -0.146423,0.22799 0.135289,0.81465 0.406023,0.72758 z M 17.773695,125.8161 c 0.37766,-0.006 0.742752,-0.0399 0.957694,-0.39218 0.13447,-0.23162 0.06432,-0.70731 -0.03138,-0.9307 -0.365603,-0.32677 -0.496922,0.27211 -0.818368,0.28536 -0.412588,-0.0724 -0.586678,0.43093 -0.885396,0.63343 -0.213003,0.34065 0.271249,0.57054 0.564922,0.4242 0.07084,-0.006 0.141682,-0.0134 0.212524,-0.0201 z m 6.133207,-0.005 c 0.388718,-0.009 0.199482,-0.58601 0.317866,-0.8607 0.03864,-0.66537 0.432784,-1.23106 0.654091,-1.84521 0.51691,-0.42492 0.781323,-1.09117 1.285745,-1.53923 0.426492,0.11559 0.17153,-0.45027 0.665,-0.26769 0.179477,-0.41592 -0.310616,-0.22867 -0.516286,-0.0599 -0.401161,0.19732 -0.622138,0.67412 -1.11609,0.68205 -0.06877,-0.1921 -0.171852,-0.35203 -0.389052,-0.51922 -0.119169,-0.16696 -0.259442,-0.91859 -0.365155,-0.71305 -0.183517,0.32927 -0.132249,0.63728 0.09771,0.92912 0.02739,0.31046 0.829319,0.38885 0.405327,0.66742 -0.469367,0.51326 -1.063382,0.98255 -1.203664,1.69777 -0.01561,0.37716 -0.404759,0.59192 -0.369434,0.9521 -0.05739,0.36002 0.03045,0.66569 0.322642,0.89487 0.05197,0.0323 0.147286,-0.0214 0.211303,-0.0183 z m -7.809622,-0.36358 c 0.394256,0.0425 0.559436,-0.45087 0.847466,-0.65685 0.273683,-0.21514 0.173277,-0.66954 -0.226882,-0.5862 -0.380001,-0.14917 -0.702423,0.10062 -0.572626,0.50245 -0.03542,0.29029 -0.43152,0.2199 -0.267694,0.70944 -0.0079,0.0756 0.168831,0.009 0.219736,0.0311 z m 4.417209,-1.20461 c 0.437872,0.0633 0.07964,-0.60581 0.146287,-0.88402 -0.03368,-0.40384 -0.06736,-0.80768 -0.101037,-1.21152 0.312292,-0.0307 0.747279,0.27578 0.967546,-0.008 0.243259,-0.3157 0.597703,-0.58909 0.774889,-0.92993 0.155615,-0.52311 -0.363174,-0.27306 -0.678539,-0.25622 -0.37713,-0.002 -0.693678,0.10845 -0.884933,0.45001 -0.297352,0.103 -0.188595,0.95 -0.49588,0.53153 -0.271003,-0.23597 -0.245304,-0.58896 -0.608455,-0.77636 -0.272822,-0.18012 -0.451601,-0.60215 -0.822688,-0.5295 0.202317,0.2984 0.543807,0.53932 0.67979,0.85627 -0.129767,-0.008 -0.70067,-0.1004 -0.49899,0.38609 -0.0859,0.38511 0.602628,0.56508 0.49899,0.12734 -0.09058,-0.57234 0.406766,-0.18136 0.434247,0.16362 0.220572,0.56566 0.442355,1.14763 0.368834,1.76563 0.01659,0.21619 -0.09351,0.38177 0.219939,0.31492 z m 5.435,-0.0432 c 0.667038,-0.02 1.329714,-0.0717 1.97424,-0.25489 -0.177185,-0.47635 0.564824,-0.0335 0.53538,-0.36213 0.04288,-0.30208 0.612165,-0.18218 0.747135,-0.51853 0.225799,-0.24814 0.573617,-0.44257 0.725181,-0.72338 0.0113,-0.48179 -0.348996,-0.15548 -0.351329,0.13108 -0.19552,0.31584 -0.542158,0.26686 -0.742694,0.5706 -0.415185,0.29476 -0.980304,0.34441 -1.455527,0.54101 -0.643651,0.27786 -1.357325,0.0645 -2.035657,0.0993 -0.468903,-0.11639 -0.580692,0.16375 -0.500961,0.57988 0.368078,-0.021 0.736155,-0.0419 1.104232,-0.0629 z m -8.599636,-0.22452 c 0.354319,0.003 0.279224,-0.33469 0.652127,-0.37659 0.06386,-0.24071 0.540958,-0.82092 0.107384,-0.82756 -0.493244,-0.14773 -0.394145,0.2074 -0.717289,0.32122 -0.488407,1e-4 -0.25926,0.52529 -0.309916,0.84571 -0.01645,0.0864 0.213244,0.0135 0.267694,0.0372 z m -0.920959,-0.23309 c 0.392766,0.003 0.494486,-0.49702 0.280291,-0.76876 -0.09278,-0.51148 -0.591964,-0.7053 -0.954625,-1.00584 -0.508886,-0.14592 -0.220344,0.43266 -0.242567,0.72889 0.0084,0.36461 0.02839,0.72328 0.395289,0.90306 0.166758,0.17956 0.280985,0.2624 0.521612,0.14265 z m 15.476764,-0.57587 c 0.290581,0.0345 0.19852,-0.65369 0.0794,-0.82986 -0.297235,-0.2815 -0.650558,-0.63897 -1.070052,-0.61043 -0.234779,0.20327 -0.800806,0.32 -0.432329,0.68092 0.08348,0.36778 0.408823,0.48172 0.733224,0.56697 0.229544,0.0624 0.446027,0.20762 0.689757,0.1924 z m -2.703699,-0.94011 c 0.389812,-0.002 0.539312,-0.42411 0.136501,-0.60301 -0.221811,-0.0512 -0.900401,-0.20642 -0.879351,0.12028 -0.04178,0.32976 0.480748,0.38841 0.720349,0.48128 z m -11.775621,-0.66005 c 0.344002,-0.0349 0.770994,0.13074 0.978746,-0.23303 0.290339,-0.2258 0.171092,-0.68911 -0.125455,-0.86402 -0.420204,-0.088 -0.368681,-0.26708 -0.220171,-0.67822 -0.330066,-0.22795 -0.608523,-0.60498 -1.054275,-0.49871 -0.527841,0.0175 -0.223511,0.51289 0.08113,0.68211 0.127864,0.21987 0.857241,0.57706 0.342821,0.65031 -0.312279,0.1189 -0.490501,0.45466 -0.748586,0.66123 -0.141918,0.50201 0.469177,0.19744 0.745785,0.28033 z m 12.638934,-0.0123 c 0.238575,-0.1108 0.695244,-0.30989 0.497734,-0.6545 -0.04956,-0.37227 -0.110888,-0.73889 -0.423786,-0.98472 -0.136589,-0.29753 -0.628732,-0.58468 -0.683095,-0.089 -0.127578,0.35642 -0.02836,0.75486 -0.06005,1.12904 0.226978,0.17725 0.411817,0.49644 0.669203,0.59916 z m 1.472308,-0.25535 c 0.424813,0.18248 0.570242,-0.33212 0.21951,-0.51983 -0.172529,-0.30846 -0.751494,-0.10331 -0.62105,0.24787 -0.07426,0.39046 0.114822,0.24718 0.40154,0.27196 z m -8.198095,-0.27195 c 0.3395,0.0723 0.753365,-0.17571 0.836538,-0.47794 0.05486,-0.34941 -0.566217,-0.14735 -0.78326,-0.14297 -0.285252,0.0875 -0.705673,0.6803 -0.184813,0.62236 0.04385,-4.8e-4 0.08769,-8.1e-4 0.131535,-0.002 z m -3.286104,-0.27872 c 0.319346,-0.12853 0.499497,-0.49102 0.642637,-0.77265 0.143173,-0.50412 -0.381737,-0.17751 -0.658473,-0.15948 -0.288313,0.0539 -0.61758,0.33879 -0.546149,0.66024 0.151428,0.17048 0.302795,0.55308 0.561985,0.27189 z m 5.40717,0.006 c 0.366791,-0.23256 0.676851,-0.58921 0.840559,-1.01303 0.07308,-0.36355 0.05892,-0.72757 -0.409243,-0.58404 -0.330753,0.27372 -0.790141,0.47993 -1.041586,0.79529 -0.118052,0.42832 0.11754,0.63743 0.508421,0.75026 0.03204,0.0206 0.0711,0.0287 0.101849,0.0516 z m 2.505437,-0.2692 c 0.352557,-0.0355 0.70817,-0.27236 0.814352,-0.6328 0.215071,-0.28599 0.243202,-0.61745 0.214157,-0.96282 -0.462729,-0.13731 -0.474554,0.16812 -0.702691,0.27175 -0.29984,0.0392 -0.680464,0.35151 -0.769618,0.62479 -0.04133,0.34258 -0.03062,0.68769 0.393435,0.69384 z"
       style="fill:#53c324;fill-opacity:1;stroke-width:0.810653"
       id="path1-2" /><path
       d="m 22.833703,145.10304 h -12.36648 v -14.03957 -14.03955 l 0.211717,-0.0812 0.211717,-0.0812 h 12.07539 12.075391 l 0.160616,0.16062 0.160616,0.16061 v 13.74848 13.74846 l -0.08124,0.21172 -0.08124,0.21172 z m -0.03009,-0.27827 11.734083,0.0105 0.211716,-0.0812 0.211717,-0.0812 V 130.96791 117.26297 H 22.848023 10.734916 v 13.70811 13.70811 l 0.167309,0.0675 0.167308,0.0675 z"
       style="fill:#0350bc;fill-opacity:1;stroke-width:0.810653"
       id="path1-3"
       sodipodi:nodetypes="cccccccccccccccccccccccccccc" /><path
       d="m 22.934686,144.40182 c -3.854466,0 -7.708933,0 -11.5634,0 -0.294284,-0.56614 -0.116773,-1.21994 -0.165575,-1.8317 -0.0038,-3.86405 -0.0075,-7.72809 -0.01128,-11.59214 0.207459,-0.35867 0.585441,-0.0671 0.895885,-0.0332 0.605239,0.18313 1.27173,0.21717 1.791748,0.60772 0.456895,-0.134 0.481453,0.16434 0.700993,0.26769 0.461652,0.006 0.834939,0.37645 1.258764,0.53843 0.268574,0.17449 0.666265,0.2702 0.854652,0.49362 -0.04363,0.30909 0.482227,0.11826 0.633314,0.40896 0.390903,0.27875 0.843361,0.50511 1.195543,0.81679 0.06117,0.36164 0.60993,-0.062 0.675693,0.33121 0.283571,0.15396 0.595266,0.0253 0.726597,0.35273 0.572388,0.24635 1.144778,0.4927 1.717169,0.73904 -0.06108,0.36473 0.490693,0.0992 0.675555,0.37288 0.475525,0.20405 0.906064,0.59619 1.45408,0.49713 0.09045,0.43941 0.57546,0.17114 0.831464,0.31361 0.13428,0.34935 0.59378,0.19641 0.889952,0.29572 0.975727,0.11969 1.934408,0.40211 2.914343,0.45928 0.98806,-0.0248 1.984534,0.033 2.967301,-0.0438 0.905169,-0.179 1.806626,-0.3781 2.718912,-0.51857 -0.154089,-0.50233 0.452928,-0.009 0.40154,0.22405 0,2.43355 0,4.8671 0,7.30065 -3.854417,-5e-5 -7.708834,-1.1e-4 -11.56325,-1.6e-4 z"
       style="fill:#0350bc;fill-opacity:1;stroke-width:0.810653"
       id="path1" /></g></svg>
