<?xml version="1.0" encoding="UTF-8" standalone="no"?>
<!-- Created with Inkscape (http://www.inkscape.org/) -->

<svg
   width="94.375435mm"
   height="28.241611mm"
   viewBox="0 0 94.375425 28.241611"
   version="1.1"
   id="svg1"
   xml:space="preserve"
   sodipodi:docname="logo.WSE.short.svg"
   inkscape:version="1.4 (86a8ad7, 2024-10-11)"
   inkscape:export-filename="X:\garantias\public\assets\images\logo.WSE.short.svg"
   inkscape:export-xdpi="96"
   inkscape:export-ydpi="96"
   xmlns:inkscape="http://www.inkscape.org/namespaces/inkscape"
   xmlns:sodipodi="http://sodipodi.sourceforge.net/DTD/sodipodi-0.dtd"
   xmlns="http://www.w3.org/2000/svg"
   xmlns:svg="http://www.w3.org/2000/svg"><sodipodi:namedview
     id="namedview1"
     pagecolor="#ffffff"
     bordercolor="#666666"
     borderopacity="1.0"
     inkscape:showpageshadow="2"
     inkscape:pageopacity="0.0"
     inkscape:pagecheckerboard="0"
     inkscape:deskcolor="#d1d1d1"
     inkscape:document-units="mm"
     showguides="true"
     inkscape:zoom="1.8892094"
     inkscape:cx="249.04597"
     inkscape:cy="97.130575"
     inkscape:window-width="2560"
     inkscape:window-height="1009"
     inkscape:window-x="-8"
     inkscape:window-y="-8"
     inkscape:window-maximized="1"
     inkscape:current-layer="layer1"><sodipodi:guide
       position="98.821181,30.085774"
       orientation="1,0"
       id="guide1"
       inkscape:locked="false" /><inkscape:page
       x="1.5191063e-16"
       y="1.0913392e-16"
       width="94.375427"
       height="28.24161"
       id="page1"
       margin="0"
       bleed="0" /></sodipodi:namedview><defs
     id="defs1" /><g
     inkscape:label="Layer 1"
     inkscape:groupmode="layer"
     id="layer1"
     transform="translate(-10.467223,-116.86152)"><rect
       style="display:inline;fill:#ffffff;fill-opacity:1;stroke-width:1.978;paint-order:markers fill stroke"
       id="rect5"
       width="24.454901"
       height="27.822279"
       x="10.654824"
       y="117.12144"
       inkscape:export-filename="X:\garantias\public\assets\images\logo.wse.short.white.svg"
       inkscape:export-xdpi="96"
       inkscape:export-ydpi="96" /><path
       d="m 29.396037,136.27376 c -0.837434,-0.02 -1.687019,0.0673 -2.497123,-0.19433 -0.797583,-0.20684 -1.640534,-0.2847 -2.411276,-0.56405 -0.319515,-0.28056 -0.7778,-0.0607 -1.08603,-0.36218 -0.312301,-0.1273 -0.630182,-0.34641 -0.372531,-0.69824 0.290029,-0.56034 0.465418,-1.20425 0.863723,-1.68515 0.402292,-0.86211 0.853047,-1.71909 1.233535,-2.58041 0,-0.75364 0,-1.50728 0,-2.26092 -0.450532,-0.0169 -0.1656,-0.55086 -0.5634,-0.72063 -0.282623,-0.2581 -0.511891,-0.6389 -0.826653,-0.82308 -0.429125,-0.14787 -0.780077,-0.53852 -1.179376,-0.77903 -0.18115,-0.32302 -0.789969,0.0562 -0.656306,-0.4256 -0.400768,0.11896 -0.560302,-0.1463 -0.845632,-0.27395 -0.301705,-0.10865 -0.744296,-0.008 -0.955225,-0.25148 -0.173068,-0.30314 -0.643486,-0.0635 -0.945516,-0.13116 -0.59374,-0.0299 0.330266,0.17153 0.51632,0.26049 0.444323,-0.002 0.558653,0.44387 0.941724,0.39613 0.489836,-0.17397 0.205554,0.42617 0.679906,0.26769 0.486238,0.16727 0.933646,0.51245 1.389989,0.76951 0.474597,0.4006 1.014976,0.74752 1.268725,1.33919 0.384396,0.42533 0.169194,1.01921 0.22484,1.53695 -0.109069,0.47693 -0.405174,0.91274 -0.58731,1.37361 -0.63693,0.6723 -1.076257,1.52023 -1.713835,2.20108 -0.3848,0.40907 -0.787426,0.80199 -1.178908,1.20501 -0.646884,-0.33231 -1.293765,-0.66463 -1.940647,-0.99694 -0.109675,-0.30931 -0.564108,-0.19514 -0.784138,-0.49207 -0.363414,-0.28345 -0.850067,-0.46208 -1.13424,-0.81293 -0.332178,-0.0874 -0.394818,-0.23092 -0.703723,-0.39792 -0.658099,-0.23485 -1.34714,-0.44885 -1.966372,-0.75178 -0.277066,-0.26882 -0.753439,-0.2076 -1.108511,-0.35835 -0.592709,-0.18396 -1.230264,-0.24643 -1.778803,-0.55005 0.06183,-3.85328 0.03391,-7.70718 0.04767,-11.56079 2.409237,0 4.818474,0 7.227711,0 0.17236,0.42813 -0.379132,0.4527 -0.267694,0.84688 0.05171,0.32209 -0.108136,0.73181 0.08364,0.99588 0.219064,0.35077 0.474851,0.37645 0.766746,0.0826 0.122177,-0.31081 0.363765,-0.66989 0.103423,-0.98136 -0.09836,-0.29812 -0.408332,-0.74256 -0.381521,-0.944 1.50465,0 3.0093,0 4.51395,0 0.02651,0.48012 -0.04162,0.99241 0.04386,1.45249 0.172298,0.35684 0.451405,0.4985 0.839116,0.42136 0.352143,-0.20675 0.349101,-0.56062 0.321237,-0.92477 -0.374097,0.0512 -0.398549,-0.49706 -0.593722,-0.74831 -0.255107,-0.39097 0.546361,-0.12125 0.789322,-0.20077 3.182201,0 6.364402,0 9.546603,0 0.301591,0.62574 0.10405,1.34392 0.160353,2.01509 -4.88e-4,4.99249 -9.73e-4,9.98498 -0.0015,14.97747 -0.135786,0.32399 -0.168526,0.76869 -0.621779,0.72085 -0.991622,0.18372 -1.967559,0.49154 -2.964359,0.61791 -0.498764,-0.003 -0.997529,-0.006 -1.496293,-0.01 z m -8.900793,-5.54815 c 0.74249,-0.0437 1.518777,-0.0792 2.228184,-0.257 0.215349,-0.24584 0.623518,-0.40779 0.515674,-0.79425 -0.180913,-0.20806 -0.691738,-8.1e-4 -0.977799,0.0805 -0.343685,0.0788 -0.67118,0.26672 -1.029905,0.24413 -0.0011,-0.35257 0.08658,-0.74378 -0.292929,-0.93172 -0.172808,-0.27527 -0.644002,-0.44175 -0.767138,-0.0481 0.175056,0.32662 0.350114,0.65324 0.525174,0.97986 -0.75178,-0.0392 -1.535758,0.12632 -2.242438,-0.19967 -0.331376,-0.13129 -0.737717,-0.15295 -0.958939,-0.44268 -0.52949,-0.0662 -0.403683,-0.30806 -0.0784,-0.6034 -0.01484,-0.36055 -0.130217,-0.66919 -0.434077,-0.8805 -0.165903,0.24969 -0.190049,0.60581 -0.168279,0.92163 -0.356574,0.0319 -0.78836,-0.12719 -1.012225,0.24187 -0.134128,0.37471 -0.701765,0.139 -0.59393,0.54923 0.09714,0.36638 0.43721,-0.22441 0.519788,-0.25333 0.226684,0.0344 1.076642,-0.0714 0.487111,0.1467 -0.323302,0.1511 -0.677511,0.27235 -0.750439,0.66524 -0.310236,0.38303 0.02101,0.44966 0.362731,0.39038 0.282087,-0.0616 0.765108,-0.18821 0.851435,-0.45289 -0.224627,-0.40583 0.521882,-0.52676 0.402753,-0.11332 0.571556,0.3007 1.145758,0.59655 1.797828,0.66727 0.538066,0.17605 1.060775,0.13799 1.615816,0.0901 z m 5.101724,0.0761 c 0.526525,-0.0388 1.061048,-0.18069 1.560927,-0.34147 0.25493,-0.25487 0.609304,-0.12064 0.886981,-0.28049 0.532108,-0.30786 1.124346,-0.54 1.481863,-1.06775 0.627476,-0.56959 0.865256,-1.40901 1.281391,-2.12493 0.270631,-0.0778 0.82571,0.22994 0.884794,-0.13468 -0.06499,-0.47509 0.461094,-0.32706 0.631347,-0.58833 0.207609,-0.36201 0.347769,-0.73913 0.284045,-1.16195 0.17487,-0.4294 -0.42413,-0.40815 -0.628309,-0.20788 -0.235072,0.25404 -0.691008,0.40666 -0.576306,0.82131 -0.378872,-0.18299 -0.389965,0.56818 -0.01556,0.40154 0.17958,0.41323 -0.238264,0.43704 -0.568507,0.45873 -0.415263,-0.007 -0.722904,0.13526 -0.827521,0.56091 -0.194269,0.45756 -0.458038,0.86379 -0.852804,1.17326 -0.289866,0.23849 -0.541915,0.58333 -0.861042,0.75172 -0.484694,-0.17096 -0.211048,0.41642 -0.673499,0.2677 -0.327498,0.0389 -0.459825,0.42791 -0.89835,0.26769 -0.418781,0.007 -0.860387,-0.077 -1.207938,0.21404 -0.150222,0.19149 -0.319612,0.62011 -0.180944,0.86289 0.04607,0.15627 0.142833,0.13154 0.27944,0.12769 z M 15.569699,128.794 c 0.402765,0.19921 0.429844,-0.49319 0.149237,-0.57193 -0.251724,-0.0413 -0.850351,-0.63739 -0.77832,-0.1507 -0.08841,0.3332 0.142718,0.73788 0.498646,0.72265 0.04348,-1e-5 0.08696,-1e-5 0.130437,-2e-5 z m 17.841731,-0.18062 c 0.358145,0.0288 0.143356,-0.62031 -0.01201,-0.787 -0.246147,-0.26318 -0.468614,-0.56512 -0.856869,-0.59569 -0.262043,-0.11696 -0.605971,0.30007 -0.603474,0.54827 0.02459,0.32805 0.428649,0.5971 0.732974,0.69768 0.245869,0.0526 0.483913,0.21105 0.739383,0.13674 z m -19.474662,-0.70791 c 0.300562,0.006 0.314825,-0.79332 0.02335,-0.7176 -0.429037,-0.0894 -0.139842,0.53936 -0.224116,0.79468 0.06692,-0.0257 0.133845,-0.0514 0.200766,-0.0771 z m -1.647515,-0.0615 c 0.329137,0.007 0.453747,-0.36451 0.838455,-0.29639 0.269269,-0.18406 0.535359,-0.57817 0.173329,-0.8138 -0.211355,-0.39824 -0.653883,-0.12936 -0.972282,-0.0332 -0.314478,0.24281 -0.603268,0.51542 -0.89633,0.78308 0.28463,0.118 0.53152,0.38942 0.856828,0.36022 z m 4.136131,-0.59102 c 0.505789,0.007 0.982293,-0.10575 1.427189,-0.34745 0.470825,-0.13053 0.820177,-0.44748 1.153914,-0.7884 0.458891,-0.0772 0.0097,0.52459 0.01633,0.76918 -0.08284,0.41526 0.311317,0.56724 0.558596,0.19901 0.358167,-0.16523 0.534847,-0.42403 0.445364,-0.82005 0.04892,-0.44001 -0.828646,0.13207 -0.669235,-0.36467 0.117637,-0.19385 0.676578,-0.70681 0.223719,-0.72039 -0.425327,-0.10828 -0.593447,0.3839 -0.878832,0.60231 -0.286966,0.22249 -0.458169,0.71522 -0.88881,0.60231 -0.280434,0.0424 -0.215741,0.42988 -0.700735,0.26769 0.0703,0.40647 -0.435376,0.23696 -0.740807,0.2677 -0.566522,0 -1.133044,0 -1.699567,0 0.0919,-0.47553 -0.587669,-0.25037 -0.0296,0.0239 0.487936,0.20034 1.018799,0.44543 1.564187,0.32532 0.07276,-0.006 0.14552,-0.011 0.218281,-0.0165 z m 5.806611,0.0687 c 0.372281,0.0832 0.84719,-0.0361 0.638755,-0.50113 -0.07423,-0.35021 -0.576211,-0.081 -0.83732,-0.16062 -0.21679,0.11746 -0.760384,0.33478 -0.410724,0.61921 0.145066,0.0976 0.423037,0.0148 0.609289,0.0426 z m 3.21557,-0.41088 c 0.354009,0.0524 0.667907,-0.0147 0.913276,-0.28595 0.230034,-0.26023 -0.198091,-0.62185 -0.490252,-0.66874 -0.320029,-0.12636 -0.640362,-0.40997 -0.959604,-0.13053 -0.422408,0.0268 -0.408952,0.52608 -0.255183,0.79307 0.192046,0.35098 0.438491,0.30462 0.791763,0.29215 z m 4.205012,-0.2583 c 0.403816,0.11586 0.411927,-0.42697 0.250216,-0.66924 -0.398366,0 -0.796732,0 -1.195097,0 0.145341,0.33811 0.61377,0.33395 0.68835,0.53539 -0.06411,0.225 0.124706,0.10348 0.256531,0.13385 z m -16.257463,-0.29559 c 0.400628,0.0607 0.381621,-0.48762 0.307025,-0.75807 -0.01654,-0.51728 -0.522511,-0.74482 -0.833399,-1.08785 -0.517016,-0.15609 -0.292249,0.4296 -0.337353,0.74542 -0.0833,0.38626 0.08001,0.67487 0.377238,0.91043 0.143405,0.19013 0.241226,0.27937 0.486489,0.19007 z m 1.004902,0.0279 c 0.392596,0.0878 0.541195,-0.38523 0.808294,-0.58587 0.02113,-0.25374 0.05249,-0.84506 -0.267694,-0.55962 0.104821,0.43937 -0.529835,0.005 -0.642459,0.36917 -0.209213,0.12753 -0.299456,0.82894 0.0168,0.77632 h 0.05914 z m 16.310058,-0.43169 c 0.414278,-8.1e-4 0.1274,-0.62842 0.09997,-0.88208 -0.273823,-0.44555 -0.435115,-0.25103 -0.557434,0.16507 -0.146423,0.22799 0.135289,0.81465 0.406023,0.72758 z M 17.773695,125.8161 c 0.37766,-0.006 0.742752,-0.0399 0.957694,-0.39218 0.13447,-0.23162 0.06432,-0.70731 -0.03138,-0.9307 -0.365603,-0.32677 -0.496922,0.27211 -0.818368,0.28536 -0.412588,-0.0724 -0.586678,0.43093 -0.885396,0.63343 -0.213003,0.34065 0.271249,0.57054 0.564922,0.4242 0.07084,-0.006 0.141682,-0.0134 0.212524,-0.0201 z m 6.133207,-0.005 c 0.388718,-0.009 0.199482,-0.58601 0.317866,-0.8607 0.03864,-0.66537 0.432784,-1.23106 0.654091,-1.84521 0.51691,-0.42492 0.781323,-1.09117 1.285745,-1.53923 0.426492,0.11559 0.17153,-0.45027 0.665,-0.26769 0.179477,-0.41592 -0.310616,-0.22867 -0.516286,-0.0599 -0.401161,0.19732 -0.622138,0.67412 -1.11609,0.68205 -0.06877,-0.1921 -0.171852,-0.35203 -0.389052,-0.51922 -0.119169,-0.16696 -0.259442,-0.91859 -0.365155,-0.71305 -0.183517,0.32927 -0.132249,0.63728 0.09771,0.92912 0.02739,0.31046 0.829319,0.38885 0.405327,0.66742 -0.469367,0.51326 -1.063382,0.98255 -1.203664,1.69777 -0.01561,0.37716 -0.404759,0.59192 -0.369434,0.9521 -0.05739,0.36002 0.03045,0.66569 0.322642,0.89487 0.05197,0.0323 0.147286,-0.0214 0.211303,-0.0183 z m -7.809622,-0.36358 c 0.394256,0.0425 0.559436,-0.45087 0.847466,-0.65685 0.273683,-0.21514 0.173277,-0.66954 -0.226882,-0.5862 -0.380001,-0.14917 -0.702423,0.10062 -0.572626,0.50245 -0.03542,0.29029 -0.43152,0.2199 -0.267694,0.70944 -0.0079,0.0756 0.168831,0.009 0.219736,0.0311 z m 4.417209,-1.20461 c 0.437872,0.0633 0.07964,-0.60581 0.146287,-0.88402 -0.03368,-0.40384 -0.06736,-0.80768 -0.101037,-1.21152 0.312292,-0.0307 0.747279,0.27578 0.967546,-0.008 0.243259,-0.3157 0.597703,-0.58909 0.774889,-0.92993 0.155615,-0.52311 -0.363174,-0.27306 -0.678539,-0.25622 -0.37713,-0.002 -0.693678,0.10845 -0.884933,0.45001 -0.297352,0.103 -0.188595,0.95 -0.49588,0.53153 -0.271003,-0.23597 -0.245304,-0.58896 -0.608455,-0.77636 -0.272822,-0.18012 -0.451601,-0.60215 -0.822688,-0.5295 0.202317,0.2984 0.543807,0.53932 0.67979,0.85627 -0.129767,-0.008 -0.70067,-0.1004 -0.49899,0.38609 -0.0859,0.38511 0.602628,0.56508 0.49899,0.12734 -0.09058,-0.57234 0.406766,-0.18136 0.434247,0.16362 0.220572,0.56566 0.442355,1.14763 0.368834,1.76563 0.01659,0.21619 -0.09351,0.38177 0.219939,0.31492 z m 5.435,-0.0432 c 0.667038,-0.02 1.329714,-0.0717 1.97424,-0.25489 -0.177185,-0.47635 0.564824,-0.0335 0.53538,-0.36213 0.04288,-0.30208 0.612165,-0.18218 0.747135,-0.51853 0.225799,-0.24814 0.573617,-0.44257 0.725181,-0.72338 0.0113,-0.48179 -0.348996,-0.15548 -0.351329,0.13108 -0.19552,0.31584 -0.542158,0.26686 -0.742694,0.5706 -0.415185,0.29476 -0.980304,0.34441 -1.455527,0.54101 -0.643651,0.27786 -1.357325,0.0645 -2.035657,0.0993 -0.468903,-0.11639 -0.580692,0.16375 -0.500961,0.57988 0.368078,-0.021 0.736155,-0.0419 1.104232,-0.0629 z m -8.599636,-0.22452 c 0.354319,0.003 0.279224,-0.33469 0.652127,-0.37659 0.06386,-0.24071 0.540958,-0.82092 0.107384,-0.82756 -0.493244,-0.14773 -0.394145,0.2074 -0.717289,0.32122 -0.488407,1e-4 -0.25926,0.52529 -0.309916,0.84571 -0.01645,0.0864 0.213244,0.0135 0.267694,0.0372 z m -0.920959,-0.23309 c 0.392766,0.003 0.494486,-0.49702 0.280291,-0.76876 -0.09278,-0.51148 -0.591964,-0.7053 -0.954625,-1.00584 -0.508886,-0.14592 -0.220344,0.43266 -0.242567,0.72889 0.0084,0.36461 0.02839,0.72328 0.395289,0.90306 0.166758,0.17956 0.280985,0.2624 0.521612,0.14265 z m 15.476764,-0.57587 c 0.290581,0.0345 0.19852,-0.65369 0.0794,-0.82986 -0.297235,-0.2815 -0.650558,-0.63897 -1.070052,-0.61043 -0.234779,0.20327 -0.800806,0.32 -0.432329,0.68092 0.08348,0.36778 0.408823,0.48172 0.733224,0.56697 0.229544,0.0624 0.446027,0.20762 0.689757,0.1924 z m -2.703699,-0.94011 c 0.389812,-0.002 0.539312,-0.42411 0.136501,-0.60301 -0.221811,-0.0512 -0.900401,-0.20642 -0.879351,0.12028 -0.04178,0.32976 0.480748,0.38841 0.720349,0.48128 z m -11.775621,-0.66005 c 0.344002,-0.0349 0.770994,0.13074 0.978746,-0.23303 0.290339,-0.2258 0.171092,-0.68911 -0.125455,-0.86402 -0.420204,-0.088 -0.368681,-0.26708 -0.220171,-0.67822 -0.330066,-0.22795 -0.608523,-0.60498 -1.054275,-0.49871 -0.527841,0.0175 -0.223511,0.51289 0.08113,0.68211 0.127864,0.21987 0.857241,0.57706 0.342821,0.65031 -0.312279,0.1189 -0.490501,0.45466 -0.748586,0.66123 -0.141918,0.50201 0.469177,0.19744 0.745785,0.28033 z m 12.638934,-0.0123 c 0.238575,-0.1108 0.695244,-0.30989 0.497734,-0.6545 -0.04956,-0.37227 -0.110888,-0.73889 -0.423786,-0.98472 -0.136589,-0.29753 -0.628732,-0.58468 -0.683095,-0.089 -0.127578,0.35642 -0.02836,0.75486 -0.06005,1.12904 0.226978,0.17725 0.411817,0.49644 0.669203,0.59916 z m 1.472308,-0.25535 c 0.424813,0.18248 0.570242,-0.33212 0.21951,-0.51983 -0.172529,-0.30846 -0.751494,-0.10331 -0.62105,0.24787 -0.07426,0.39046 0.114822,0.24718 0.40154,0.27196 z m -8.198095,-0.27195 c 0.3395,0.0723 0.753365,-0.17571 0.836538,-0.47794 0.05486,-0.34941 -0.566217,-0.14735 -0.78326,-0.14297 -0.285252,0.0875 -0.705673,0.6803 -0.184813,0.62236 0.04385,-4.8e-4 0.08769,-8.1e-4 0.131535,-0.002 z m -3.286104,-0.27872 c 0.319346,-0.12853 0.499497,-0.49102 0.642637,-0.77265 0.143173,-0.50412 -0.381737,-0.17751 -0.658473,-0.15948 -0.288313,0.0539 -0.61758,0.33879 -0.546149,0.66024 0.151428,0.17048 0.302795,0.55308 0.561985,0.27189 z m 5.40717,0.006 c 0.366791,-0.23256 0.676851,-0.58921 0.840559,-1.01303 0.07308,-0.36355 0.05892,-0.72757 -0.409243,-0.58404 -0.330753,0.27372 -0.790141,0.47993 -1.041586,0.79529 -0.118052,0.42832 0.11754,0.63743 0.508421,0.75026 0.03204,0.0206 0.0711,0.0287 0.101849,0.0516 z m 2.505437,-0.2692 c 0.352557,-0.0355 0.70817,-0.27236 0.814352,-0.6328 0.215071,-0.28599 0.243202,-0.61745 0.214157,-0.96282 -0.462729,-0.13731 -0.474554,0.16812 -0.702691,0.27175 -0.29984,0.0392 -0.680464,0.35151 -0.769618,0.62479 -0.04133,0.34258 -0.03062,0.68769 0.393435,0.69384 z"
       style="fill:#53c324;fill-opacity:1;stroke-width:0.810653"
       id="path1-2" /><path
       d="m 22.833703,145.10304 h -12.36648 v -14.03957 -14.03955 l 0.211717,-0.0812 0.211717,-0.0812 h 12.07539 12.075391 l 0.160616,0.16062 0.160616,0.16061 v 13.74848 13.74846 l -0.08124,0.21172 -0.08124,0.21172 z m -0.03009,-0.27827 11.734083,0.0105 0.211716,-0.0812 0.211717,-0.0812 V 130.96791 117.26297 H 22.848023 10.734916 v 13.70811 13.70811 l 0.167309,0.0675 0.167308,0.0675 z"
       style="fill:#0350bc;fill-opacity:1;stroke-width:0.810653"
       id="path1-3"
       sodipodi:nodetypes="cccccccccccccccccccccccccccc" /><path
       d="m 41.814777,127.55694 c -1.242439,0.003 -1.614004,-1.60886 -1.748228,-2.33884 -0.669975,-1.046 -1.013737,-2.81747 -1.740004,-4.07841 -0.10309,-1.15569 -1.528813,-2.81099 -0.935932,-3.34908 1.46283,-0.31204 2.583803,0.19238 2.408243,1.74002 0.703396,0.64506 0.891377,2.40635 1.495492,3.40231 0.372029,1.40848 0.632748,1.88312 1.181437,0.747 0.21679,-1.19199 1.084324,-2.51066 1.338468,-3.34616 0.551107,-0.53102 0.47916,-2.43167 1.7526,-2.81077 2.011874,-0.14154 1.95617,2.59509 2.825563,3.88012 0.501354,0.80112 0.835698,3.30265 1.578773,2.83132 0.09454,-0.9757 0.904434,-2.18599 1.204622,-3.23934 0.297712,-0.74116 0.85813,-2.06713 1.308994,-3.13749 1.614406,-0.27775 2.857795,-0.17753 1.509331,1.58787 -0.756202,1.95198 -1.572885,3.49878 -2.282945,5.52313 -0.487201,0.47291 -0.430554,2.0048 -1.472309,2.32505 -0.962157,1.04921 -2.109885,-0.93422 -2.341249,-1.98684 -0.625231,-1.50116 -1.386294,-3.27805 -1.960547,-4.57163 -0.893451,0.82046 -0.828984,1.51224 -1.414808,2.70157 -0.619309,1.1999 -0.723188,1.7995 -1.362685,3.02329 -0.233283,0.52071 -0.676857,1.2567 -1.344816,1.09688 z m 55.17,-0.1582 c -1.58655,-0.17948 -3.28796,0.30151 -4.47675,-0.98092 -1.26574,-0.88371 -2.41423,-1.45355 -3.4824,-2.35359 -0.91558,0.12776 0.38151,3.27932 -0.91017,3.22927 -2.28092,0.71471 -1.33228,-1.77765 -1.39851,-3.11264 0.0791,-2.12858 0.0332,-4.26052 0.0621,-6.39045 3.24979,0.1718 6.58157,-0.37119 9.77079,0.32856 0.67276,0.56787 1.09654,1.38447 0.93499,2.78436 0.41325,1.92168 -1.29544,3.5893 -3.20959,3.14365 -2.1811,-0.21725 -1.90319,0.53765 -0.18241,1.23059 0.84304,0.91855 2.66162,1.14308 3.12703,2.14972 z m -5.18655,-4.9237 c 1.30186,-0.13305 3.82735,0.66293 3.68041,-1.42359 0.24794,-1.75488 -1.53093,-1.58273 -2.81848,-1.52104 -1.18077,0.37912 -3.99817,-0.8784 -3.87359,0.80606 -0.62345,2.23193 0.8093,2.40766 2.68687,2.13857 h 0.26868 z m -37.88951,4.81818 c -2.118521,0.27432 0.06378,-1.54528 0.380446,-2.57689 1.000899,-1.6002 1.987066,-3.28809 2.859865,-4.71735 0.73775,-0.98361 0.808704,-2.01118 2.228514,-2.47648 1.738906,-0.18487 2.093063,1.78464 2.835904,2.74432 0.718927,1.17028 0.931944,1.54936 1.543929,2.69286 0.684318,1.01679 1.678408,2.8429 2.409237,4.16392 -1.060788,0.56824 -2.63381,0.12663 -3.078463,-1.03492 -0.272728,-1.67815 -2.569914,-0.6639 -3.787375,-0.93428 -1.472443,-0.005 -3.28695,-0.43012 -3.773395,1.42472 -0.212641,0.83945 -0.825905,0.74423 -1.618662,0.7141 z m 5.6325,-3.88155 c 2.357914,0.54381 2.221981,-0.6406 0.892334,-2.10944 -0.266918,-1.0004 -1.132314,-2.04059 -1.695392,-0.23288 -0.116601,0.79786 -2.252936,2.61286 -0.465384,2.34237 0.422814,-2e-5 0.845628,-3e-5 1.268442,-5e-5 z m 10.023353,3.88155 c -1.982075,0.31194 -0.596181,-2.71423 -0.983499,-3.98291 -0.365631,-1.23016 0.997662,-4.2054 -1.079895,-3.78018 -1.553921,0.38344 -3.648615,-0.18852 -2.337289,-1.67309 h 9.364597 c 0.750792,2.1771 -1.493198,1.66729 -2.895741,1.67309 -1.841205,-0.0606 -0.661646,2.63965 -1.016397,3.82447 -0.393552,1.19777 0.844718,4.04081 -0.838236,3.93862 z m 11.693235,-0.009 c -1.888592,-0.22267 -4.752494,0.79912 -5.620083,-1.5185 -0.521716,-2.06755 -0.09399,-4.31102 0.06352,-6.42668 1.002842,-2.16489 3.689813,-1.41819 5.590021,-1.5486 0.693161,2.21174 -1.274283,1.76288 -2.815757,1.74 -0.924971,0.11665 -1.66239,2.73568 0.142789,2.14149 h 6.688362 c 0.71667,2.28185 -1.39637,1.734 -2.955554,1.74 h -4.807554 c -0.65331,2.15968 1.429872,2.40495 3.037745,2.14154 h 4.725363 c 0.71667,2.2835 -1.396365,1.73081 -2.955547,1.73324 -0.364436,-8.1e-4 -0.728873,-0.002 -1.093311,-0.002 z"
       style="fill:#ffffff;fill-opacity:1;stroke-width:0.810653"
       id="path1-9"
       sodipodi:nodetypes="ccccccccccccccccccccccccccccccccccccccccccccccccccccccccccccccccccccccccccccccc" /><path
       d="m 63.412106,144.03113 c -0.475617,-0.24212 -0.751156,-0.8427 -1.147294,-1.22115 -0.293907,-0.60391 -0.377101,0.13789 -0.342968,0.51235 0.235172,0.48713 -0.436641,0.96734 -0.40917,0.3105 -0.0099,-0.65564 -0.01974,-1.31128 -0.0296,-1.96693 0.33977,-0.28257 0.667325,0.11602 0.8255,0.37206 0.392415,0.45636 0.723334,0.9267 1.108773,1.37129 0.53492,-0.5946 0.989482,-1.29566 1.552998,-1.82236 0.607175,-0.13488 0.364834,0.58005 0.398282,0.93551 -0.0072,0.4715 -0.01441,0.94301 -0.02158,1.41452 -0.656053,0.20213 -0.409098,-0.53906 -0.480796,-0.94733 0.124033,-0.79428 -0.31808,-0.2172 -0.570552,0.12974 -0.294085,0.30149 -0.482311,0.76311 -0.883595,0.9118 z m 19.526278,-0.05 c -0.556177,0.13078 -0.193198,-0.6935 -0.295835,-1.00604 0.177398,-0.61594 -0.554355,-0.42692 -0.926315,-0.45069 -0.294028,0.38293 -0.1287,0.95312 -0.235102,1.41254 -0.659282,0.20214 -0.388072,-0.52617 -0.439431,-0.93194 -0.101661,-0.47056 0.222854,-0.97743 0.730311,-0.91959 0.409085,-0.0171 0.820791,-0.0434 1.139917,0.25991 0.278227,-0.3913 0.880468,-0.21984 1.304149,-0.26039 0.584735,0.0576 0.513567,0.68213 0.466092,1.123 -0.02279,0.42985 0.06511,0.85649 -0.470126,0.83661 0,-0.4634 0,-0.92677 0,-1.39016 -0.319319,-0.19949 -0.970054,-0.24457 -1.130035,0.14151 -0.09756,0.3296 0.193063,1.06516 -0.143625,1.18524 z m 9.505802,0.045 c -0.495708,0.005 -0.166055,-0.67491 -0.259127,-0.99091 -0.117359,-0.56409 0.386734,-1.02676 0.937418,-0.95032 0.544116,0.0643 1.377436,-0.23757 1.603101,0.45414 0.07751,0.43268 0.01112,0.90373 0.03345,1.3511 -0.482892,0.37956 -0.645598,-0.12952 -0.55088,-0.57455 0.05658,-0.49032 0.01117,-0.89052 -0.582916,-0.80605 -0.395528,0.0262 -1.043464,-0.0557 -0.895889,0.55098 -0.09337,0.28288 0.115975,0.92869 -0.285154,0.96561 z m 3.142422,-0.0243 c -0.516486,0.0453 -0.158021,-0.74319 -0.262565,-1.06986 0.213072,-0.45369 -0.561374,-0.44815 -0.116144,-0.85106 0.164253,-0.18735 0.444355,-0.81077 0.734031,-0.31605 -0.157237,0.52435 0.838736,0.1127 0.575576,0.66018 -0.370475,0.0982 -0.780875,0.0402 -0.632302,0.6252 -0.05694,0.26772 0.118158,1.0194 -0.298596,0.95159 z m 2.243475,-0.009 c -0.498478,0.10555 -1.192767,-0.15294 -1.061444,-0.7605 0.06295,-0.42222 -0.07492,-0.98306 0.464836,-1.10689 0.716361,0.0447 1.500895,-0.24221 2.139731,0.17994 -0.04246,0.31232 0.250104,1.02478 -0.308643,0.91942 -0.555727,0.0373 -1.188811,-0.0921 -1.698437,0.0445 -0.308391,0.48848 0.552182,0.28354 0.832225,0.32258 0.193379,0.29785 -0.08306,0.45966 -0.368268,0.4009 z m 0.249458,-1.09147 c 0.402668,0.10342 1.088894,-0.0484 0.607916,-0.4393 -0.421093,0.0529 -0.904896,-0.10878 -1.281731,0.0956 -0.29511,0.60443 0.312974,0.25135 0.673815,0.34366 z m -31.288844,1.0609 c -0.489597,0.086 -1.124483,-0.19694 -0.969779,-0.7819 0.0091,-0.39114 -0.12644,-0.95198 0.399094,-1.0482 0.568166,-0.10907 1.179145,-0.0153 1.763815,-0.0463 0.441652,0.18256 0.423064,0.64193 0.362389,1.04407 -0.283906,0.20516 -0.83923,0.0252 -1.225322,0.0854 -0.421088,-0.1959 -1.144212,0.23982 -0.510159,0.37667 0.415214,-0.20436 1.078713,0.2956 0.404578,0.37297 -0.07487,-9.3e-4 -0.149748,-0.002 -0.224616,-0.003 z m 0.313898,-1.0609 c 0.404351,0.11627 1.040684,-0.0643 0.569716,-0.4393 -0.420162,0.0526 -0.902821,-0.10786 -1.279131,0.0944 -0.205773,0.57264 0.391254,0.2722 0.709415,0.34492 z m 3.054374,1.04469 c -0.437499,0.0229 -0.880982,0.0769 -1.265151,-0.1792 -0.138757,-0.2669 -0.144146,-0.66719 -0.125562,-1.09145 0.04854,-0.56635 0.783811,-0.64478 1.24425,-0.59016 0.44082,0.003 1.010256,0.14384 0.856119,-0.49317 0.423762,-0.41379 0.660632,0.21153 0.536397,0.61458 9.35e-4,0.50439 0.02402,1.08195 -0.19607,1.52475 -0.277053,0.31128 -0.680617,0.164 -1.049983,0.21465 z m -0.03499,-0.35836 c 0.432531,0.12673 0.875884,-0.14907 0.703506,-0.632 0.168748,-0.64477 -0.593201,-0.34046 -0.97291,-0.42595 -0.587934,-0.18128 -0.555608,0.43661 -0.521274,0.83084 0.05075,0.2931 0.569854,0.21396 0.790678,0.22711 z m 1.930896,0.38093 c -0.441454,0.006 -0.124957,-0.74276 -0.211374,-1.06726 -0.03626,-0.35575 -0.05347,-1.03014 0.450074,-0.73876 0.141209,0.57326 -0.0099,1.21052 -0.028,1.806 -0.07024,1e-5 -0.140473,1e-5 -0.210716,2e-5 z m 2.082982,-0.0198 c -0.470313,0.0156 -1.193801,0.1197 -1.351558,-0.45206 0.03415,-0.47532 -0.148978,-1.15116 0.414764,-1.35527 0.495946,-0.11259 1.078811,-0.0549 1.59432,-0.0292 0.681936,0.16283 0.69511,1.07525 0.417133,1.57941 -0.294094,0.3441 -0.670547,0.22872 -1.074659,0.2571 z m -0.09825,-0.35683 c 0.430941,0.10425 0.921048,-0.13177 0.755481,-0.63454 0.09897,-0.56376 -0.652546,-0.41617 -1.0158,-0.43271 -0.484614,-0.1015 -0.609604,0.55128 -0.435276,0.86307 0.183387,0.27167 0.406627,0.20032 0.695595,0.20418 z m 3.334776,0.37668 c -0.55233,-0.0102 0.15552,-0.60368 0.230651,-0.86911 0.182678,-0.21491 0.279676,-0.47856 0.531819,-0.78454 0.32345,-0.22671 0.312451,-0.79203 0.8017,-0.74195 0.440173,-0.0202 0.517203,0.44561 0.674881,0.64822 0.286566,0.32198 0.42603,0.64641 0.600838,0.93584 0.18552,0.33246 0.429947,0.53883 0.48211,0.79335 -0.378288,0.10059 -0.741105,-0.006 -0.860922,-0.40122 -0.36347,-0.19296 -0.894028,-0.029 -1.322535,-0.0829 -0.519422,-0.19179 -0.656495,0.3271 -0.96542,0.50224 -0.0577,2e-5 -0.115411,4e-5 -0.173122,6e-5 z m 1.501384,-0.9417 c 0.725106,0.18574 0.557743,-0.28546 0.219826,-0.69602 -0.296313,-0.48626 -0.514366,0.45463 -0.784847,0.62794 0.0038,0.15658 0.434745,0.0241 0.565021,0.0681 z m 7.607992,0.92667 c -0.472189,0.0136 -1.2367,0.1435 -1.32948,-0.49221 0.04771,-0.65547 -0.08433,-1.33614 0.09931,-1.97256 0.715837,-0.28131 0.205942,0.78876 0.876396,0.58138 0.530513,0.10337 1.345822,-0.18963 1.59774,0.44623 -0.05814,0.4654 0.189886,1.0614 -0.302157,1.34164 -0.230774,0.17946 -0.653329,0.0426 -0.941808,0.0955 z m -0.06227,-0.36165 c 0.484797,0.1305 0.896668,-0.13203 0.741189,-0.66124 0.157693,-0.59278 -0.594534,-0.36405 -0.939744,-0.40601 -0.551551,-0.17938 -0.664622,0.38421 -0.530275,0.79915 0.05054,0.38594 0.453666,0.24338 0.72883,0.2681 z m 2.057316,0.36397 c -0.576709,0.0838 -0.203869,-0.77742 -0.304971,-1.12885 -0.105023,-0.4159 0.239531,-0.90056 0.560722,-0.61082 -0.01117,0.57367 -0.02228,1.14733 -0.0334,1.721 -0.07411,0.006 -0.148212,0.0124 -0.222321,0.0186 z m 1.677895,0.005 c -0.429169,0.0612 -1.050133,-0.0659 -0.985071,-0.61315 -0.03869,-0.47788 -0.03677,-1.13279 0.556142,-1.23342 0.571795,-0.0747 1.173253,0.003 1.756013,-0.0161 0.385285,0.19502 0.413929,0.84994 0.217213,1.0889 -0.658849,0.0496 -1.366938,-0.0143 -1.996444,0.10279 -0.164483,0.60197 0.811448,0.0675 0.94223,0.42792 0.159396,0.36083 -0.299708,0.22486 -0.490083,0.2431 z m 0.371406,-1.0587 c 0.391782,0.13359 1.074323,-0.10167 0.544957,-0.42858 -0.395276,0.0402 -0.906574,-0.13312 -1.237765,0.0878 -0.384398,0.46844 0.452997,0.32202 0.692808,0.3408 z m -2.045608,-0.87891 c -0.483691,-0.12135 -0.07934,-0.84366 0.228048,-0.46811 0.231721,0.17114 -0.07149,0.421 -0.228048,0.46811 z m -16.35495,-0.0678 c -0.470533,0.0817 -0.336871,-0.66895 0.09686,-0.49728 0.242471,0.11145 0.191773,0.52615 -0.09686,0.49728 z"
       style="fill:#53c324;fill-opacity:1;stroke-width:0.38023"
       id="path1-4" /><path
       d="m 44.174742,144.69665 c -0.210877,-0.0632 -0.638103,0.15088 -0.658291,-0.15682 -0.145646,-0.31955 0.163765,-0.4052 0.420625,-0.34542 0.270797,-0.0196 0.559318,0.0565 0.809154,-0.0762 0.115185,-0.37325 -0.206898,-0.30923 -0.473733,-0.30046 -0.515047,-0.024 -1.044287,0.0489 -1.550243,-0.0371 -0.247393,-0.0457 -0.46343,-0.13357 -0.555087,-0.38811 0.01216,-0.36945 0.02432,-0.7389 0.03649,-1.10834 0.232098,-0.14717 0.44059,-0.374 0.740881,-0.29099 0.701213,0.0118 1.402426,0.0236 2.103639,0.0354 0.164013,0.20796 0.474395,0.35726 0.38863,0.66533 -0.01657,0.52093 0.03307,1.06274 -0.02471,1.57069 -0.132658,0.28114 -0.455868,0.4088 -0.747623,0.43212 -0.163245,0 -0.32649,-1e-5 -0.489734,-1e-5 z m -0.260343,-1.32334 c 0.277276,0.002 0.554554,0.004 0.83183,0.005 -0.02446,-0.25038 0.04803,-0.5512 -0.03527,-0.77095 -0.285959,-0.29272 -0.715773,-0.1293 -1.080978,-0.17075 -0.252059,0.0348 -0.577159,-0.10672 -0.73481,0.15602 -0.163541,0.15313 -0.122828,0.48896 -0.02317,0.67082 0.282225,0.20639 0.708597,0.0647 1.042395,0.10992 z m 13.613487,1.32334 c -0.22046,-0.0509 -0.648708,0.10596 -0.72797,-0.0862 -0.07264,-0.30341 0.0599,-0.44609 0.372134,-0.36034 0.307755,0.0292 0.611197,0.0346 0.883459,-0.13377 0.115191,-0.37265 -0.208302,-0.30662 -0.473733,-0.29866 -0.53394,-0.0206 -1.083042,0.0413 -1.607553,-0.0306 -0.255194,-0.0508 -0.454043,-0.26684 -0.556696,-0.4833 0.01089,-0.42509 0.02179,-0.85019 0.03266,-1.2753 0.198707,0.0526 0.666341,-0.17949 0.659183,0.0913 0,0.37868 0,0.75737 0,1.13606 0.443993,0.22497 0.955351,0.0832 1.433465,0.12245 0.267455,-0.003 0.630016,0.0925 0.516421,-0.30136 0.0092,-0.34947 0.01846,-0.69894 0.0277,-1.04841 0.198705,0.0526 0.66634,-0.17949 0.659181,0.0913 0,0.71248 0,1.42495 0,2.13743 -0.183316,0.005 -0.144056,0.32915 -0.413136,0.38457 -0.219206,0.12495 -0.553372,0.0206 -0.805122,0.0549 z M 41.96823,144.05723 c -0.245039,-0.054 -0.542638,0.005 -0.758452,-0.0929 -0.182587,-0.22166 -0.313108,-0.61922 -0.668096,-0.52336 -0.618426,0 -1.236851,0 -1.855274,0 -0.160193,0.18567 -0.288872,0.45114 -0.495664,0.56502 -0.227116,-0.0307 -0.578239,0.0618 -0.726661,-0.0471 0.131002,-0.25352 0.408418,-0.44752 0.557108,-0.70946 0.117827,-0.21552 0.369631,-0.35979 0.411901,-0.59344 0.351121,-0.39438 0.63158,-0.84477 1.008259,-1.21677 0.282588,0.005 0.636646,-0.1173 0.826843,0.16012 0.217279,0.22011 0.355806,0.50958 0.585699,0.72056 0.0066,0.22589 0.282171,0.3512 0.373205,0.55921 0.136364,0.21632 0.355741,0.38476 0.438328,0.60959 0.112125,0.17124 0.50319,0.40477 0.338675,0.57377 z m -2.208751,-1.05564 c 0.178425,-0.0628 0.71659,0.1377 0.624331,-0.12315 0.004,-0.221 -0.30461,-0.28793 -0.283273,-0.49894 -0.158797,-0.14306 -0.370232,-0.50552 -0.531591,-0.1602 -0.169631,0.14638 -0.240095,0.4343 -0.425798,0.5307 -0.225782,0.25651 0.195299,0.29381 0.426648,0.25156 0.06322,10e-6 0.126455,2e-5 0.189683,3e-5 z m 11.816296,1.02397 c -0.581849,-0.005 -1.19781,0.0766 -1.753943,-0.0828 -0.289196,-0.1687 -0.145609,-0.51668 -0.178793,-0.79144 -0.03038,-0.31264 0.36989,-0.19034 0.446868,-0.40079 0.750885,0 1.50177,0 2.252656,0 0.06588,-0.32031 -0.249279,-0.34808 -0.485093,-0.32353 -0.242822,-0.0383 -0.579386,0.0853 -0.664901,-0.22446 0.02413,-0.35415 0.405073,-0.16969 0.643671,-0.2001 0.273552,0.0295 0.583329,-0.0206 0.834088,0.059 0.160577,0.19998 0.445288,0.35099 0.362832,0.64681 -0.02576,0.40643 0.117531,0.90108 -0.257369,1.18829 -0.193841,0.22031 -0.540308,0.0706 -0.803746,0.12215 -0.13209,0.003 -0.26418,0.005 -0.39627,0.006 z m -0.305997,-0.33339 c 0.292443,0 0.584885,0 0.877327,0 0.138114,-0.12503 0.35684,-0.5791 0.06627,-0.56596 -0.616126,0.0108 -1.232253,0.0217 -1.848378,0.0323 -0.01382,0.17459 -0.126907,0.56901 0.156652,0.53362 0.249374,-1e-5 0.498748,-1e-5 0.748121,-1e-5 z m -3.710034,0.30894 c -0.420053,-0.0395 -0.870153,0.0771 -1.268281,-0.0763 -0.18371,-0.17241 -0.397148,-0.33244 -0.315374,-0.6155 -0.0019,-0.42692 -0.0038,-0.85382 -0.0057,-1.28073 0.224953,0.0193 0.573302,-0.0897 0.725508,0.006 -0.0055,0.44906 -0.01112,0.89811 -0.01668,1.34717 0.138929,0.30337 0.492696,0.14926 0.757006,0.18565 0.30496,-0.0206 0.644199,0.0417 0.927827,-0.0304 0.272689,-0.18894 0.101242,-0.56185 0.148917,-0.84398 0.05629,-0.20411 -0.113822,-0.63462 0.08613,-0.69507 0.178942,0.0655 0.633479,-0.14437 0.604443,0.1292 0,0.4801 0,0.9602 0,1.44029 -0.190876,-0.006 -0.181577,0.35975 -0.458902,0.38708 -0.337528,0.1177 -0.72923,0.0172 -1.088381,0.0479 -0.03218,-1.3e-4 -0.06437,-2.8e-4 -0.09655,-3.7e-4 z"
       style="fill:#ffffff;fill-opacity:1;stroke-width:0.38023"
       id="path1-5" /><path
       d="m 22.934686,144.40182 c -3.854466,0 -7.708933,0 -11.5634,0 -0.294284,-0.56614 -0.116773,-1.21994 -0.165575,-1.8317 -0.0038,-3.86405 -0.0075,-7.72809 -0.01128,-11.59214 0.207459,-0.35867 0.585441,-0.0671 0.895885,-0.0332 0.605239,0.18313 1.27173,0.21717 1.791748,0.60772 0.456895,-0.134 0.481453,0.16434 0.700993,0.26769 0.461652,0.006 0.834939,0.37645 1.258764,0.53843 0.268574,0.17449 0.666265,0.2702 0.854652,0.49362 -0.04363,0.30909 0.482227,0.11826 0.633314,0.40896 0.390903,0.27875 0.843361,0.50511 1.195543,0.81679 0.06117,0.36164 0.60993,-0.062 0.675693,0.33121 0.283571,0.15396 0.595266,0.0253 0.726597,0.35273 0.572388,0.24635 1.144778,0.4927 1.717169,0.73904 -0.06108,0.36473 0.490693,0.0992 0.675555,0.37288 0.475525,0.20405 0.906064,0.59619 1.45408,0.49713 0.09045,0.43941 0.57546,0.17114 0.831464,0.31361 0.13428,0.34935 0.59378,0.19641 0.889952,0.29572 0.975727,0.11969 1.934408,0.40211 2.914343,0.45928 0.98806,-0.0248 1.984534,0.033 2.967301,-0.0438 0.905169,-0.179 1.806626,-0.3781 2.718912,-0.51857 -0.154089,-0.50233 0.452928,-0.009 0.40154,0.22405 0,2.43355 0,4.8671 0,7.30065 -3.854417,-5e-5 -7.708834,-1.1e-4 -11.56325,-1.6e-4 z"
       style="fill:#0350bc;fill-opacity:1;stroke-width:0.810653"
       id="path1" /><path
       d="m 75.075703,138.77597 c -1.93127,0.84288 -2.31792,-0.67792 -1.90101,-2.35917 0.10853,-2.37255 0.17541,-4.7467 0.26139,-7.12011 3.21893,0.14582 6.51832,-0.44516 9.67861,0.23753 1.66914,1.21686 1.19687,3.70067 0.71532,5.42323 -1.50727,1.9533 -4.29394,0.78896 -6.40898,1.09855 -2.19975,-0.61956 -2.48563,0.67476 -2.17837,2.5622 z m 3.36048,-4.462 c 1.25056,-0.18891 3.79641,0.72845 3.633,-1.33516 0.582,-1.86554 -1.40107,-2.29233 -2.8141,-2.00934 -1.26096,0.36504 -4.03101,-0.94503 -3.80648,1.06892 -0.81291,2.07332 0.48853,2.67331 2.37505,2.27591 z m 12.94202,4.66688 c -1.89653,-0.0949 -4.12506,0.27999 -5.69517,-1.01357 -0.59273,-1.64054 -0.14353,-4.02417 -0.26999,-5.9976 -0.27783,-1.72065 0.16835,-3.39622 2.2108,-2.67295 -0.0769,2.37031 -0.16021,4.74042 -0.23977,7.11065 1.47661,1.21008 3.68428,0.30832 5.48383,0.58552 1.87166,-1.04565 2.22837,2.433 0.38795,2.00177 -0.62588,-0.005 -1.25176,-0.009 -1.87765,-0.0138 z m 6.84505,0.0147 c -2.02121,0.27774 -0.44809,-1.62873 -0.89557,-2.90443 0.55331,-1.91016 -1.14182,-2.88357 -2.28921,-4.08518 -0.43044,-0.8232 -3.89017,-2.86815 -1.67853,-2.77593 2.26014,-0.50571 3.40174,1.91056 4.93703,3.13357 0.88637,0.40001 1.866227,-1.36541 2.694867,-1.8275 0.95882,-1.08948 1.99866,-1.5482 3.50689,-1.30555 1.34554,0.30993 -1.66876,1.61739 -1.99356,2.42956 -1.21418,1.29527 -3.471997,2.20894 -3.116587,4.33124 -0.37081,0.92793 0.54557,3.48769 -1.16533,3.00422 z m -55.99124,-0.19361 c -1.34354,-0.28173 -3.68687,0.63306 -4.42973,-0.41649 -0.319,-2.27164 2.50348,-1.01914 3.90455,-1.36119 1.29989,-0.33552 3.63791,0.6962 4.2238,-0.74298 0.47288,-2.01792 -1.98172,-1.33592 -3.17642,-1.42983 -1.56917,-0.0845 -4.498,0.56628 -4.66462,-1.67415 -0.48754,-1.84375 0.48631,-4.43359 2.77145,-3.9474 1.58672,-0.4143 3.62197,0.24034 2.39168,1.74 -1.34123,0.0165 -3.84839,-0.48953 -3.33707,1.67309 0.98232,1.07173 2.94057,0.17741 4.31042,0.46846 1.57083,-0.26197 3.80805,0.27619 3.6045,2.27116 0.0956,1.21966 -0.12348,2.96172 -1.39228,3.23144 -1.17661,0.35547 -2.84775,0.0773 -4.20628,0.18789 z m 12.73712,-0.003 c -1.94996,-0.12054 -4.9732,0.71962 -5.83024,-1.6668 0.0237,-2.61183 0.0473,-5.22365 0.071,-7.83548 2.33475,-0.77727 2.23181,0.96231 2.05835,2.77469 0.30057,1.60995 -0.93681,3.76002 0.61855,4.91262 1.62919,-0.12722 3.48234,0.26583 4.97121,-0.18736 1.34896,-1.14717 0.43127,-3.20477 0.71403,-4.78018 -0.23935,-1.65055 -0.0864,-3.44176 2.04611,-2.78745 0.24473,2.08237 -0.0919,4.7299 -0.068,7.02694 -0.21633,1.23279 -0.56491,1.93521 -1.8541,2.47893 -0.89421,0.0717 -1.82144,0.0343 -2.72694,0.0641 z m 7.15692,0.0354 c -2.06684,0.4679 -0.72592,-2.37446 -0.99036,-3.51792 0.0741,-1.97323 0.0276,-3.94962 0.0533,-5.92412 2.94232,-0.31406 6.0533,-0.17229 9.0209,-0.0715 2.4221,0.45693 1.80978,3.32966 1.68472,5.13525 -1.03267,2.50341 -4.01909,1.33868 -6.21932,1.59917 -1.90473,-0.3919 -2.97134,0.12735 -2.63183,2.17519 0.16485,0.86059 -0.34697,0.50308 -0.91748,0.60395 z m 4.19504,-4.54486 c 1.40138,-0.16224 4.0715,0.67372 3.56034,-1.65117 0.42499,-1.93513 -1.3825,-1.70347 -2.81107,-1.66852 -1.24818,0.32743 -4.01396,-0.90154 -3.83232,1.14027 -0.68019,2.25143 0.66646,2.51417 2.61598,2.18541 l 0.26867,-0.003 z"
       style="fill:#ffffff;fill-opacity:1;stroke-width:0.810653"
       id="path2"
       sodipodi:nodetypes="ccccccccccccccsccccccssccccccccccccccccccccccccccccccccccccccccccccccccccc" /></g></svg>
