<?xml version="1.0" encoding="UTF-8" standalone="no"?>
<!-- Created with Inkscape (http://www.inkscape.org/) -->

<svg
   width="167.849mm"
   height="34.838097mm"
   viewBox="0 0 167.84899 34.838097"
   version="1.1"
   id="svg1"
   xml:space="preserve"
   sodipodi:docname="logowse.svg"
   inkscape:export-filename="..\..\..\..\Users\alexs\Downloads\logowseb.svg"
   inkscape:export-xdpi="96"
   inkscape:export-ydpi="96"
   inkscape:version="1.3.2 (091e20e, 2023-11-25, custom)"
   xmlns:inkscape="http://www.inkscape.org/namespaces/inkscape"
   xmlns:sodipodi="http://sodipodi.sourceforge.net/DTD/sodipodi-0.dtd"
   xmlns="http://www.w3.org/2000/svg"
   xmlns:svg="http://www.w3.org/2000/svg"><sodipodi:namedview
     id="namedview1"
     pagecolor="#ffffff"
     bordercolor="#666666"
     borderopacity="1.0"
     inkscape:showpageshadow="2"
     inkscape:pageopacity="0.0"
     inkscape:pagecheckerboard="0"
     inkscape:deskcolor="#d1d1d1"
     inkscape:document-units="mm"
     inkscape:zoom="1.4439516"
     inkscape:cx="361.16169"
     inkscape:cy="79.988831"
     inkscape:window-width="2560"
     inkscape:window-height="1009"
     inkscape:window-x="-8"
     inkscape:window-y="-8"
     inkscape:window-maximized="1"
     inkscape:current-layer="layer1" /><defs
     id="defs1" /><g
     inkscape:label="Layer 1"
     inkscape:groupmode="layer"
     id="layer1"
     transform="translate(-6.5782649,-113.19671)"><rect
       style="fill:#ffffff;stroke-width:2.5;paint-order:markers fill stroke"
       id="rect1"
       width="168.75998"
       height="34.998001"
       x="6.2117939"
       y="113.19671"
       transform="translate(1.2708333e-7)" /><rect
       style="display:inline;fill:#ffffff;fill-opacity:1;stroke-width:1.978;paint-order:markers fill stroke"
       id="rect5"
       width="24.454901"
       height="27.822279"
       x="10.654824"
       y="117.12144" /><path
       d="m 29.396037,136.27376 c -0.837434,-0.02 -1.687019,0.0673 -2.497123,-0.19433 -0.797583,-0.20684 -1.640534,-0.2847 -2.411276,-0.56405 -0.319515,-0.28056 -0.7778,-0.0607 -1.08603,-0.36218 -0.312301,-0.1273 -0.630182,-0.34641 -0.372531,-0.69824 0.290029,-0.56034 0.465418,-1.20425 0.863723,-1.68515 0.402292,-0.86211 0.853047,-1.71909 1.233535,-2.58041 0,-0.75364 0,-1.50728 0,-2.26092 -0.450532,-0.0169 -0.1656,-0.55086 -0.5634,-0.72063 -0.282623,-0.2581 -0.511891,-0.6389 -0.826653,-0.82308 -0.429125,-0.14787 -0.780077,-0.53852 -1.179376,-0.77903 -0.18115,-0.32302 -0.789969,0.0562 -0.656306,-0.4256 -0.400768,0.11896 -0.560302,-0.1463 -0.845632,-0.27395 -0.301705,-0.10865 -0.744296,-0.008 -0.955225,-0.25148 -0.173068,-0.30314 -0.643486,-0.0635 -0.945516,-0.13116 -0.59374,-0.0299 0.330266,0.17153 0.51632,0.26049 0.444323,-0.002 0.558653,0.44387 0.941724,0.39613 0.489836,-0.17397 0.205554,0.42617 0.679906,0.26769 0.486238,0.16727 0.933646,0.51245 1.389989,0.76951 0.474597,0.4006 1.014976,0.74752 1.268725,1.33919 0.384396,0.42533 0.169194,1.01921 0.22484,1.53695 -0.109069,0.47693 -0.405174,0.91274 -0.58731,1.37361 -0.63693,0.6723 -1.076257,1.52023 -1.713835,2.20108 -0.3848,0.40907 -0.787426,0.80199 -1.178908,1.20501 -0.646884,-0.33231 -1.293765,-0.66463 -1.940647,-0.99694 -0.109675,-0.30931 -0.564108,-0.19514 -0.784138,-0.49207 -0.363414,-0.28345 -0.850067,-0.46208 -1.13424,-0.81293 -0.332178,-0.0874 -0.394818,-0.23092 -0.703723,-0.39792 -0.658099,-0.23485 -1.34714,-0.44885 -1.966372,-0.75178 -0.277066,-0.26882 -0.753439,-0.2076 -1.108511,-0.35835 -0.592709,-0.18396 -1.230264,-0.24643 -1.778803,-0.55005 0.06183,-3.85328 0.03391,-7.70718 0.04767,-11.56079 2.409237,0 4.818474,0 7.227711,0 0.17236,0.42813 -0.379132,0.4527 -0.267694,0.84688 0.05171,0.32209 -0.108136,0.73181 0.08364,0.99588 0.219064,0.35077 0.474851,0.37645 0.766746,0.0826 0.122177,-0.31081 0.363765,-0.66989 0.103423,-0.98136 -0.09836,-0.29812 -0.408332,-0.74256 -0.381521,-0.944 1.50465,0 3.0093,0 4.51395,0 0.02651,0.48012 -0.04162,0.99241 0.04386,1.45249 0.172298,0.35684 0.451405,0.4985 0.839116,0.42136 0.352143,-0.20675 0.349101,-0.56062 0.321237,-0.92477 -0.374097,0.0512 -0.398549,-0.49706 -0.593722,-0.74831 -0.255107,-0.39097 0.546361,-0.12125 0.789322,-0.20077 3.182201,0 6.364402,0 9.546603,0 0.301591,0.62574 0.10405,1.34392 0.160353,2.01509 -4.88e-4,4.99249 -9.73e-4,9.98498 -0.0015,14.97747 -0.135786,0.32399 -0.168526,0.76869 -0.621779,0.72085 -0.991622,0.18372 -1.967559,0.49154 -2.964359,0.61791 -0.498764,-0.003 -0.997529,-0.006 -1.496293,-0.01 z m -8.900793,-5.54815 c 0.74249,-0.0437 1.518777,-0.0792 2.228184,-0.257 0.215349,-0.24584 0.623518,-0.40779 0.515674,-0.79425 -0.180913,-0.20806 -0.691738,-8.1e-4 -0.977799,0.0805 -0.343685,0.0788 -0.67118,0.26672 -1.029905,0.24413 -0.0011,-0.35257 0.08658,-0.74378 -0.292929,-0.93172 -0.172808,-0.27527 -0.644002,-0.44175 -0.767138,-0.0481 0.175056,0.32662 0.350114,0.65324 0.525174,0.97986 -0.75178,-0.0392 -1.535758,0.12632 -2.242438,-0.19967 -0.331376,-0.13129 -0.737717,-0.15295 -0.958939,-0.44268 -0.52949,-0.0662 -0.403683,-0.30806 -0.0784,-0.6034 -0.01484,-0.36055 -0.130217,-0.66919 -0.434077,-0.8805 -0.165903,0.24969 -0.190049,0.60581 -0.168279,0.92163 -0.356574,0.0319 -0.78836,-0.12719 -1.012225,0.24187 -0.134128,0.37471 -0.701765,0.139 -0.59393,0.54923 0.09714,0.36638 0.43721,-0.22441 0.519788,-0.25333 0.226684,0.0344 1.076642,-0.0714 0.487111,0.1467 -0.323302,0.1511 -0.677511,0.27235 -0.750439,0.66524 -0.310236,0.38303 0.02101,0.44966 0.362731,0.39038 0.282087,-0.0616 0.765108,-0.18821 0.851435,-0.45289 -0.224627,-0.40583 0.521882,-0.52676 0.402753,-0.11332 0.571556,0.3007 1.145758,0.59655 1.797828,0.66727 0.538066,0.17605 1.060775,0.13799 1.615816,0.0901 z m 5.101724,0.0761 c 0.526525,-0.0388 1.061048,-0.18069 1.560927,-0.34147 0.25493,-0.25487 0.609304,-0.12064 0.886981,-0.28049 0.532108,-0.30786 1.124346,-0.54 1.481863,-1.06775 0.627476,-0.56959 0.865256,-1.40901 1.281391,-2.12493 0.270631,-0.0778 0.82571,0.22994 0.884794,-0.13468 -0.06499,-0.47509 0.461094,-0.32706 0.631347,-0.58833 0.207609,-0.36201 0.347769,-0.73913 0.284045,-1.16195 0.17487,-0.4294 -0.42413,-0.40815 -0.628309,-0.20788 -0.235072,0.25404 -0.691008,0.40666 -0.576306,0.82131 -0.378872,-0.18299 -0.389965,0.56818 -0.01556,0.40154 0.17958,0.41323 -0.238264,0.43704 -0.568507,0.45873 -0.415263,-0.007 -0.722904,0.13526 -0.827521,0.56091 -0.194269,0.45756 -0.458038,0.86379 -0.852804,1.17326 -0.289866,0.23849 -0.541915,0.58333 -0.861042,0.75172 -0.484694,-0.17096 -0.211048,0.41642 -0.673499,0.2677 -0.327498,0.0389 -0.459825,0.42791 -0.89835,0.26769 -0.418781,0.007 -0.860387,-0.077 -1.207938,0.21404 -0.150222,0.19149 -0.319612,0.62011 -0.180944,0.86289 0.04607,0.15627 0.142833,0.13154 0.27944,0.12769 z M 15.569699,128.794 c 0.402765,0.19921 0.429844,-0.49319 0.149237,-0.57193 -0.251724,-0.0413 -0.850351,-0.63739 -0.77832,-0.1507 -0.08841,0.3332 0.142718,0.73788 0.498646,0.72265 0.04348,-1e-5 0.08696,-1e-5 0.130437,-2e-5 z m 17.841731,-0.18062 c 0.358145,0.0288 0.143356,-0.62031 -0.01201,-0.787 -0.246147,-0.26318 -0.468614,-0.56512 -0.856869,-0.59569 -0.262043,-0.11696 -0.605971,0.30007 -0.603474,0.54827 0.02459,0.32805 0.428649,0.5971 0.732974,0.69768 0.245869,0.0526 0.483913,0.21105 0.739383,0.13674 z m -19.474662,-0.70791 c 0.300562,0.006 0.314825,-0.79332 0.02335,-0.7176 -0.429037,-0.0894 -0.139842,0.53936 -0.224116,0.79468 0.06692,-0.0257 0.133845,-0.0514 0.200766,-0.0771 z m -1.647515,-0.0615 c 0.329137,0.007 0.453747,-0.36451 0.838455,-0.29639 0.269269,-0.18406 0.535359,-0.57817 0.173329,-0.8138 -0.211355,-0.39824 -0.653883,-0.12936 -0.972282,-0.0332 -0.314478,0.24281 -0.603268,0.51542 -0.89633,0.78308 0.28463,0.118 0.53152,0.38942 0.856828,0.36022 z m 4.136131,-0.59102 c 0.505789,0.007 0.982293,-0.10575 1.427189,-0.34745 0.470825,-0.13053 0.820177,-0.44748 1.153914,-0.7884 0.458891,-0.0772 0.0097,0.52459 0.01633,0.76918 -0.08284,0.41526 0.311317,0.56724 0.558596,0.19901 0.358167,-0.16523 0.534847,-0.42403 0.445364,-0.82005 0.04892,-0.44001 -0.828646,0.13207 -0.669235,-0.36467 0.117637,-0.19385 0.676578,-0.70681 0.223719,-0.72039 -0.425327,-0.10828 -0.593447,0.3839 -0.878832,0.60231 -0.286966,0.22249 -0.458169,0.71522 -0.88881,0.60231 -0.280434,0.0424 -0.215741,0.42988 -0.700735,0.26769 0.0703,0.40647 -0.435376,0.23696 -0.740807,0.2677 -0.566522,0 -1.133044,0 -1.699567,0 0.0919,-0.47553 -0.587669,-0.25037 -0.0296,0.0239 0.487936,0.20034 1.018799,0.44543 1.564187,0.32532 0.07276,-0.006 0.14552,-0.011 0.218281,-0.0165 z m 5.806611,0.0687 c 0.372281,0.0832 0.84719,-0.0361 0.638755,-0.50113 -0.07423,-0.35021 -0.576211,-0.081 -0.83732,-0.16062 -0.21679,0.11746 -0.760384,0.33478 -0.410724,0.61921 0.145066,0.0976 0.423037,0.0148 0.609289,0.0426 z m 3.21557,-0.41088 c 0.354009,0.0524 0.667907,-0.0147 0.913276,-0.28595 0.230034,-0.26023 -0.198091,-0.62185 -0.490252,-0.66874 -0.320029,-0.12636 -0.640362,-0.40997 -0.959604,-0.13053 -0.422408,0.0268 -0.408952,0.52608 -0.255183,0.79307 0.192046,0.35098 0.438491,0.30462 0.791763,0.29215 z m 4.205012,-0.2583 c 0.403816,0.11586 0.411927,-0.42697 0.250216,-0.66924 -0.398366,0 -0.796732,0 -1.195097,0 0.145341,0.33811 0.61377,0.33395 0.68835,0.53539 -0.06411,0.225 0.124706,0.10348 0.256531,0.13385 z m -16.257463,-0.29559 c 0.400628,0.0607 0.381621,-0.48762 0.307025,-0.75807 -0.01654,-0.51728 -0.522511,-0.74482 -0.833399,-1.08785 -0.517016,-0.15609 -0.292249,0.4296 -0.337353,0.74542 -0.0833,0.38626 0.08001,0.67487 0.377238,0.91043 0.143405,0.19013 0.241226,0.27937 0.486489,0.19007 z m 1.004902,0.0279 c 0.392596,0.0878 0.541195,-0.38523 0.808294,-0.58587 0.02113,-0.25374 0.05249,-0.84506 -0.267694,-0.55962 0.104821,0.43937 -0.529835,0.005 -0.642459,0.36917 -0.209213,0.12753 -0.299456,0.82894 0.0168,0.77632 h 0.05914 z m 16.310058,-0.43169 c 0.414278,-8.1e-4 0.1274,-0.62842 0.09997,-0.88208 -0.273823,-0.44555 -0.435115,-0.25103 -0.557434,0.16507 -0.146423,0.22799 0.135289,0.81465 0.406023,0.72758 z M 17.773695,125.8161 c 0.37766,-0.006 0.742752,-0.0399 0.957694,-0.39218 0.13447,-0.23162 0.06432,-0.70731 -0.03138,-0.9307 -0.365603,-0.32677 -0.496922,0.27211 -0.818368,0.28536 -0.412588,-0.0724 -0.586678,0.43093 -0.885396,0.63343 -0.213003,0.34065 0.271249,0.57054 0.564922,0.4242 0.07084,-0.006 0.141682,-0.0134 0.212524,-0.0201 z m 6.133207,-0.005 c 0.388718,-0.009 0.199482,-0.58601 0.317866,-0.8607 0.03864,-0.66537 0.432784,-1.23106 0.654091,-1.84521 0.51691,-0.42492 0.781323,-1.09117 1.285745,-1.53923 0.426492,0.11559 0.17153,-0.45027 0.665,-0.26769 0.179477,-0.41592 -0.310616,-0.22867 -0.516286,-0.0599 -0.401161,0.19732 -0.622138,0.67412 -1.11609,0.68205 -0.06877,-0.1921 -0.171852,-0.35203 -0.389052,-0.51922 -0.119169,-0.16696 -0.259442,-0.91859 -0.365155,-0.71305 -0.183517,0.32927 -0.132249,0.63728 0.09771,0.92912 0.02739,0.31046 0.829319,0.38885 0.405327,0.66742 -0.469367,0.51326 -1.063382,0.98255 -1.203664,1.69777 -0.01561,0.37716 -0.404759,0.59192 -0.369434,0.9521 -0.05739,0.36002 0.03045,0.66569 0.322642,0.89487 0.05197,0.0323 0.147286,-0.0214 0.211303,-0.0183 z m -7.809622,-0.36358 c 0.394256,0.0425 0.559436,-0.45087 0.847466,-0.65685 0.273683,-0.21514 0.173277,-0.66954 -0.226882,-0.5862 -0.380001,-0.14917 -0.702423,0.10062 -0.572626,0.50245 -0.03542,0.29029 -0.43152,0.2199 -0.267694,0.70944 -0.0079,0.0756 0.168831,0.009 0.219736,0.0311 z m 4.417209,-1.20461 c 0.437872,0.0633 0.07964,-0.60581 0.146287,-0.88402 -0.03368,-0.40384 -0.06736,-0.80768 -0.101037,-1.21152 0.312292,-0.0307 0.747279,0.27578 0.967546,-0.008 0.243259,-0.3157 0.597703,-0.58909 0.774889,-0.92993 0.155615,-0.52311 -0.363174,-0.27306 -0.678539,-0.25622 -0.37713,-0.002 -0.693678,0.10845 -0.884933,0.45001 -0.297352,0.103 -0.188595,0.95 -0.49588,0.53153 -0.271003,-0.23597 -0.245304,-0.58896 -0.608455,-0.77636 -0.272822,-0.18012 -0.451601,-0.60215 -0.822688,-0.5295 0.202317,0.2984 0.543807,0.53932 0.67979,0.85627 -0.129767,-0.008 -0.70067,-0.1004 -0.49899,0.38609 -0.0859,0.38511 0.602628,0.56508 0.49899,0.12734 -0.09058,-0.57234 0.406766,-0.18136 0.434247,0.16362 0.220572,0.56566 0.442355,1.14763 0.368834,1.76563 0.01659,0.21619 -0.09351,0.38177 0.219939,0.31492 z m 5.435,-0.0432 c 0.667038,-0.02 1.329714,-0.0717 1.97424,-0.25489 -0.177185,-0.47635 0.564824,-0.0335 0.53538,-0.36213 0.04288,-0.30208 0.612165,-0.18218 0.747135,-0.51853 0.225799,-0.24814 0.573617,-0.44257 0.725181,-0.72338 0.0113,-0.48179 -0.348996,-0.15548 -0.351329,0.13108 -0.19552,0.31584 -0.542158,0.26686 -0.742694,0.5706 -0.415185,0.29476 -0.980304,0.34441 -1.455527,0.54101 -0.643651,0.27786 -1.357325,0.0645 -2.035657,0.0993 -0.468903,-0.11639 -0.580692,0.16375 -0.500961,0.57988 0.368078,-0.021 0.736155,-0.0419 1.104232,-0.0629 z m -8.599636,-0.22452 c 0.354319,0.003 0.279224,-0.33469 0.652127,-0.37659 0.06386,-0.24071 0.540958,-0.82092 0.107384,-0.82756 -0.493244,-0.14773 -0.394145,0.2074 -0.717289,0.32122 -0.488407,1e-4 -0.25926,0.52529 -0.309916,0.84571 -0.01645,0.0864 0.213244,0.0135 0.267694,0.0372 z m -0.920959,-0.23309 c 0.392766,0.003 0.494486,-0.49702 0.280291,-0.76876 -0.09278,-0.51148 -0.591964,-0.7053 -0.954625,-1.00584 -0.508886,-0.14592 -0.220344,0.43266 -0.242567,0.72889 0.0084,0.36461 0.02839,0.72328 0.395289,0.90306 0.166758,0.17956 0.280985,0.2624 0.521612,0.14265 z m 15.476764,-0.57587 c 0.290581,0.0345 0.19852,-0.65369 0.0794,-0.82986 -0.297235,-0.2815 -0.650558,-0.63897 -1.070052,-0.61043 -0.234779,0.20327 -0.800806,0.32 -0.432329,0.68092 0.08348,0.36778 0.408823,0.48172 0.733224,0.56697 0.229544,0.0624 0.446027,0.20762 0.689757,0.1924 z m -2.703699,-0.94011 c 0.389812,-0.002 0.539312,-0.42411 0.136501,-0.60301 -0.221811,-0.0512 -0.900401,-0.20642 -0.879351,0.12028 -0.04178,0.32976 0.480748,0.38841 0.720349,0.48128 z m -11.775621,-0.66005 c 0.344002,-0.0349 0.770994,0.13074 0.978746,-0.23303 0.290339,-0.2258 0.171092,-0.68911 -0.125455,-0.86402 -0.420204,-0.088 -0.368681,-0.26708 -0.220171,-0.67822 -0.330066,-0.22795 -0.608523,-0.60498 -1.054275,-0.49871 -0.527841,0.0175 -0.223511,0.51289 0.08113,0.68211 0.127864,0.21987 0.857241,0.57706 0.342821,0.65031 -0.312279,0.1189 -0.490501,0.45466 -0.748586,0.66123 -0.141918,0.50201 0.469177,0.19744 0.745785,0.28033 z m 12.638934,-0.0123 c 0.238575,-0.1108 0.695244,-0.30989 0.497734,-0.6545 -0.04956,-0.37227 -0.110888,-0.73889 -0.423786,-0.98472 -0.136589,-0.29753 -0.628732,-0.58468 -0.683095,-0.089 -0.127578,0.35642 -0.02836,0.75486 -0.06005,1.12904 0.226978,0.17725 0.411817,0.49644 0.669203,0.59916 z m 1.472308,-0.25535 c 0.424813,0.18248 0.570242,-0.33212 0.21951,-0.51983 -0.172529,-0.30846 -0.751494,-0.10331 -0.62105,0.24787 -0.07426,0.39046 0.114822,0.24718 0.40154,0.27196 z m -8.198095,-0.27195 c 0.3395,0.0723 0.753365,-0.17571 0.836538,-0.47794 0.05486,-0.34941 -0.566217,-0.14735 -0.78326,-0.14297 -0.285252,0.0875 -0.705673,0.6803 -0.184813,0.62236 0.04385,-4.8e-4 0.08769,-8.1e-4 0.131535,-0.002 z m -3.286104,-0.27872 c 0.319346,-0.12853 0.499497,-0.49102 0.642637,-0.77265 0.143173,-0.50412 -0.381737,-0.17751 -0.658473,-0.15948 -0.288313,0.0539 -0.61758,0.33879 -0.546149,0.66024 0.151428,0.17048 0.302795,0.55308 0.561985,0.27189 z m 5.40717,0.006 c 0.366791,-0.23256 0.676851,-0.58921 0.840559,-1.01303 0.07308,-0.36355 0.05892,-0.72757 -0.409243,-0.58404 -0.330753,0.27372 -0.790141,0.47993 -1.041586,0.79529 -0.118052,0.42832 0.11754,0.63743 0.508421,0.75026 0.03204,0.0206 0.0711,0.0287 0.101849,0.0516 z m 2.505437,-0.2692 c 0.352557,-0.0355 0.70817,-0.27236 0.814352,-0.6328 0.215071,-0.28599 0.243202,-0.61745 0.214157,-0.96282 -0.462729,-0.13731 -0.474554,0.16812 -0.702691,0.27175 -0.29984,0.0392 -0.680464,0.35151 -0.769618,0.62479 -0.04133,0.34258 -0.03062,0.68769 0.393435,0.69384 z"
       style="fill:#53c324;fill-opacity:1;stroke-width:0.810653"
       id="path1-2" /><path
       d="m 22.833703,145.10304 h -12.36648 v -14.03957 -14.03955 l 0.211717,-0.0812 0.211717,-0.0812 h 12.07539 12.075391 l 0.160616,0.16062 0.160616,0.16061 v 13.74848 13.74846 l -0.08124,0.21172 -0.08124,0.21172 z m -0.03009,-0.27827 11.734083,0.0105 0.211716,-0.0812 0.211717,-0.0812 V 130.96791 117.26297 H 22.848023 10.734916 v 13.70811 13.70811 l 0.167309,0.0675 0.167308,0.0675 z"
       style="fill:#0350bc;fill-opacity:1;stroke-width:0.810653"
       id="path1-3"
       sodipodi:nodetypes="cccccccccccccccccccccccccccc" /><path
       d="m 41.814777,132.31039 c -1.242439,0.003 -1.614004,-1.60886 -1.748228,-2.33884 -0.669975,-1.046 -1.013737,-2.81747 -1.740004,-4.07841 -0.10309,-1.15569 -1.528813,-2.81099 -0.935932,-3.34908 1.46283,-0.31204 2.583803,0.19238 2.408243,1.74002 0.703396,0.64506 0.891377,2.40635 1.495492,3.40231 0.372029,1.40848 0.632748,1.88312 1.181437,0.747 0.21679,-1.19199 1.084324,-2.51066 1.338468,-3.34616 0.551107,-0.53102 0.47916,-2.43167 1.7526,-2.81077 2.011874,-0.14154 1.95617,2.59509 2.825563,3.88012 0.501354,0.80112 0.835698,3.30265 1.578773,2.83132 0.09454,-0.9757 0.904434,-2.18599 1.204622,-3.23934 0.297712,-0.74116 0.85813,-2.06713 1.308994,-3.13749 1.614406,-0.27775 2.857795,-0.17753 1.509331,1.58787 -0.756202,1.95198 -1.572885,3.49878 -2.282945,5.52313 -0.487201,0.47291 -0.430554,2.0048 -1.472309,2.32505 -0.962157,1.04921 -2.109885,-0.93422 -2.341249,-1.98684 -0.625231,-1.50116 -1.386294,-3.27805 -1.960547,-4.57163 -0.893451,0.82046 -0.828984,1.51224 -1.414808,2.70157 -0.619309,1.1999 -0.723188,1.7995 -1.362685,3.02329 -0.233283,0.52071 -0.676857,1.2567 -1.344816,1.09688 z m 99.272423,-0.22041 c -1.93127,0.84288 -2.31792,-0.67792 -1.90101,-2.35917 0.10853,-2.37255 0.17541,-4.7467 0.26139,-7.12011 3.21893,0.14582 6.51832,-0.44516 9.67861,0.23753 1.66914,1.21686 1.19687,3.70067 0.71532,5.42323 -1.50727,1.9533 -4.29394,0.78896 -6.40898,1.09855 -2.19975,-0.61956 -2.48563,0.67476 -2.17837,2.5622 z m 3.36048,-4.462 c 1.25056,-0.18891 3.79641,0.72845 3.633,-1.33516 0.582,-1.86554 -1.40107,-2.29233 -2.8141,-2.00934 -1.26096,0.36504 -4.03101,-0.94503 -3.80648,1.06892 -0.81291,2.07332 0.48853,2.67331 2.37505,2.27591 0.20417,-1.1e-4 0.40835,-2.2e-4 0.61253,-3.3e-4 z m 12.94202,4.66688 c -1.89653,-0.0949 -4.12506,0.27999 -5.69517,-1.01357 -0.59273,-1.64054 -0.14353,-4.02417 -0.26999,-5.9976 -0.27783,-1.72065 0.16835,-3.39622 2.2108,-2.67295 -0.0769,2.37031 -0.16021,4.74042 -0.23977,7.11065 1.47661,1.21008 3.68428,0.30832 5.48383,0.58552 1.87166,-1.04565 2.22837,2.433 0.38795,2.00177 -0.62588,-0.005 -1.25176,-0.009 -1.87765,-0.0138 z m 6.84505,0.0147 c -2.02121,0.27774 -0.44809,-1.62873 -0.89557,-2.90443 0.55331,-1.91016 -1.14182,-2.88357 -2.28921,-4.08518 -0.43044,-0.8232 -3.89017,-2.86815 -1.67853,-2.77593 2.26014,-0.50571 3.40174,1.91056 4.93703,3.13357 0.88637,0.40001 1.86623,-1.36541 2.69487,-1.8275 0.95882,-1.08948 1.99866,-1.5482 3.50689,-1.30555 1.34554,0.30993 -1.66876,1.61739 -1.99356,2.42956 -1.21418,1.29527 -3.472,2.20894 -3.11659,4.33124 -0.37081,0.92793 0.54557,3.48769 -1.16533,3.00422 z m -67.249973,-0.15737 c -1.58655,-0.17948 -3.28796,0.30151 -4.47675,-0.98092 -1.26574,-0.88371 -2.41423,-1.45355 -3.4824,-2.35359 -0.91558,0.12776 0.38151,3.27932 -0.91017,3.22927 -2.28092,0.71471 -1.33228,-1.77765 -1.39851,-3.11264 0.0791,-2.12858 0.0332,-4.26052 0.0621,-6.39045 3.24979,0.1718 6.58157,-0.37119 9.77079,0.32856 0.67276,0.56787 1.09654,1.38447 0.93499,2.78436 0.41325,1.92168 -1.29544,3.5893 -3.20959,3.14365 -2.1811,-0.21725 -1.90319,0.53765 -0.18241,1.23059 0.84304,0.91855 2.66162,1.14308 3.12703,2.14972 z m -5.18655,-4.9237 c 1.30186,-0.13305 3.82735,0.66293 3.68041,-1.42359 0.24794,-1.75488 -1.53093,-1.58273 -2.81848,-1.52104 -1.18077,0.37912 -3.99817,-0.8784 -3.87359,0.80606 -0.62345,2.23193 0.8093,2.40766 2.68687,2.13857 h 0.26868 z m 16.445283,4.88746 c -1.34354,-0.28173 -3.68687,0.63306 -4.42973,-0.41649 -0.319,-2.27164 2.50348,-1.01914 3.90455,-1.36119 1.29989,-0.33552 3.63791,0.6962 4.2238,-0.74298 0.47288,-2.01792 -1.98172,-1.33592 -3.17642,-1.42983 -1.56917,-0.0845 -4.498,0.56628 -4.66462,-1.67415 -0.48754,-1.84375 0.48631,-4.43359 2.77145,-3.9474 1.58672,-0.4143 3.62197,0.24034 2.39168,1.74 -1.34123,0.0165 -3.84839,-0.48953 -3.33707,1.67309 0.98232,1.07173 2.94057,0.17741 4.31042,0.46846 1.57083,-0.26197 3.80805,0.27619 3.6045,2.27116 0.0956,1.21966 -0.12348,2.96172 -1.39228,3.23144 -1.17661,0.35547 -2.84775,0.0773 -4.20628,0.18789 z m 12.73712,-0.003 c -1.94996,-0.12054 -4.9732,0.71962 -5.83024,-1.6668 0.0237,-2.61183 0.0473,-5.22365 0.071,-7.83548 2.33475,-0.77727 2.23181,0.96231 2.05835,2.77469 0.30057,1.60995 -0.93681,3.76002 0.61855,4.91262 1.62919,-0.12722 3.48234,0.26583 4.97121,-0.18736 1.34896,-1.14717 0.43127,-3.20477 0.71403,-4.78018 -0.23935,-1.65055 -0.0864,-3.44176 2.04611,-2.78745 0.24473,2.08237 -0.0919,4.7299 -0.068,7.02694 -0.21633,1.23279 -0.56491,1.93521 -1.8541,2.47893 -0.89421,0.0717 -1.82144,0.0343 -2.72694,0.0641 z m 7.15692,0.0354 c -2.06684,0.4679 -0.72592,-2.37446 -0.99036,-3.51792 0.0741,-1.97323 0.0276,-3.94962 0.0533,-5.92412 2.94232,-0.31406 6.0533,-0.17229 9.0209,-0.0715 2.4221,0.45693 1.80978,3.32966 1.68472,5.13525 -1.03267,2.50341 -4.01909,1.33868 -6.21932,1.59917 -1.90473,-0.3919 -2.97134,0.12735 -2.63183,2.17519 0.16485,0.86059 -0.34697,0.50308 -0.91748,0.60395 z m 4.19504,-4.54486 c 1.40138,-0.16224 4.0715,0.67372 3.56034,-1.65117 0.42499,-1.93513 -1.3825,-1.70347 -2.81107,-1.66852 -1.24818,0.32743 -4.01396,-0.90154 -3.83232,1.14027 -0.68019,2.25143 0.66646,2.51417 2.61598,2.18541 l 0.26867,-0.003 z m -78.423873,4.44318 c -2.118521,0.27432 0.06378,-1.54528 0.380446,-2.57689 1.000899,-1.6002 1.987066,-3.28809 2.859865,-4.71735 0.73775,-0.98361 0.808704,-2.01118 2.228514,-2.47648 1.738906,-0.18487 2.093063,1.78464 2.835904,2.74432 0.718927,1.17028 0.931944,1.54936 1.543929,2.69286 0.684318,1.01679 1.678408,2.8429 2.409237,4.16392 -1.060788,0.56824 -2.63381,0.12663 -3.078463,-1.03492 -0.272728,-1.67815 -2.569914,-0.6639 -3.787375,-0.93428 -1.472443,-0.005 -3.28695,-0.43012 -3.773395,1.42472 -0.212641,0.83945 -0.825905,0.74423 -1.618662,0.7141 z m 5.6325,-3.88155 c 2.357914,0.54381 2.221981,-0.6406 0.892334,-2.10944 -0.266918,-1.0004 -1.132314,-2.04059 -1.695392,-0.23288 -0.116601,0.79786 -2.252936,2.61286 -0.465384,2.34237 0.422814,-2e-5 0.845628,-3e-5 1.268442,-5e-5 z m 10.023353,3.88155 c -1.982075,0.31194 -0.596181,-2.71423 -0.983499,-3.98291 -0.365631,-1.23016 0.997662,-4.2054 -1.079895,-3.78018 -1.553921,0.38344 -3.648615,-0.18852 -2.337289,-1.67309 3.121532,0 6.243065,0 9.364597,0 0.750792,2.1771 -1.493198,1.66729 -2.895741,1.67309 -1.841205,-0.0606 -0.661646,2.63965 -1.016397,3.82447 -0.393552,1.19777 0.844718,4.04081 -0.838236,3.93862 z m 11.693235,-0.009 c -1.888592,-0.22267 -4.752494,0.79912 -5.620083,-1.5185 -0.521716,-2.06755 -0.09399,-4.31102 0.06352,-6.42668 1.002842,-2.16489 3.689813,-1.41819 5.590021,-1.5486 0.693161,2.21174 -1.274283,1.76288 -2.815757,1.74 -0.924971,0.11665 -1.66239,2.73568 0.142789,2.14149 2.229453,0 4.458907,0 6.688362,0 0.71667,2.28185 -1.39637,1.734 -2.955554,1.74 -1.602518,0 -3.205036,0 -4.807554,0 -0.65331,2.15968 1.429872,2.40495 3.037745,2.14154 1.57512,0 3.150241,0 4.725363,0 0.71667,2.2835 -1.396365,1.73081 -2.955547,1.73324 -0.364436,-8.1e-4 -0.728873,-0.002 -1.093311,-0.002 z"
       style="fill:#0350bc;fill-opacity:1;stroke-width:0.810653"
       id="path1-9" /><path
       d="m 93.293427,139.00512 c -1.01402,-0.51619 -1.60147,-1.79664 -2.44604,-2.6035 -0.62661,-1.28752 -0.80398,0.29398 -0.73121,1.09234 0.50139,1.03857 -0.93092,2.06236 -0.87235,0.662 -0.021,-1.39783 -0.0421,-2.79567 -0.0631,-4.19351 0.72439,-0.60244 1.42274,0.24733 1.75997,0.79322 0.83663,0.97298 1.54215,1.97572 2.36391,2.9236 1.14045,-1.26767 2.10958,-2.76236 3.311,-3.88528 1.2945,-0.28757 0.77783,1.23669 0.84914,1.99451 -0.0153,1.00526 -0.0307,2.01051 -0.046,3.01577 -1.39871,0.43095 -0.8722,-1.14927 -1.02506,-2.01971 0.26444,-1.69342 -0.67815,-0.46308 -1.21642,0.27661 -0.62699,0.64276 -1.02829,1.62694 -1.88383,1.94395 z m 41.630123,-0.10651 c -1.18577,0.2788 -0.4119,-1.47857 -0.63072,-2.14489 0.37821,-1.31317 -1.18189,-0.9102 -1.97491,-0.96089 -0.62687,0.81642 -0.27439,2.03207 -0.50124,3.01155 -1.40559,0.43097 -0.82737,-1.12181 -0.93687,-1.9869 -0.21674,-1.00323 0.47513,-2.0839 1.55703,-1.96057 0.87217,-0.0363 1.74993,-0.0926 2.43031,0.55412 0.59318,-0.83424 1.87716,-0.46869 2.78045,-0.55513 1.24666,0.12281 1.09493,1.45429 0.99371,2.39422 -0.0486,0.91643 0.13881,1.82606 -1.00231,1.78366 0,-0.98795 0,-1.97589 0,-2.96384 -0.68079,-0.42529 -2.06816,-0.52142 -2.40924,0.30172 -0.20801,0.70272 0.41161,2.27094 -0.30621,2.52695 z m 20.26642,0.0959 c -1.05685,0.009 -0.35403,-1.4389 -0.55246,-2.11263 -0.25021,-1.20266 0.82452,-2.18904 1.99858,-2.02606 1.16006,0.13713 2.9367,-0.50651 3.41782,0.96821 0.16525,0.92248 0.0237,1.92675 0.0713,2.88056 -1.02953,0.80922 -1.37642,-0.27613 -1.17448,-1.22495 0.12064,-1.04538 0.0238,-1.8986 -1.24278,-1.71849 -0.84327,0.0558 -2.22467,-0.11864 -1.91004,1.17467 -0.19907,0.60312 0.24726,1.97997 -0.60795,2.05869 z m 6.69966,-0.0519 c -1.10115,0.0966 -0.3369,-1.58447 -0.55979,-2.28095 0.45427,-0.96725 -1.19685,-0.95545 -0.24762,-1.81444 0.35019,-0.39944 0.94737,-1.72857 1.56496,-0.67382 -0.33523,1.1179 1.78819,0.24028 1.22713,1.4075 -0.78986,0.20953 -1.66483,0.0857 -1.34807,1.33294 -0.1214,0.57077 0.25191,2.17336 -0.63661,2.02877 z m 4.78309,-0.0198 c -1.06274,0.22503 -2.54297,-0.32605 -2.26299,-1.62138 0.13415,-0.90019 -0.15965,-2.09589 0.99102,-2.35989 1.5273,0.0954 3.19992,-0.5164 4.56191,0.38362 -0.0905,0.66589 0.53323,2.18485 -0.65802,1.96021 -1.18481,0.0795 -2.53454,-0.19612 -3.62107,0.095 -0.65749,1.04145 1.17726,0.60451 1.7743,0.68775 0.4123,0.63503 -0.17709,0.97997 -0.78515,0.85472 z m 0.53185,-2.327 c 0.85849,0.22049 2.32153,-0.10314 1.29608,-0.93661 -0.89776,0.1129 -1.92923,-0.23191 -2.73266,0.20391 -0.62916,1.28864 0.66727,0.53589 1.43658,0.7327 z m -66.70797,2.26183 c -1.043823,0.18323 -2.397403,-0.41987 -2.067573,-1.66701 0.0195,-0.83392 -0.26957,-2.0296 0.85087,-2.23478 1.211333,-0.23251 2.513943,-0.0328 3.760463,-0.0987 0.9416,0.38922 0.90197,1.36858 0.77261,2.22596 -0.60529,0.4374 -1.78924,0.0537 -2.61239,0.18195 -0.89776,-0.41765 -2.439463,0.51129 -1.08766,0.80308 0.88524,-0.43572 2.29982,0.6302 0.86256,0.79518 -0.15962,-0.002 -0.31926,-0.004 -0.47888,-0.006 z m 0.66923,-2.26183 c 0.86208,0.2479 2.21874,-0.13722 1.21464,-0.93661 -0.89579,0.11225 -1.92482,-0.22995 -2.727113,0.20122 -0.43871,1.22086 0.834153,0.58034 1.512473,0.73539 z m 6.51194,2.22727 c -0.93275,0.0486 -1.87826,0.16408 -2.69731,-0.38204 -0.29583,-0.56906 -0.30732,-1.42247 -0.2677,-2.32699 0.10349,-1.20744 1.67109,-1.37467 2.65275,-1.25824 0.93983,0.006 2.15387,0.30671 1.82525,-1.0514 0.90346,-0.88222 1.40847,0.45097 1.1436,1.31027 0.002,1.07536 0.0512,2.30672 -0.41802,3.25077 -0.59068,0.66367 -1.45108,0.34967 -2.23857,0.45763 z m -0.0746,-0.76402 c 0.92216,0.2702 1.86739,-0.31782 1.49988,-1.34743 0.35977,-1.37466 -1.26471,-0.72587 -2.07425,-0.90812 -1.25348,-0.38648 -1.18456,0.93085 -1.11136,1.77137 0.10822,0.62487 1.21493,0.45615 1.68573,0.48418 z m 4.11668,0.81214 c -0.94118,0.0126 -0.26641,-1.58356 -0.45065,-2.27539 -0.0773,-0.75845 -0.11398,-2.19626 0.95956,-1.57504 0.30106,1.22219 -0.0211,2.58083 -0.0597,3.8504 -0.14975,1e-5 -0.29949,2e-5 -0.44925,3e-5 z m 4.44093,-0.0423 c -1.00271,0.0332 -2.54519,0.2552 -2.88153,-0.96382 0.0728,-1.01337 -0.31762,-2.45427 0.88428,-2.88944 1.05736,-0.24004 2.30003,-0.11709 3.3991,-0.0622 1.45389,0.34719 1.48198,2.29246 0.88933,3.36734 -0.62701,0.73361 -1.42961,0.48761 -2.29118,0.54812 z m -0.20946,-0.76077 c 0.91877,0.22226 1.96368,-0.28096 1.61069,-1.35284 0.211,-1.20194 -1.39123,-0.88726 -2.16569,-0.92255 -1.0332,-0.21649 -1.29968,1.17532 -0.92801,1.84008 0.39098,0.5792 0.86693,0.42708 1.48301,0.43531 z m 7.10976,0.80307 c -1.17757,-0.0212 0.33157,-1.28703 0.49175,-1.85294 0.38947,-0.45818 0.59627,-1.02031 1.13384,-1.67263 0.6896,-0.48337 0.66615,-1.68863 1.70923,-1.58185 0.93845,-0.043 1.10268,0.95004 1.43885,1.38201 0.61096,0.68644 0.9083,1.37814 1.28099,1.9952 0.39553,0.70881 0.91665,1.1488 1.02786,1.69144 -0.80651,0.21451 -1.58004,-0.0131 -1.83549,-0.85543 -0.77492,-0.41136 -1.90607,-0.0616 -2.81965,-0.17668 -1.10741,-0.40892 -1.39965,0.69737 -2.05828,1.07077 -0.12303,4e-5 -0.24606,7e-5 -0.3691,1.1e-4 z m 3.20096,-2.00769 c 1.54593,0.39599 1.18911,-0.6086 0.46867,-1.48394 -0.63174,-1.0367 -1.09663,0.96929 -1.6733,1.33879 0.008,0.33381 0.92688,0.0512 1.20463,0.14515 z m 16.22028,1.97564 c -1.00671,0.0292 -2.63665,0.30596 -2.83446,-1.04938 0.10174,-1.39746 -0.1798,-2.84866 0.21173,-4.20551 1.52617,-0.59976 0.43907,1.68164 1.86848,1.23951 1.13106,0.22038 2.8693,-0.40428 3.40639,0.95138 -0.12394,0.99219 0.40484,2.2629 -0.6442,2.86037 -0.49201,0.3826 -1.3929,0.0907 -2.00794,0.20363 z m -0.13276,-0.77102 c 1.03359,0.27822 1.9117,-0.2815 1.58022,-1.40977 0.3362,-1.26381 -1.26755,-0.77615 -2.00354,-0.86562 -1.17591,-0.38243 -1.41698,0.81914 -1.13055,1.70378 0.10775,0.82285 0.96722,0.51892 1.55387,0.57161 z m 4.38621,0.77598 c -1.22955,0.17867 -0.43465,-1.65748 -0.6502,-2.40672 -0.22391,-0.88669 0.51068,-1.92 1.19546,-1.30226 -0.0238,1.22306 -0.0475,2.4461 -0.0712,3.66915 -0.158,0.0133 -0.31599,0.0266 -0.47399,0.0398 z m 3.57728,0.009 c -0.91499,0.13049 -2.23889,-0.14059 -2.10018,-1.30725 -0.0825,-1.01886 -0.0784,-2.4151 1.1857,-2.62966 1.21907,-0.1593 2.50138,0.005 3.74383,-0.0344 0.82143,0.41579 0.8825,1.81207 0.4631,2.32153 -1.40467,0.10559 -2.91432,-0.0306 -4.25643,0.21913 -0.35068,1.28343 1.73001,0.14377 2.00884,0.91235 0.33983,0.76928 -0.63898,0.47939 -1.04486,0.51829 z m 0.79184,-2.25717 c 0.83528,0.28483 2.29046,-0.21676 1.16185,-0.91375 -0.84273,0.0858 -1.93282,-0.2838 -2.63892,0.18716 -0.81954,0.99871 0.96579,0.68657 1.47707,0.72659 z m -4.36125,-1.87385 c -1.03123,-0.2587 -0.16915,-1.79868 0.4862,-0.998 0.49403,0.36488 -0.15243,0.89759 -0.4862,0.998 z m -34.86884,-0.14441 c -1.00318,0.1741 -0.71821,-1.42621 0.20652,-1.0602 0.51695,0.23762 0.40886,1.12176 -0.20652,1.0602 z"
       style="fill:#53c324;fill-opacity:1;stroke-width:0.810653"
       id="path1-4" /><path
       d="m 52.279262,140.424 c -0.449591,-0.13482 -1.360439,0.32169 -1.403478,-0.33432 -0.310519,-0.68129 0.349145,-0.86389 0.896772,-0.73646 0.577342,-0.0418 1.19247,0.12047 1.725121,-0.16249 0.245576,-0.79576 -0.441104,-0.65928 -1.010001,-0.64058 -1.098081,-0.0511 -2.226424,0.10425 -3.305126,-0.079 -0.527442,-0.0976 -0.988035,-0.28478 -1.183445,-0.82747 0.02593,-0.78766 0.05186,-1.57531 0.07779,-2.36298 0.494833,-0.31376 0.939341,-0.79737 1.579562,-0.62039 1.49499,0.0251 2.989979,0.0502 4.484969,0.0753 0.349676,0.44337 1.011413,0.76166 0.828563,1.41847 -0.03534,1.11063 0.07051,2.26579 -0.05268,3.34872 -0.282828,0.5994 -0.971912,0.87157 -1.593935,0.92128 -0.348039,-1e-5 -0.696078,-2e-5 -1.044117,-3e-5 z m -0.555052,-2.82135 c 0.591155,0.003 1.182311,0.007 1.773466,0.0105 -0.05215,-0.53379 0.102385,-1.17516 -0.0752,-1.64366 -0.609665,-0.62408 -1.526032,-0.27568 -2.304651,-0.36404 -0.537391,0.0742 -1.230505,-0.22752 -1.566617,0.33262 -0.348672,0.32649 -0.26187,1.04247 -0.04939,1.43021 0.601705,0.44001 1.510734,0.13789 2.222392,0.23433 z m 29.024027,2.82135 c -0.470021,-0.10854 -1.383047,0.22593 -1.552036,-0.18364 -0.154877,-0.64687 0.127697,-0.95106 0.79339,-0.76826 0.656138,0.0623 1.303078,0.0735 1.883541,-0.28518 0.245587,-0.7945 -0.444104,-0.65372 -1.01,-0.63675 -1.138363,-0.0439 -2.309053,0.0881 -3.427313,-0.0652 -0.544077,-0.10825 -0.968023,-0.56892 -1.186877,-1.03039 0.02321,-0.90632 0.04643,-1.81265 0.06963,-2.71897 0.423642,0.11232 1.420642,-0.38267 1.405381,0.19454 0,0.80737 0,1.61474 0,2.4221 0.946597,0.47965 2.036815,0.17743 3.056155,0.26107 0.570217,-0.006 1.343197,0.19716 1.101014,-0.6425 0.01969,-0.74507 0.03937,-1.49014 0.05907,-2.2352 0.423641,0.11233 1.420642,-0.38267 1.40538,0.19455 0,1.51901 0,3.03801 0,4.55701 -0.390831,0.0106 -0.30713,0.70177 -0.880809,0.8199 -0.467348,0.26641 -1.179792,0.0439 -1.716523,0.11698 z m -33.173269,-1.36323 c -0.522424,-0.11506 -1.156907,0.0105 -1.617024,-0.19793 -0.389277,-0.47259 -0.667546,-1.3202 -1.424386,-1.11581 -1.318485,0 -2.63697,0 -3.955455,0 -0.341528,0.39584 -0.615875,0.96184 -1.056756,1.20462 -0.484213,-0.0655 -1.232808,0.13183 -1.549245,-0.10038 0.279297,-0.54052 0.87075,-0.95412 1.187759,-1.51257 0.251206,-0.45949 0.788054,-0.76709 0.878172,-1.26524 0.748595,-0.84082 1.346531,-1.80104 2.149615,-2.59417 0.602479,0.0109 1.357332,-0.25007 1.762832,0.3414 0.463242,0.46927 0.758583,1.08641 1.248713,1.53625 0.01424,0.48157 0.601593,0.74875 0.795677,1.19222 0.290728,0.46119 0.758442,0.82033 0.934518,1.29966 0.239049,0.36507 1.072804,0.86297 0.722058,1.22326 z m -4.709069,-2.25063 c 0.380402,-0.13383 1.527775,0.29358 1.331078,-0.26255 0.0083,-0.47117 -0.649432,-0.61388 -0.603941,-1.06375 -0.338556,-0.305 -0.789336,-1.07778 -1.133355,-0.34154 -0.361653,0.31209 -0.511884,0.92594 -0.907803,1.13144 -0.48137,0.54689 0.416379,0.62641 0.909615,0.53634 0.134803,2e-5 0.269604,4e-5 0.404406,6e-5 z m 25.192405,2.1831 c -1.240504,-0.0109 -2.553736,0.16329 -3.739416,-0.17656 -0.616566,-0.3597 -0.31044,-1.10159 -0.381187,-1.68738 -0.06476,-0.66653 0.788607,-0.4058 0.952724,-0.85447 1.600892,0 3.201784,0 4.802675,0 0.140457,-0.68292 -0.531461,-0.74213 -1.034222,-0.68978 -0.517695,-0.0816 -1.235253,0.18175 -1.417571,-0.47854 0.05145,-0.75504 0.863617,-0.36178 1.372311,-0.4266 0.583213,0.0629 1.243659,-0.0439 1.77828,0.12582 0.34235,0.42634 0.949354,0.74829 0.773559,1.37901 -0.05491,0.86649 0.250579,1.9211 -0.548713,2.53342 -0.41327,0.46971 -1.151939,0.15048 -1.71359,0.26043 -0.281616,0.005 -0.563233,0.01 -0.84485,0.0147 z m -0.652385,-0.71079 c 0.623488,0 1.246976,0 1.870463,0 0.294461,-0.26655 0.760787,-1.23464 0.141306,-1.2066 -1.313585,0.023 -2.627169,0.046 -3.940753,0.069 -0.02945,0.37222 -0.270565,1.21314 0.333984,1.13769 0.531667,-2e-5 1.063334,-3e-5 1.595,-4e-5 z m -7.909814,0.65867 c -0.895556,-0.0843 -1.855172,0.1646 -2.703981,-0.16278 -0.391672,-0.36758 -0.84672,-0.70875 -0.672379,-1.31225 -0.0041,-0.91018 -0.008,-1.82035 -0.01207,-2.73052 0.479602,0.0412 1.222282,-0.19133 1.546786,0.0113 -0.01186,0.95738 -0.02371,1.91477 -0.03557,2.87216 0.296199,0.6468 1.050431,0.31824 1.613943,0.39581 0.650176,-0.0439 1.373435,0.0887 1.97813,-0.0649 0.581376,-0.40282 0.21584,-1.19785 0.317493,-1.79937 0.120022,-0.43515 -0.242669,-1.353 0.183636,-1.48187 0.381507,0.13987 1.350582,-0.30783 1.288675,0.27545 0,1.02357 0,2.04714 0,3.07071 -0.406948,-0.0139 -0.387122,0.76698 -0.97838,0.82526 -0.719612,0.25092 -1.554721,0.0367 -2.320437,0.10202 -0.06861,-3.1e-4 -0.137228,-6.2e-4 -0.205842,-8.1e-4 z"
       style="fill:#0350bc;fill-opacity:1;stroke-width:0.810653"
       id="path1-5" /><path
       d="m 22.934686,144.40182 c -3.854466,0 -7.708933,0 -11.5634,0 -0.294284,-0.56614 -0.116773,-1.21994 -0.165575,-1.8317 -0.0038,-3.86405 -0.0075,-7.72809 -0.01128,-11.59214 0.207459,-0.35867 0.585441,-0.0671 0.895885,-0.0332 0.605239,0.18313 1.27173,0.21717 1.791748,0.60772 0.456895,-0.134 0.481453,0.16434 0.700993,0.26769 0.461652,0.006 0.834939,0.37645 1.258764,0.53843 0.268574,0.17449 0.666265,0.2702 0.854652,0.49362 -0.04363,0.30909 0.482227,0.11826 0.633314,0.40896 0.390903,0.27875 0.843361,0.50511 1.195543,0.81679 0.06117,0.36164 0.60993,-0.062 0.675693,0.33121 0.283571,0.15396 0.595266,0.0253 0.726597,0.35273 0.572388,0.24635 1.144778,0.4927 1.717169,0.73904 -0.06108,0.36473 0.490693,0.0992 0.675555,0.37288 0.475525,0.20405 0.906064,0.59619 1.45408,0.49713 0.09045,0.43941 0.57546,0.17114 0.831464,0.31361 0.13428,0.34935 0.59378,0.19641 0.889952,0.29572 0.975727,0.11969 1.934408,0.40211 2.914343,0.45928 0.98806,-0.0248 1.984534,0.033 2.967301,-0.0438 0.905169,-0.179 1.806626,-0.3781 2.718912,-0.51857 -0.154089,-0.50233 0.452928,-0.009 0.40154,0.22405 0,2.43355 0,4.8671 0,7.30065 -3.854417,-5e-5 -7.708834,-1.1e-4 -11.56325,-1.6e-4 z"
       style="fill:#0350bc;fill-opacity:1;stroke-width:0.810653"
       id="path1" /></g></svg>
