<?xml version="1.0" encoding="UTF-8" standalone="no"?>
<!-- Created with Inkscape (http://www.inkscape.org/) -->

<svg
   width="2048"
   height="2732"
   viewBox="0 0 541.86646 722.84166"
   version="1.1"
   id="svg1"
   xml:space="preserve"
   sodipodi:docname="logo.WSE.splash.svg"
   inkscape:version="1.4 (86a8ad7, 2024-10-11)"
   inkscape:export-filename="splash-screen.png"
   inkscape:export-xdpi="96"
   inkscape:export-ydpi="96"
   xmlns:inkscape="http://www.inkscape.org/namespaces/inkscape"
   xmlns:sodipodi="http://sodipodi.sourceforge.net/DTD/sodipodi-0.dtd"
   xmlns="http://www.w3.org/2000/svg"
   xmlns:svg="http://www.w3.org/2000/svg"><sodipodi:namedview
     id="namedview1"
     pagecolor="#1976d2"
     bordercolor="#666666"
     borderopacity="1.0"
     inkscape:showpageshadow="2"
     inkscape:pageopacity="0.0"
     inkscape:pagecheckerboard="0"
     inkscape:deskcolor="#d1d1d1"
     inkscape:document-units="mm"
     showguides="true"
     inkscape:zoom="0.33396819"
     inkscape:cx="1.4971486"
     inkscape:cy="1636.3834"
     inkscape:window-width="2560"
     inkscape:window-height="1009"
     inkscape:window-x="-8"
     inkscape:window-y="-8"
     inkscape:window-maximized="1"
     inkscape:current-layer="layer1"><inkscape:page
       x="0"
       y="0"
       width="541.86646"
       height="722.84167"
       id="page2"
       margin="0"
       bleed="0" /></sodipodi:namedview><defs
     id="defs1" /><g
     inkscape:label="Layer 1"
     inkscape:groupmode="layer"
     id="layer1"
     transform="translate(-6.2117939,-113.19671)"><g
       id="g1"
       transform="translate(57.062407,160.301)"><rect
         style="display:none;fill:#ffffff;stroke-width:5.5452;paint-order:markers fill stroke"
         id="rect1"
         width="290.69165"
         height="99.961769"
         x="74.736893"
         y="264.33566" /><rect
         style="display:inline;fill:#ffffff;fill-opacity:1;stroke-width:5.64959;paint-order:markers fill stroke"
         id="rect5"
         width="69.848427"
         height="79.466377"
         x="87.427116"
         y="275.54556" /><path
         d="m 140.95604,330.24865 c -2.39191,-0.0571 -4.81849,0.19222 -7.13234,-0.55505 -2.27805,-0.59078 -4.6857,-0.81316 -6.8871,-1.61104 -0.91262,-0.80134 -2.22156,-0.17338 -3.10193,-1.03447 -0.892,-0.36359 -1.79993,-0.98942 -1.06403,-1.99432 0.82839,-1.60045 1.32931,-3.4396 2.46697,-4.81315 1.14903,-2.46237 2.4365,-4.91009 3.52323,-7.3702 0,-2.15256 0,-4.30512 0,-6.45767 -1.28681,-0.0483 -0.47299,-1.57338 -1.60919,-2.05828 -0.80723,-0.73718 -1.46207,-1.82483 -2.36109,-2.35089 -1.22566,-0.42235 -2.22808,-1.53813 -3.36854,-2.22507 -0.5174,-0.92262 -2.25632,0.16051 -1.87456,-1.21561 -1.14468,0.33978 -1.60033,-0.41786 -2.4153,-0.78246 -0.86175,-0.31033 -2.12588,-0.0229 -2.72834,-0.71828 -0.49432,-0.86583 -1.83791,-0.18137 -2.70058,-0.37462 -1.69585,-0.0854 0.9433,0.48993 1.47472,0.74401 1.26908,-0.006 1.59563,1.26779 2.68976,1.13144 1.39908,-0.4969 0.58709,1.21723 1.94197,0.76458 1.38877,0.47776 2.66667,1.46366 3.9701,2.19788 1.35553,1.1442 2.89898,2.13508 3.62374,3.82501 1.09793,1.21484 0.48324,2.91109 0.64219,4.38986 -0.31153,1.36222 -1.15725,2.60698 -1.67748,3.92333 -1.81921,1.92023 -3.07403,4.3421 -4.89507,6.28675 -1.09907,1.16839 -2.24907,2.29066 -3.36722,3.44177 -1.84765,-0.94915 -3.69528,-1.89833 -5.54291,-2.84748 -0.31324,-0.88345 -1.61122,-0.55736 -2.23967,-1.40545 -1.03798,-0.8096 -2.42795,-1.3198 -3.23963,-2.32191 -0.94878,-0.24963 -1.12769,-0.65955 -2.00998,-1.13654 -1.87967,-0.67078 -3.847715,-1.28201 -5.616369,-2.14724 -0.791371,-0.76781 -2.151985,-0.59295 -3.166141,-1.02353 -1.692907,-0.52543 -3.513914,-0.70386 -5.080662,-1.57106 0.176514,-11.00579 0.09683,-22.01335 0.136242,-33.02009 6.881304,0 13.76261,0 20.64388,0 0.4923,1.22283 -1.08287,1.29301 -0.76458,2.41887 0.14767,0.91996 -0.30887,2.09021 0.23878,2.84445 0.62569,1.00187 1.35628,1.07522 2.19001,0.23592 0.34894,-0.88774 1.03897,-1.91335 0.29539,-2.80297 -0.28106,-0.8515 -1.16628,-2.12091 -1.08971,-2.69627 4.2976,0 8.59521,0 12.89281,0 0.0757,1.37133 -0.11882,2.83454 0.12539,4.14863 0.49212,1.01921 1.28929,1.42382 2.39667,1.20349 1.00582,-0.59052 0.99714,-1.60125 0.91753,-2.64134 -1.06851,0.14624 -1.13834,-1.41971 -1.69579,-2.13733 -0.72865,-1.1167 1.56052,-0.34632 2.25447,-0.57345 9.08904,0 18.17809,0 27.26713,0 0.86143,1.78725 0.29722,3.83853 0.45802,5.75553 -0.001,14.25962 -0.003,28.51924 -0.003,42.77886 -0.38785,0.92538 -0.48136,2.19554 -1.77594,2.0589 -2.83228,0.52474 -5.61977,1.40394 -8.46685,1.76488 -1.42456,-0.009 -2.84916,-0.0171 -4.27372,-0.0286 z m -25.42259,-15.8467 c 2.12071,-0.12482 4.33796,-0.22621 6.36419,-0.73405 0.61509,-0.70217 1.78091,-1.16473 1.47286,-2.26855 -0.51671,-0.59426 -1.97575,-0.002 -2.7928,0.22993 -0.98162,0.22507 -1.91703,0.76181 -2.94162,0.69729 -0.003,-1.00702 0.24735,-2.1244 -0.83667,-2.6612 -0.49358,-0.78623 -1.8394,-1.26173 -2.19111,-0.13738 0.50001,0.9329 0.99999,1.86579 1.5,2.79869 -2.14725,-0.11196 -4.38643,0.3608 -6.40486,-0.5703 -0.9465,-0.37499 -2.10709,-0.43686 -2.73894,-1.26439 -1.51234,-0.18908 -1.15303,-0.87988 -0.22393,-1.72344 -0.0423,-1.02981 -0.37193,-1.91135 -1.23982,-2.51489 -0.47385,0.71316 -0.54283,1.73032 -0.48065,2.63237 -1.01844,0.0911 -2.25172,-0.36328 -2.89111,0.69083 -0.38311,1.07025 -2.00441,0.39701 -1.69639,1.56872 0.27733,1.04646 1.24876,-0.64096 1.4846,-0.72357 0.64747,0.0983 3.07514,-0.20393 1.39132,0.41901 -0.92345,0.43157 -1.93515,0.77789 -2.14342,1.90007 -0.88611,1.09401 0.06,1.28432 1.03603,1.11501 0.80568,-0.17595 2.18532,-0.53757 2.43187,-1.29355 -0.64156,-1.15914 1.4906,-1.50454 1.15037,-0.32367 1.63247,0.85886 3.27251,1.70387 5.13496,1.90587 1.53684,0.50283 3.02981,0.39413 4.61512,0.25734 z m 14.57164,0.21736 c 1.50385,-0.11082 3.03058,-0.51609 4.45832,-0.97532 0.72813,-0.72796 1.74032,-0.34457 2.53343,-0.80113 1.51979,-0.87932 3.21136,-1.54236 4.23251,-3.04973 1.79219,-1.62687 2.47134,-4.02443 3.65992,-6.06925 0.77298,-0.22221 2.35841,0.65676 2.52715,-0.38468 -0.18565,-1.35695 1.317,-0.93415 1.80327,-1.68039 0.59298,-1.03398 0.99331,-2.11112 0.81131,-3.31878 0.49947,-1.22646 -1.21141,-1.16576 -1.79459,-0.59375 -0.67144,0.72559 -1.97367,1.16151 -1.64606,2.34584 -1.08214,-0.52266 -1.11381,1.62284 -0.0446,1.14688 0.51292,1.18027 -0.68052,1.24828 -1.62379,1.31023 -1.18607,-0.02 -2.06475,0.38633 -2.36357,1.60208 -0.55488,1.30689 -1.30826,2.46717 -2.43578,3.35108 -0.82793,0.68118 -1.54784,1.66612 -2.45931,2.14708 -1.38441,-0.4883 -0.60281,1.18938 -1.92366,0.7646 -0.93541,0.11111 -1.31338,1.22221 -2.56588,0.76458 -1.19613,0.02 -2.45746,-0.21992 -3.45014,0.61135 -0.42906,0.54693 -0.91287,1.77116 -0.5168,2.4646 0.13167,0.44634 0.40795,0.3757 0.79814,0.36471 z m -28.64003,-5.73445 c 1.15037,0.56898 1.22771,-1.40866 0.42626,-1.63356 -0.71899,-0.11796 -2.428809,-1.82052 -2.223048,-0.43043 -0.252489,0.95169 0.407608,2.10754 1.424218,2.06404 0.12425,-2e-5 0.2485,-2e-5 0.37257,-5e-5 z m 50.95979,-0.51589 c 1.02293,0.0823 0.40947,-1.77174 -0.0343,-2.24784 -0.70306,-0.7517 -1.33845,-1.61411 -2.4474,-1.70142 -0.74845,-0.33406 -1.73078,0.85706 -1.72364,1.56598 0.0703,0.93698 1.22431,1.70544 2.09352,1.99272 0.70225,0.15024 1.38215,0.6028 2.11182,0.39056 z m -55.623788,-2.02194 c 0.858464,0.0171 0.899193,-2.2659 0.06683,-2.04962 -1.225429,-0.25535 -0.399412,1.54052 -0.640134,2.26977 0.191081,-0.0734 0.382304,-0.14681 0.573442,-0.22021 z m -4.705669,-0.17566 c 0.940094,0.02 1.296007,-1.04112 2.394821,-0.84655 0.769092,-0.52572 1.529102,-1.65138 0.495067,-2.32439 -0.603689,-1.13746 -1.867649,-0.36948 -2.777068,-0.0948 -0.898193,0.69352 -1.723039,1.47215 -2.56011,2.23665 0.812964,0.33703 1.518135,1.11226 2.44729,1.02886 z m 11.813667,-1.68808 c 1.44465,0.02 2.80566,-0.30205 4.07636,-0.99239 1.3448,-0.37282 2.34261,-1.2781 3.29585,-2.25184 1.31068,-0.2205 0.0286,1.49834 0.0465,2.19694 -0.23649,1.18607 0.88917,1.62016 1.59545,0.56842 1.02301,-0.47194 1.52765,-1.21112 1.27208,-2.34224 0.13967,-1.25676 -2.3668,0.37722 -1.9115,-1.04158 0.33601,-0.55367 1.93246,-2.0188 0.639,-2.05759 -1.21484,-0.30927 -1.69502,1.09651 -2.51013,1.72033 -0.81965,0.63548 -1.30863,2.04282 -2.53863,1.72033 -0.801,0.1211 -0.6162,1.22783 -2.00146,0.76458 0.20079,1.16096 -1.24351,0.67681 -2.11589,0.76461 -1.61813,0 -3.23623,0 -4.854333,0 0.262486,-1.35822 -1.678511,-0.71511 -0.08454,0.0683 1.393653,0.57221 2.909903,1.27224 4.467653,0.92918 0.20794,-0.0171 0.41564,-0.0314 0.62346,-0.0471 z m 16.58492,0.19622 c 1.06334,0.23764 2.41976,-0.10311 1.82444,-1.43133 -0.21193,-1.00028 -1.64578,-0.23136 -2.39157,-0.45877 -0.61919,0.33549 -2.1718,0.9562 -1.1731,1.7686 0.41432,0.27876 1.20826,0.0423 1.74023,0.12167 z m 9.18436,-1.17356 c 1.01113,0.14967 1.90769,-0.042 2.60852,-0.81673 0.65702,-0.74328 -0.56579,-1.77614 -1.40026,-1.91007 -0.91407,-0.36091 -1.829,-1.17096 -2.74085,-0.37282 -1.20646,0.0765 -1.16805,1.5026 -0.72885,2.26518 0.54854,1.00247 1.25242,0.87006 2.26144,0.83444 z m 12.01043,-0.73776 c 1.15337,0.33092 1.17654,-1.21952 0.71466,-1.91149 -1.1378,0 -2.27563,0 -3.41343,0 0.41512,0.96571 1.75305,0.95383 1.96607,1.52919 -0.18308,0.64264 0.35617,0.29556 0.7327,0.3823 z m -46.434805,-0.84427 c 1.144285,0.17337 1.089989,-1.39275 0.876944,-2.16521 -0.04713,-1.47746 -1.492401,-2.12736 -2.380369,-3.10713 -1.47672,-0.44583 -0.834728,1.22703 -0.963544,2.12908 -0.237922,1.10324 0.228498,1.92757 1.07745,2.60038 0.40961,0.54305 0.689004,0.79794 1.389519,0.54288 z m 2.870238,0.0797 c 1.121321,0.25078 1.545754,-1.1003 2.308647,-1.67337 0.0603,-0.72474 0.14995,-2.41367 -0.764578,-1.59839 0.299389,1.25493 -1.513336,0.0143 -1.835003,1.05442 -0.597577,0.36426 -0.855322,2.36763 0.04798,2.21734 h 0.168802 z m 46.584987,-1.233 c 1.18327,-0.002 0.36388,-1.7949 0.28562,-2.51941 -0.78208,-1.27258 -1.24276,-0.71699 -1.59214,0.47148 -0.4182,0.65119 0.38642,2.32681 1.15968,2.07812 z m -36.94906,-0.39127 c 1.07867,-0.0171 2.12148,-0.11396 2.73539,-1.12015 0.38408,-0.66156 0.18366,-2.02023 -0.0897,-2.65828 -1.04424,-0.93332 -1.41931,0.7772 -2.33744,0.81505 -1.17845,-0.20679 -1.67569,1.23083 -2.52889,1.80921 -0.60838,0.97297 0.77474,1.62959 1.61356,1.21161 0.20222,-0.0171 0.40466,-0.0383 0.607,-0.0574 z m 17.51775,-0.0143 c 1.11027,-0.0257 0.56976,-1.67377 0.90791,-2.45835 0.11025,-1.90043 1.23611,-3.51617 1.86822,-5.27031 1.47641,-1.21366 2.23162,-3.11661 3.67235,-4.39637 1.21817,0.33015 0.48992,-1.28607 1.89938,-0.76458 0.51263,-1.18796 -0.88717,-0.65313 -1.47461,-0.17109 -1.14579,0.56359 -1.77696,1.92543 -3.18779,1.94808 -0.1965,-0.54868 -0.49084,-1.00547 -1.11121,-1.483 -0.34037,-0.47687 -0.74104,-2.62369 -1.04297,-2.03662 -0.52417,0.94046 -0.37774,1.8202 0.27905,2.65376 0.0783,0.88674 2.36872,1.11064 1.15771,1.9063 -1.34062,1.46598 -3.03724,2.80637 -3.43794,4.84919 -0.0446,1.07725 -1.15608,1.69065 -1.05517,2.7194 -0.16395,1.0283 0.0871,1.90135 0.92153,2.55594 0.14852,0.0923 0.42069,-0.0611 0.60352,-0.0523 z m -22.30594,-1.03846 c 1.12609,0.12138 1.59788,-1.28779 2.42056,-1.87611 0.78168,-0.61448 0.49489,-1.91235 -0.64805,-1.67431 -1.08536,-0.42606 -2.00626,0.28739 -1.63553,1.4351 -0.10111,0.82913 -1.23251,0.62808 -0.7646,2.02632 -0.0228,0.21593 0.48221,0.0257 0.62762,0.0888 z m 12.6165,-3.44063 c 1.25065,0.1808 0.22735,-1.73032 0.41783,-2.52495 -0.0962,-1.15345 -0.19251,-2.30691 -0.28859,-3.46036 0.89197,-0.0877 2.13439,0.78769 2.7635,-0.0229 0.6948,-0.90171 1.70719,-1.68257 2.21325,-2.65608 0.44449,-1.49411 -1.03729,-0.77992 -1.93805,-0.73182 -1.07717,-0.006 -1.98127,0.30976 -2.52755,1.28533 -0.8493,0.29419 -0.53866,2.7134 -1.41634,1.51816 -0.77404,-0.67398 -0.70063,-1.68219 -1.73786,-2.21745 -0.77927,-0.51446 -1.28987,-1.71987 -2.34978,-1.51236 0.57787,0.85229 1.55323,1.54041 1.94162,2.44569 -0.37065,-0.0229 -2.00126,-0.28677 -1.42522,1.10275 -0.24535,1.09996 1.72124,1.61399 1.42522,0.36371 -0.25877,-1.63472 1.1618,-0.518 1.24031,0.46734 0.63,1.61564 1.26345,3.27787 1.05346,5.04301 0.0474,0.61749 -0.26706,1.09042 0.6282,0.89948 z m 15.52352,-0.12339 c 1.90521,-0.0571 3.79793,-0.20479 5.63885,-0.72802 -0.50609,-1.36055 1.61325,-0.0957 1.52916,-1.03432 0.12253,-0.8628 1.74846,-0.52034 2.13396,-1.48103 0.64494,-0.70874 1.63838,-1.26408 2.07127,-2.06613 0.0323,-1.37609 -0.99679,-0.44408 -1.00344,0.37439 -0.55845,0.90211 -1.54853,0.76221 -2.12131,1.62976 -1.18585,0.8419 -2.79995,0.98371 -4.15731,1.54524 -1.8384,0.79363 -3.87679,0.18423 -5.81425,0.28362 -1.33931,-0.33243 -1.65857,0.46771 -1.43085,1.65626 1.05129,-0.06 2.1026,-0.11967 3.15392,-0.17965 z m -24.56241,-0.64127 c 1.01201,0.009 0.79754,-0.95595 1.86262,-1.07563 0.18251,-0.68751 1.5451,-2.34472 0.3067,-2.36368 -1.4088,-0.42195 -1.12575,0.59237 -2.04873,0.91747 -1.39498,2.8e-4 -0.7405,1.50034 -0.88517,2.41553 -0.0471,0.24677 0.60906,0.0386 0.76458,0.10625 z m -2.63046,-0.66576 c 1.12183,0.009 1.41237,-1.41959 0.80057,-2.19574 -0.26506,-1.4609 -1.69077,-2.01449 -2.7266,-2.8729 -1.4535,-0.41677 -0.62934,1.23577 -0.69283,2.08187 0.0229,1.0414 0.0811,2.06584 1.12903,2.57933 0.4763,0.51286 0.80257,0.74947 1.48983,0.40744 z m 44.20496,-1.64481 c 0.82996,0.0985 0.56702,-1.86708 0.22679,-2.37025 -0.84898,-0.80403 -1.85814,-1.82504 -3.0563,-1.74352 -0.67058,0.58058 -2.28728,0.91399 -1.23482,1.94485 0.23849,1.05046 1.16768,1.3759 2.09423,1.61939 0.65562,0.17823 1.27396,0.593 1.9701,0.54953 z m -7.72234,-2.68515 c 1.11338,-0.006 1.54038,-1.21135 0.38987,-1.72233 -0.63354,-0.14624 -2.57173,-0.58958 -2.51161,0.34355 -0.11939,0.94186 1.37312,1.10938 2.05747,1.37464 z m -33.63369,-1.88525 c 0.98254,-0.0997 2.20211,0.37343 2.79549,-0.66558 0.82927,-0.64493 0.4887,-1.96824 -0.35831,-2.46783 -1.20021,-0.25134 -1.05303,-0.76283 -0.62885,-1.93714 -0.94275,-0.65107 -1.7381,-1.72795 -3.01125,-1.42442 -1.50763,0.05 -0.6384,1.46492 0.23164,1.94825 0.36522,0.628 2.44846,1.64821 0.97916,1.85743 -0.89194,0.3396 -1.40097,1.2986 -2.1381,1.88861 -0.40536,1.43385 1.34005,0.56393 2.13011,0.80068 z m 36.09949,-0.0351 c 0.68143,-0.31647 1.98578,-0.88511 1.42165,-1.86939 -0.14167,-1.06328 -0.31673,-2.11043 -1.21044,-2.81257 -0.39013,-0.84981 -1.79578,-1.66997 -1.95108,-0.2542 -0.36436,1.01801 -0.0811,2.15604 -0.17137,3.22478 0.6483,0.50626 1.17625,1.41794 1.91141,1.71133 z m 4.20523,-0.72933 c 1.21335,0.5212 1.62873,-0.94861 0.62697,-1.48475 -0.49279,-0.88102 -2.14642,-0.29507 -1.77386,0.70797 -0.21221,1.11524 0.32795,0.706 1.14689,0.77678 z m -23.41553,-0.77675 c 0.96969,0.20651 2.15179,-0.50186 2.38934,-1.3651 0.1568,-0.99799 -1.61722,-0.42086 -2.23716,-0.40835 -0.81473,0.24992 -2.01554,1.94308 -0.52786,1.77759 0.12511,-10e-4 0.25049,-0.002 0.37568,-0.006 z m -9.3858,-0.79608 c 0.91213,-0.36711 1.42668,-1.40246 1.83551,-2.20686 0.40893,-1.43987 -1.09033,-0.507 -1.88075,-0.45551 -0.82348,0.15395 -1.76395,0.96766 -1.5599,1.88579 0.43249,0.48693 0.86484,1.57972 1.60514,0.77658 z m 15.44403,0.0171 c 1.04763,-0.66424 1.93323,-1.68291 2.40082,-2.89343 0.20879,-1.03837 0.16823,-2.07809 -1.16888,-1.66814 -0.94472,0.7818 -2.25681,1.37078 -2.975,2.27152 -0.33718,1.22337 0.33572,1.82064 1.45216,2.1429 0.0914,0.0588 0.20307,0.082 0.2909,0.14738 z m 7.15607,-0.76889 c 1.00696,-0.10139 2.02269,-0.77792 2.32596,-1.80741 0.61429,-0.81685 0.69463,-1.76357 0.61169,-2.75002 -1.32166,-0.39219 -1.35545,0.48019 -2.00704,0.77618 -0.8564,0.11196 -1.94356,1.00398 -2.19819,1.78453 -0.11797,0.97848 -0.0874,1.96419 1.12372,1.98176 z"
         style="fill:#53c324;fill-opacity:1;stroke-width:2.3154"
         id="path1-2" /><path
         d="M 122.2126,355.46696 H 86.891286 v -40.10001 -40.09996 l 0.604717,-0.23192 0.604718,-0.23193 h 34.489899 34.48989 l 0.45874,0.45877 0.45876,0.45874 v 39.26859 39.26854 l -0.23192,0.60472 -0.23193,0.60472 z m -0.086,-0.7948 33.51507,0.03 0.60469,-0.23192 0.60472,-0.23193 v -39.1443 -39.14424 H 122.25347 87.655866 v 39.15329 39.1533 l 0.477844,0.19279 0.477873,0.19279 z"
         style="fill:#0350bc;fill-opacity:1;stroke-width:2.3154"
         id="path1-3"
         sodipodi:nodetypes="cccccccccccccccccccccccccccc" /><path
         d="m 176.42662,305.35155 c -3.54868,0.009 -4.60996,-4.59525 -4.99332,-6.68023 -1.91361,-2.9876 -2.89546,-8.04729 -4.96984,-11.64881 -0.29445,-3.3009 -4.36661,-8.02879 -2.67322,-9.56569 4.17816,-0.89125 7.37992,0.54948 6.87848,4.96987 2.00903,1.84243 2.54594,6.87305 4.27144,9.71773 1.0626,4.02292 1.80727,5.37859 3.37441,2.13359 0.6192,-3.40458 3.09708,-7.17098 3.82296,-9.55735 1.57409,-1.51671 1.36858,-6.94537 5.0058,-8.02816 5.74636,-0.40427 5.58724,7.41213 8.07043,11.08245 1.43197,2.28817 2.38691,9.43308 4.50931,8.08686 0.26991,-2.78681 2.58324,-6.24366 3.44065,-9.25225 0.85032,-2.11691 2.451,-5.90416 3.73876,-8.96134 4.6111,-0.79332 8.16248,-0.50707 4.31099,4.53529 -2.15989,5.57528 -4.49251,9.99327 -6.52059,15.77524 -1.39155,1.35074 -1.22974,5.72614 -4.20523,6.64084 -2.74814,2.99677 -6.02627,-2.66833 -6.68711,-5.67484 -1.78579,-4.28763 -3.95954,-9.36281 -5.59972,-13.05755 -2.55189,2.34341 -2.36778,4.31928 -4.041,7.71626 -1.76889,3.42717 -2.06559,5.13976 -3.89214,8.63517 -0.6663,1.48725 -1.93323,3.5894 -3.84106,3.13292 z m 157.57731,-0.45185 c -4.53153,-0.51264 -9.39112,0.86117 -12.78655,-2.80172 -3.61523,-2.52407 -6.89556,-4.15165 -9.94648,-6.72236 -2.6151,0.36491 1.08967,9.36644 -2.59964,9.22349 -6.5148,2.04136 -3.80528,-5.07735 -3.99445,-8.89037 0.22593,-6.07968 0.0948,-12.16895 0.17737,-18.25249 9.2821,0.4907 18.79837,-1.0602 27.90747,0.93844 1.92155,1.62196 3.13195,3.95434 2.67053,7.95273 1.18033,5.48873 -3.70005,10.25181 -9.16727,8.97893 -6.22969,-0.62051 -5.43592,1.53565 -0.52101,3.51483 2.40791,2.62358 7.60216,3.26488 8.93147,6.14006 z m -14.81389,-14.06314 c 3.71839,-0.38002 10.93172,1.89347 10.51203,-4.06608 0.70817,-5.01231 -4.37266,-4.52062 -8.05018,-4.34442 -3.37253,1.08285 -11.41963,-2.50889 -11.0638,2.30228 -1.78071,6.37487 2.31153,6.8768 7.67428,6.10822 h 0.7674 z M 210.9695,304.59831 c -6.05095,0.78352 0.18222,-4.41365 1.08661,-7.36015 2.85879,-4.57051 5.6755,-9.39149 8.1684,-13.47376 2.10718,-2.8094 2.30982,-5.74436 6.3651,-7.07336 4.9667,-0.52802 5.97823,5.09732 8.09997,7.83837 2.05339,3.34257 2.66182,4.4253 4.40977,7.69138 1.95456,2.90417 4.79389,8.11993 6.8813,11.89305 -3.02984,1.62301 -7.52272,0.36168 -8.79274,-2.95595 -0.77898,-4.79316 -7.34024,-1.89625 -10.81757,-2.66851 -4.2056,-0.0143 -9.38823,-1.22851 -10.77761,4.06931 -0.60734,2.39765 -2.35897,2.12568 -4.62323,2.03962 z m 16.08762,-11.08654 c 6.73469,1.55324 6.34645,-1.82969 2.54868,-6.02501 -0.76238,-2.85736 -3.23411,-5.82836 -4.84239,-0.66515 -0.33304,2.27885 -6.43488,7.46288 -1.32925,6.69031 1.20766,-6e-5 2.4153,-9e-5 3.62296,-1.5e-4 z m 28.62883,11.08654 c -5.66122,0.89097 -1.70282,-7.75242 -2.80909,-11.37604 -1.04431,-3.5136 2.84953,-12.01152 -3.08439,-10.79701 -4.43836,1.09519 -10.42124,-0.53845 -6.6758,-4.7787 h 26.74727 c 2.14444,6.21826 -4.26487,4.76214 -8.27085,4.7787 -5.25887,-0.17308 -1.88979,7.53941 -2.90303,10.92351 -1.12409,3.42109 2.41267,11.54142 -2.39419,11.24954 z m 33.39836,-0.0257 c -5.39421,-0.63599 -13.57412,2.28246 -16.05215,-4.33716 -1.49011,-5.90536 -0.26848,-12.31319 0.18137,-18.35597 2.86433,-6.18339 10.53892,-4.05065 15.9663,-4.42313 1.97981,6.3172 -3.63962,5.03516 -8.04239,4.96981 -2.64194,0.33318 -4.74814,7.81369 0.40784,6.11655 h 19.10339 c 2.04696,6.51745 -3.98833,4.95268 -8.44171,4.96981 h -13.7314 c -1.86599,6.16851 4.08402,6.86906 8.67644,6.1167 h 13.49667 c 2.04696,6.52217 -3.98833,4.94356 -8.44169,4.9505 -1.04091,-0.002 -2.0818,-0.006 -3.12272,-0.006 z"
         style="fill:#ffffff;fill-opacity:1;stroke-width:2.3154"
         id="path1-9"
         sodipodi:nodetypes="ccccccccccccccccccccccccccccccccccccccccccccccccccccccccccccccccccccccccccccccc" /><path
         d="m 238.11321,352.40536 c -1.35847,-0.69155 -2.14547,-2.40693 -3.27694,-3.48787 -0.83947,-1.72489 -1.07707,0.39385 -0.97959,1.46338 0.67172,1.39135 -1.24714,2.76293 -1.16868,0.88686 -0.0286,-1.87265 -0.0563,-3.7453 -0.0845,-5.61797 0.97045,-0.80709 1.90604,0.33137 2.3578,1.06268 1.12084,1.30346 2.06602,2.64685 3.16692,3.9167 1.52784,-1.69831 2.82616,-3.70069 4.43567,-5.20505 1.73423,-0.38525 1.04206,1.65674 1.1376,2.67201 -0.02,1.34671 -0.0411,2.69344 -0.0617,4.04017 -1.87384,0.57733 -1.16847,-1.53967 -1.37326,-2.70577 0.35425,-2.26864 -0.90851,-0.62037 -1.62962,0.37056 -0.83998,0.86112 -1.37758,2.17961 -2.52375,2.6043 z m 55.7712,-0.14281 c -1.58854,0.37353 -0.55179,-1.98079 -0.84495,-2.87347 0.50669,-1.75925 -1.58337,-1.21937 -2.64577,-1.28727 -0.83979,1.09373 -0.3676,2.72232 -0.6715,4.03452 -1.88304,0.57736 -1.10841,-1.50285 -1.2551,-2.66182 -0.29037,-1.34402 0.6365,-2.79175 2.08592,-2.62654 1.16845,-0.0488 2.34435,-0.12396 3.25585,0.74235 0.79469,-1.11763 2.51481,-0.62791 3.72493,-0.74373 1.67012,0.16452 1.46684,1.94831 1.33126,3.20753 -0.0651,1.22775 0.18594,2.44632 -1.3428,2.38954 0,-1.32357 0,-2.64705 0,-3.97059 -0.91204,-0.56979 -2.77067,-0.69855 -3.2276,0.40418 -0.27877,0.94141 0.55142,3.04232 -0.41024,3.3853 z m 27.15062,0.12853 c -1.41585,0.0143 -0.4743,-1.92769 -0.74013,-2.83025 -0.3352,-1.61117 1.10459,-2.93265 2.67748,-2.71432 1.55409,0.18365 3.93423,-0.67855 4.57879,1.29712 0.22136,1.23583 0.0317,2.58125 0.0957,3.85903 -1.37924,1.0841 -1.84398,-0.36994 -1.57344,-1.64104 0.16167,-1.40046 0.032,-2.54351 -1.66494,-2.30225 -1.12972,0.0748 -2.98034,-0.15909 -2.55885,1.57372 -0.26677,0.80796 0.33126,2.65254 -0.81445,2.75799 z m 8.97543,-0.0694 c -1.47521,0.12939 -0.45134,-2.12271 -0.74996,-3.05575 0.60858,-1.29583 -1.60339,-1.28001 -0.33172,-2.43081 0.46913,-0.53511 1.26916,-2.31573 2.09655,-0.9027 -0.44911,1.49765 2.39562,0.32189 1.64398,1.88561 -1.05817,0.28048 -2.23036,0.11482 -1.80602,1.78571 -0.16251,0.76466 0.3375,2.91162 -0.85283,2.71794 z m 6.40783,-0.0257 c -1.42377,0.30148 -3.40678,-0.43682 -3.0317,-2.17215 0.17994,-1.20595 -0.21393,-2.80783 1.32768,-3.16151 2.04608,0.12767 4.28686,-0.6918 6.11153,0.51395 -0.12139,0.89205 0.71434,2.92699 -0.88157,2.62606 -1.58726,0.10653 -3.3955,-0.26306 -4.85108,0.1271 -0.88086,1.3952 1.57714,0.80985 2.377,0.92136 0.55233,0.85072 -0.23736,1.31288 -1.05186,1.14505 z m 0.71251,-3.11747 c 1.15011,0.29539 3.1101,-0.13824 1.73635,-1.25473 -1.20275,0.15109 -2.58459,-0.3107 -3.6609,0.27305 -0.84289,1.72638 0.89391,0.71791 1.92455,0.98157 z m -89.36762,3.03016 c -1.3984,0.24563 -3.21178,-0.5625 -2.7699,-2.23327 0.0257,-1.11718 -0.36113,-2.71906 1.13989,-2.99389 1.62282,-0.31152 3.36791,-0.0437 5.03785,-0.13224 1.26145,0.52143 1.20835,1.83349 1.03506,2.98209 -0.81091,0.58598 -2.39702,0.072 -3.4998,0.24392 -1.2027,-0.55953 -3.26811,0.68498 -1.45713,1.07585 1.18596,-0.5837 3.08106,0.8443 1.15557,1.06528 -0.21393,-0.003 -0.42772,-0.006 -0.64154,-0.009 z m 0.89654,-3.03016 c 1.15494,0.33209 2.97243,-0.18365 1.62724,-1.25473 -1.20006,0.15024 -2.57864,-0.30807 -3.65347,0.26962 -0.58772,1.63559 1.1175,0.77747 2.02623,0.98517 z m 8.72396,2.98386 c -1.24959,0.0654 -2.51626,0.21964 -3.61354,-0.51183 -0.39632,-0.76233 -0.41172,-1.90564 -0.35862,-3.11742 0.13852,-1.61761 2.23873,-1.84163 3.55384,-1.68562 1.25908,0.009 2.88549,0.41084 2.44524,-1.4086 1.21037,-1.18187 1.88692,0.60418 1.53207,1.75537 0.003,1.44065 0.0685,3.09028 -0.56002,4.35501 -0.79131,0.88909 -1.944,0.46842 -2.99897,0.61309 z m -0.1,-1.02355 c 1.23539,0.36197 2.5017,-0.42578 2.00934,-1.80513 0.48199,-1.8416 -1.6943,-0.97243 -2.77884,-1.2166 -1.67925,-0.51778 -1.58691,1.24705 -1.48886,2.37305 0.14481,0.83716 1.62762,0.61112 2.25836,0.64868 z m 5.51503,1.08802 c -1.26088,0.0171 -0.35688,-2.12149 -0.60372,-3.04833 -0.10368,-1.0161 -0.15281,-2.9423 1.2855,-2.11005 0.40332,1.63735 -0.0286,3.4575 -0.08,5.15832 -0.2005,3e-5 -0.40121,3e-5 -0.60183,6e-5 z m 5.94946,-0.0566 c -1.34333,0.0446 -3.40974,0.34189 -3.86034,-1.29118 0.0974,-1.35761 -0.42552,-3.28796 1.18464,-3.87094 1.41654,-0.32158 3.08132,-0.1568 4.55372,-0.0834 1.94777,0.46508 1.98539,3.07114 1.19144,4.51113 -0.84001,0.98283 -1.91523,0.65328 -3.06946,0.73434 z m -0.28076,-1.01918 c 1.23086,0.29776 2.63069,-0.37636 2.15781,-1.81238 0.28277,-1.61022 -1.86382,-1.18867 -2.90134,-1.23591 -1.38418,-0.28991 -1.74118,1.57457 -1.24325,2.46511 0.5238,0.77595 1.16142,0.57215 1.98678,0.58318 z m 9.52481,1.07588 c -1.57757,-0.0291 0.4442,-1.72424 0.65879,-2.48237 0.52177,-0.61382 0.79883,-1.36687 1.51899,-2.24081 0.92384,-0.64753 0.89243,-2.26221 2.28983,-2.11917 1.25725,-0.0577 1.47726,1.27276 1.9276,1.85146 0.81851,0.91964 1.21683,1.84628 1.71613,2.67296 0.52988,0.94957 1.22803,1.53901 1.37701,2.26597 -1.08048,0.28731 -2.11674,-0.0171 -2.45897,-1.14597 -1.03815,-0.55113 -2.55355,-0.0828 -3.77743,-0.23678 -1.48361,-0.54779 -1.87511,0.93427 -2.75745,1.43451 -0.1648,6e-5 -0.32966,1.1e-4 -0.4945,1.7e-4 z m 4.2883,-2.6897 c 2.07104,0.53052 1.59302,-0.81533 0.62785,-1.98798 -0.84633,-1.38886 -1.46912,1.29852 -2.24167,1.79353 0.0114,0.44723 1.24171,0.0688 1.61382,0.19451 z m 21.73004,2.64677 c -1.34867,0.0388 -3.53228,0.40987 -3.79728,-1.40586 0.13624,-1.87216 -0.24078,-3.8163 0.28362,-5.63405 2.0446,-0.80348 0.58821,2.25287 2.50316,1.66055 1.51528,0.29524 3.84398,-0.54163 4.56352,1.27452 -0.16623,1.32929 0.54233,3.03159 -0.86304,3.83201 -0.65915,0.51258 -1.86605,0.12168 -2.69001,0.27277 z m -0.17794,-1.03295 c 1.38469,0.37274 2.56108,-0.37711 2.117,-1.88864 0.45039,-1.69311 -1.69814,-1.03981 -2.68413,-1.15965 -1.57535,-0.51235 -1.8983,1.09738 -1.51457,2.28254 0.14424,1.10233 1.29578,0.69514 2.0817,0.76575 z m 5.87614,1.03958 c -1.6472,0.23935 -0.58229,-2.22048 -0.87108,-3.22424 -0.29996,-1.1879 0.68417,-2.57219 1.60156,-1.74463 -0.032,1.63852 -0.0637,3.27702 -0.0954,4.91554 -0.21164,0.0171 -0.42334,0.0354 -0.63499,0.0531 z m 4.79242,0.0143 c -1.2258,0.1748 -2.9994,-0.18823 -2.81357,-1.75129 -0.11054,-1.36493 -0.10511,-3.23549 1.58845,-3.52291 1.63318,-0.21336 3.35105,0.009 5.01554,-0.046 1.10047,0.55702 1.18227,2.42761 0.62043,3.11013 -1.88182,0.14167 -3.90427,-0.0408 -5.70229,0.29359 -0.46979,1.71936 2.31768,0.1928 2.69121,1.22224 0.45528,1.0306 -0.85601,0.64224 -1.39977,0.69434 z m 1.06082,-3.02388 c 1.11901,0.38157 3.06849,-0.29039 1.5565,-1.22411 -1.12898,0.11482 -2.58936,-0.38022 -3.53531,0.25077 -1.09793,1.33797 1.29387,0.91976 1.97881,0.9734 z m -5.8427,-2.51035 c -1.38152,-0.3466 -0.22649,-2.40967 0.65136,-1.33702 0.66185,0.48881 -0.20422,1.20246 -0.65136,1.33702 z m -46.71323,-0.19365 c -1.34393,0.23335 -0.96217,-1.91067 0.27677,-1.42034 0.69254,0.31832 0.54773,1.5028 -0.27677,1.42034 z"
         style="fill:#53c324;fill-opacity:1;stroke-width:1.08602"
         id="path1-4" /><path
         d="m 183.16717,354.30622 c -0.60232,-0.18051 -1.82255,0.43095 -1.88022,-0.44791 -0.41601,-0.9127 0.46776,-1.15733 1.20141,-0.98659 0.77343,-0.056 1.59751,0.16138 2.31111,-0.21764 0.32897,-1.06609 -0.59096,-0.88323 -1.35308,-0.85818 -1.47109,-0.0686 -2.98271,0.13967 -4.42784,-0.10597 -0.7066,-0.13053 -1.32366,-0.3815 -1.58543,-1.10852 0.0348,-1.05523 0.0694,-2.11046 0.10425,-3.16566 0.6629,-0.42035 1.25842,-1.06822 2.11611,-0.83113 2.00281,0.0337 4.00561,0.0674 6.00845,0.10111 0.46845,0.59398 1.35496,1.02041 1.11001,1.90033 -0.0474,1.48788 0.0945,3.03541 -0.0705,4.48622 -0.37891,0.803 -1.30206,1.16762 -2.13539,1.23423 -0.46625,0 -0.93253,-3e-5 -1.39877,-3e-5 z m -0.74359,-3.77974 c 0.79194,0.006 1.58391,0.0114 2.37589,0.0143 -0.07,-0.71513 0.13709,-1.57434 -0.10083,-2.20199 -0.81676,-0.83607 -2.04439,-0.36931 -3.08751,-0.4877 -0.71994,0.0994 -1.64849,-0.30482 -2.09877,0.44562 -0.46711,0.43738 -0.35083,1.39658 -0.0663,1.91601 0.80611,0.58949 2.02392,0.1848 2.97732,0.31395 z m 38.88304,3.77974 c -0.62968,-0.14538 -1.85286,0.30265 -2.07924,-0.2462 -0.20736,-0.8666 0.17109,-1.27413 1.06288,-1.02921 0.879,0.0834 1.74572,0.0988 2.52335,-0.38207 0.32901,-1.06437 -0.59495,-0.87578 -1.35307,-0.85304 -1.52505,-0.0588 -3.09342,0.11796 -4.59154,-0.0874 -0.72887,-0.1451 -1.29683,-0.76215 -1.59002,-1.38041 0.0311,-1.21415 0.0623,-2.42832 0.0934,-3.64253 0.56753,0.15024 1.90321,-0.51266 1.88276,0.26077 0,1.08159 0,2.16321 0,3.24483 1.26813,0.64257 2.72868,0.23764 4.09426,0.34975 0.76393,-0.009 1.79948,0.2642 1.47504,-0.86075 0.0257,-0.99816 0.0528,-1.99632 0.0791,-2.99448 0.56753,0.15023 1.90321,-0.51267 1.88276,0.26077 0,2.03499 0,4.06996 0,6.10495 -0.52361,0.0143 -0.41147,0.94013 -1.18002,1.09842 -0.62611,0.35688 -1.58054,0.0588 -2.2996,0.1568 z M 176.8649,352.4799 c -0.69988,-0.15423 -1.54989,0.0143 -2.16629,-0.26534 -0.52152,-0.63311 -0.89431,-1.76862 -1.90824,-1.49483 -1.76634,0 -3.53271,0 -5.29905,0 -0.45756,0.53032 -0.82507,1.28856 -1.41574,1.61382 -0.64867,-0.0877 -1.65157,0.17652 -2.07549,-0.13453 0.37416,-0.7241 1.16653,-1.27821 1.59122,-2.02636 0.33655,-0.61558 1.05575,-1.02764 1.17648,-1.695 1.00287,-1.12643 1.80393,-2.41284 2.8798,-3.47535 0.80714,0.0143 1.81841,-0.33504 2.36164,0.45734 0.62059,0.62868 1.01627,1.45546 1.67288,2.05807 0.02,0.64519 0.80594,1.0031 1.06597,1.59722 0.38947,0.61786 1.01607,1.09896 1.25196,1.74112 0.32024,0.4891 1.43722,1.15611 0.96732,1.63881 z m -6.30866,-3.01513 c 0.50961,-0.17937 2.04674,0.3933 1.78322,-0.35174 0.0114,-0.63122 -0.87003,-0.82239 -0.80908,-1.42508 -0.45356,-0.40861 -1.05748,-1.44387 -1.51833,-0.45757 -0.48453,0.4181 -0.68578,1.24046 -1.21618,1.5158 -0.64487,0.73264 0.55782,0.83918 1.2186,0.71851 0.18052,2e-5 0.36117,5e-5 0.54177,8e-5 z m 33.74985,2.92468 c -1.66186,-0.0143 -3.4212,0.21878 -5.00963,-0.2365 -0.82598,-0.48184 -0.41589,-1.47574 -0.51066,-2.26052 -0.0868,-0.89296 1.05649,-0.54365 1.27636,-1.14474 2.14467,0 4.28937,0 6.43405,0 0.18822,-0.91487 -0.712,-0.99419 -1.38552,-0.92407 -0.69355,-0.10939 -1.65486,0.24363 -1.8991,-0.64111 0.0688,-1.01152 1.15697,-0.48467 1.83846,-0.57152 0.78132,0.0842 1.66611,-0.0588 2.38234,0.16851 0.45862,0.57119 1.27184,1.0025 1.03632,1.84743 -0.0737,1.16085 0.33569,2.57368 -0.7351,3.39401 -0.55365,0.62925 -1.54325,0.20165 -2.29569,0.34889 -0.37727,0.009 -0.75455,0.0143 -1.13183,0.0171 z m -0.87397,-0.95223 c 0.83527,0 1.67054,0 2.50581,0 0.3945,-0.35712 1.01921,-1.65404 0.18937,-1.61651 -1.75977,0.0308 -3.51957,0.062 -5.27934,0.0923 -0.0394,0.49866 -0.36248,1.62521 0.44743,1.52413 0.71225,-3e-5 1.42453,-3e-5 2.13679,-3e-5 z m -10.59667,0.88239 c -1.19975,-0.11282 -2.48533,0.22022 -3.62248,-0.21793 -0.52471,-0.49243 -1.13434,-0.94951 -0.90076,-1.75799 -0.006,-1.21938 -0.0114,-2.4387 -0.0171,-3.65804 0.64251,0.0551 1.63747,-0.25621 2.07221,0.0171 -0.0143,1.28262 -0.0317,2.5652 -0.0477,3.84781 0.39682,0.86649 1.40723,0.42632 2.16216,0.53026 0.87103,-0.0588 1.83997,0.1191 2.65008,-0.0868 0.77886,-0.53966 0.28916,-1.60477 0.42535,-2.41059 0.1608,-0.58298 -0.32513,-1.81261 0.24592,-1.98527 0.51109,0.18708 1.80935,-0.41235 1.72641,0.36902 0,1.37127 0,2.74254 0,4.11378 -0.5452,-0.0171 -0.51864,1.02752 -1.31072,1.10558 -0.96406,0.33618 -2.08284,0.0491 -3.10865,0.13682 -0.092,-3.8e-4 -0.18394,-8e-4 -0.27591,-10e-4 z"
         style="fill:#ffffff;fill-opacity:1;stroke-width:1.08602"
         id="path1-5" /><path
         d="m 122.50104,353.46413 c -11.00919,0 -22.01838,0 -33.027537,0 -0.840555,-1.61702 -0.333549,-3.48441 -0.472932,-5.23173 -0.01142,-11.03655 -0.01999,-22.07308 -0.03227,-33.10963 0.59255,-1.02444 1.672142,-0.19165 2.558853,-0.0948 1.728666,0.52306 3.632333,0.62029 5.117593,1.73578 1.305004,-0.38273 1.375152,0.46939 2.002205,0.76458 1.318571,0.0171 2.384768,1.07522 3.595278,1.53787 0.7671,0.49838 1.90301,0.77175 2.44107,1.40989 -0.12453,0.88283 1.37735,0.33777 1.8089,1.16808 1.11649,0.79616 2.40881,1.4427 3.41471,2.33292 0.1748,1.03292 1.74209,-0.17708 1.92992,0.94601 0.80993,0.43974 1.70022,0.0723 2.07532,1.00747 1.63487,0.70363 3.26974,1.40726 4.90461,2.11086 -0.17452,1.04174 1.40151,0.28333 1.92951,1.06502 1.35822,0.58281 2.58793,1.70285 4.15317,1.41991 0.25848,1.25505 1.64363,0.48881 2.37485,0.89574 0.38353,0.99782 1.69596,0.56099 2.54189,0.84464 2.78689,0.34186 5.52509,1.14851 8.32398,1.3118 2.82211,-0.0708 5.66827,0.0943 8.47524,-0.1251 2.58537,-0.51126 5.16013,-1.07994 7.76582,-1.48115 -0.44012,-1.43476 1.29363,-0.0257 1.14688,0.63994 0,6.95074 0,13.90147 0,20.85221 -11.00905,-1.4e-4 -22.01809,-3.1e-4 -33.0271,-4.5e-4 z"
         style="fill:#0350bc;fill-opacity:1;stroke-width:2.3154"
         id="path1" /><path
         d="m 271.42691,337.3955 c -5.51612,2.40744 -6.62047,-1.93629 -5.42969,-6.7383 0.30999,-6.77651 0.50101,-13.55759 0.74659,-20.33655 9.19395,0.41649 18.61771,-1.27147 27.64418,0.67843 4.76742,3.47562 3.41852,10.56991 2.04311,15.48991 -4.30509,5.57904 -12.26442,2.25344 -18.30542,3.13769 -6.28296,-1.76959 -7.09949,1.92726 -6.22189,7.31819 z m 9.59825,-12.74443 c 3.57187,-0.53957 10.84336,2.08061 10.37663,-3.8135 1.66232,-5.32838 -4.00176,-6.54739 -8.03767,-5.73911 -3.60157,1.04264 -11.51343,-2.6992 -10.87212,3.05307 -2.32185,5.92184 1.39534,7.63554 6.78365,6.50048 z m 36.96518,13.32961 c -5.4169,-0.27106 -11.78205,0.79971 -16.26662,-2.89497 -1.69297,-4.68574 -0.40996,-11.49389 -0.77115,-17.13043 -0.79354,-4.91455 0.48084,-9.70033 6.31451,-7.63452 -0.21964,6.77011 -0.45759,13.53965 -0.68483,20.30954 4.21751,3.45625 10.52309,0.88063 15.66299,1.67237 5.34586,-2.9866 6.3647,6.94917 1.10807,5.71748 -1.78765,-0.0143 -3.57529,-0.0257 -5.36297,-0.0394 z m 19.55093,0.042 c -5.77301,0.79329 -1.27985,-4.652 -2.55794,-8.29567 1.58037,-5.45582 -3.26129,-8.23609 -6.53848,-11.66815 -1.22943,-2.35123 -11.11115,-8.19205 -4.79424,-7.92864 6.45545,-1.44442 9.7161,5.45696 14.10122,8.95014 2.53166,1.14251 5.33035,-3.8999 7.69712,-5.21973 2.7386,-3.11179 5.7086,-4.42199 10.01643,-3.72893 3.84315,0.88523 -4.76634,4.61961 -5.69404,6.93934 -3.46795,3.69957 -9.91677,6.30921 -8.90164,12.37095 -1.05912,2.65037 1.55826,9.96159 -3.32843,8.58069 z m -159.92295,-0.55299 c -3.83744,-0.80468 -10.53049,1.80816 -12.65226,-1.18958 -0.91113,-6.48829 7.15047,-2.91088 11.15223,-3.88785 3.71276,-0.95832 10.39065,1.9885 12.06408,-2.12211 1.35064,-5.76361 -5.66022,-3.81567 -9.07254,-4.0839 -4.48188,-0.24135 -12.84725,1.61742 -13.32315,-4.78173 -1.39252,-5.26615 1.389,-12.66328 7.91585,-11.27462 4.53201,-1.18333 10.34512,0.68646 6.83115,4.96981 -3.83084,0.0471 -10.99182,-1.3982 -9.53138,4.77871 2.80571,3.06109 8.39889,0.50672 12.31148,1.33802 4.48662,-0.74824 10.8766,0.78886 10.29522,6.48692 0.27305,3.48361 -0.35269,8.4593 -3.97665,9.22968 -3.36065,1.0153 -8.13378,0.22078 -12.01403,0.53665 z m 36.37993,-0.009 c -5.5695,-0.34428 -14.20452,2.05539 -16.65241,-4.76073 0.0677,-7.45995 0.1351,-14.91986 0.20279,-22.37981 6.66855,-2.22005 6.37453,2.74856 5.87909,7.92511 0.85849,4.59836 -2.67573,10.73942 1.76671,14.03149 4.65332,-0.36337 9.94631,0.75927 14.19884,-0.53514 3.85292,-3.27656 1.2318,-9.15351 2.03942,-13.65321 -0.68363,-4.71433 -0.24678,-9.83041 5.84413,-7.96156 0.699,5.9477 -0.26249,13.50961 -0.19422,20.07045 -0.61789,3.52111 -1.61351,5.52737 -5.29571,7.08035 -2.55405,0.20479 -5.20242,0.098 -7.78872,0.18308 z m 20.4417,0.10111 c -5.90334,1.33643 -2.07339,-6.78196 -2.82868,-10.04793 0.21164,-5.63596 0.0788,-11.28096 0.15223,-16.92055 8.4039,-0.89702 17.28952,-0.4921 25.76562,-0.20422 6.91804,1.30509 5.16912,9.51022 4.81192,14.66737 -2.94952,7.15028 -11.47938,3.82356 -17.76371,4.56757 -5.44031,-1.11935 -8.48678,0.36374 -7.51706,6.21281 0.47084,2.45803 -0.99103,1.43691 -2.62052,1.72501 z m 11.98193,-12.98109 c 4.00264,-0.46339 11.62907,1.92429 10.16909,-4.71609 1.21386,-5.52715 -3.94872,-4.86548 -8.02902,-4.76565 -3.56507,0.93521 -11.46473,-2.57499 -10.94592,3.25685 -1.94277,6.43057 1.90355,7.18101 7.4718,6.242 l 0.76737,-0.009 z"
         style="fill:#ffffff;fill-opacity:1;stroke-width:2.3154"
         id="path2"
         sodipodi:nodetypes="ccccccccccccccsccccccssccccccccccccccccccccccccccccccccccccccccccccccccccc" /></g></g></svg>
