<?xml version="1.0" encoding="UTF-8" standalone="no"?>
<!-- Created with Inkscape (http://www.inkscape.org/) -->

<svg
   width="33.759998mm"
   height="34.998001mm"
   viewBox="0 0 33.759986 34.998001"
   version="1.1"
   id="svg1"
   xml:space="preserve"
   sodipodi:docname="logo.WSE.square.svg"
   inkscape:version="1.4 (86a8ad7, 2024-10-11)"
   inkscape:export-filename="X:\garantias\public\assets\images\logo.WSE.square.svg"
   inkscape:export-xdpi="96"
   inkscape:export-ydpi="96"
   xmlns:inkscape="http://www.inkscape.org/namespaces/inkscape"
   xmlns:sodipodi="http://sodipodi.sourceforge.net/DTD/sodipodi-0.dtd"
   xmlns="http://www.w3.org/2000/svg"
   xmlns:svg="http://www.w3.org/2000/svg"><sodipodi:namedview
     id="namedview1"
     pagecolor="#ffffff"
     bordercolor="#666666"
     borderopacity="1.0"
     inkscape:showpageshadow="2"
     inkscape:pageopacity="0.0"
     inkscape:pagecheckerboard="0"
     inkscape:deskcolor="#d1d1d1"
     inkscape:document-units="mm"
     showguides="true"
     inkscape:zoom="3.7784188"
     inkscape:cx="102.02681"
     inkscape:cy="72.120115"
     inkscape:window-width="2560"
     inkscape:window-height="1009"
     inkscape:window-x="-8"
     inkscape:window-y="-8"
     inkscape:window-maximized="1"
     inkscape:current-layer="layer1"><inkscape:page
       x="0"
       y="0"
       width="33.759987"
       height="34.998001"
       id="page2"
       margin="0"
       bleed="0" /></sodipodi:namedview><defs
     id="defs1" /><g
     inkscape:label="Layer 1"
     inkscape:groupmode="layer"
     id="layer1"
     transform="translate(-6.2117939,-113.19671)"><rect
       style="display:inline;fill:#ffffff;fill-opacity:1;stroke-width:2.11775;paint-order:markers fill stroke"
       id="rect5"
       width="27.894188"
       height="27.960249"
       x="10.471135"
       y="116.98267" /><path
       d="m 31.848072,136.22998 c -0.95521,-0.0201 -1.924279,0.0676 -2.848314,-0.1953 -0.909753,-0.20786 -1.871255,-0.28611 -2.750393,-0.56685 -0.364451,-0.28195 -0.887188,-0.061 -1.238767,-0.36397 -0.356222,-0.12793 -0.718809,-0.34813 -0.424922,-0.7017 0.330817,-0.56312 0.530873,-1.21023 0.985195,-1.69351 0.45887,-0.86639 0.973017,-1.72762 1.407017,-2.59321 0,-0.75737 0,-1.51475 0,-2.27213 -0.513895,-0.017 -0.18889,-0.55359 -0.642636,-0.7242 -0.32237,-0.25938 -0.583883,-0.64207 -0.942912,-0.82716 -0.489476,-0.14861 -0.889785,-0.54119 -1.345241,-0.7829 -0.206626,-0.32462 -0.901069,0.0565 -0.748608,-0.42771 -0.45713,0.11955 -0.639101,-0.14702 -0.964559,-0.27531 -0.344136,-0.10919 -0.848972,-0.008 -1.089566,-0.25272 -0.197408,-0.30465 -0.733985,-0.0638 -1.078491,-0.13181 -0.677242,-0.03 0.376714,0.17238 0.588934,0.26178 0.506812,-0.002 0.637221,0.44607 1.074166,0.39809 0.558725,-0.17483 0.234463,0.42829 0.775526,0.26902 0.554622,0.1681 1.064953,0.51499 1.585474,0.77333 0.541344,0.40258 1.157721,0.75122 1.447156,1.34583 0.438457,0.42744 0.19299,1.02426 0.256462,1.54457 -0.124409,0.47929 -0.462157,0.91726 -0.669908,1.38042 -0.726507,0.67563 -1.22762,1.52777 -1.954866,2.212 -0.438917,0.41109 -0.898168,0.80596 -1.344707,1.21098 -0.737861,-0.33396 -1.475717,-0.66792 -2.213576,-1.00188 -0.125099,-0.31085 -0.643443,-0.19611 -0.894417,-0.49451 -0.414524,-0.28486 -0.969619,-0.46437 -1.293758,-0.81696 -0.378894,-0.0878 -0.450343,-0.23207 -0.802692,-0.3999 -0.750653,-0.23601 -1.536599,-0.45107 -2.242919,-0.75551 -0.316032,-0.27015 -0.859401,-0.20863 -1.26441,-0.36012 -0.676066,-0.18487 -1.403285,-0.24765 -2.02897,-0.55278 0.07052,-3.87239 0.03868,-7.7454 0.05437,-11.61812 2.748066,0 5.496133,0 8.244201,0 0.1966,0.43025 -0.432452,0.45494 -0.305342,0.85108 0.05899,0.32369 -0.123344,0.73544 0.09541,1.00082 0.249873,0.35251 0.541633,0.37831 0.874579,0.083 0.13936,-0.31235 0.414925,-0.67321 0.117969,-0.98623 -0.112193,-0.2996 -0.465759,-0.74624 -0.435178,-0.94868 1.716261,0 3.432522,0 5.148783,0 0.03023,0.4825 -0.04747,0.99733 0.05003,1.45969 0.19653,0.35861 0.514889,0.50097 0.957128,0.42345 0.401668,-0.20777 0.398198,-0.5634 0.366415,-0.92935 -0.426709,0.0515 -0.4546,-0.49953 -0.677222,-0.75202 -0.290985,-0.39291 0.6232,-0.12186 0.90033,-0.20177 3.62974,0 7.259479,0 10.889218,0 0.344006,0.62884 0.118683,1.35058 0.182905,2.02508 -5.57e-4,5.01725 -0.0011,10.0345 -0.0017,15.05175 -0.154883,0.32559 -0.192227,0.7725 -0.709225,0.72442 -1.131082,0.18463 -2.244272,0.49398 -3.38126,0.62097 -0.568909,-0.003 -1.13782,-0.006 -1.706728,-0.0101 z M 21.69549,130.65431 c 0.846912,-0.0439 1.732374,-0.0796 2.541551,-0.25827 0.245635,-0.24706 0.711208,-0.40981 0.588197,-0.79819 -0.206357,-0.20909 -0.789023,-8.2e-4 -1.115315,0.0809 -0.39202,0.0792 -0.765573,0.26804 -1.174749,0.24534 -0.0012,-0.35432 0.09876,-0.74747 -0.334125,-0.93634 -0.197112,-0.27664 -0.734574,-0.44394 -0.875027,-0.0483 0.199675,0.32824 0.399354,0.65648 0.599034,0.98472 -0.85751,-0.0394 -1.751744,0.12695 -2.55781,-0.20066 -0.377981,-0.13194 -0.841469,-0.15371 -1.093802,-0.44488 -0.603957,-0.0665 -0.460457,-0.30958 -0.08942,-0.60639 -0.01693,-0.36234 -0.14853,-0.67251 -0.495125,-0.88487 -0.189235,0.25093 -0.216776,0.60882 -0.191945,0.92621 -0.406721,0.032 -0.899233,-0.12783 -1.154582,0.24306 -0.152992,0.37657 -0.80046,0.13969 -0.677459,0.55196 0.110802,0.3682 0.498699,-0.22552 0.59289,-0.25459 0.258564,0.0346 1.228058,-0.0718 0.555617,0.14743 -0.36877,0.15185 -0.772794,0.2737 -0.855979,0.66854 -0.353867,0.38493 0.02397,0.45189 0.413745,0.39231 0.321758,-0.0619 0.872711,-0.18914 0.971179,-0.45513 -0.256219,-0.40784 0.595279,-0.52937 0.459395,-0.11388 0.651938,0.30219 1.306896,0.5995 2.050671,0.67058 0.613738,0.17692 1.20996,0.13867 1.843061,0.0905 z m 5.819219,0.0765 c 0.600574,-0.039 1.210272,-0.18159 1.780453,-0.34316 0.290783,-0.25614 0.694995,-0.12124 1.011724,-0.28188 0.606943,-0.30939 1.282472,-0.54268 1.690269,-1.07305 0.715724,-0.57241 0.986944,-1.416 1.461604,-2.13547 0.308691,-0.0782 0.941835,0.23108 1.009229,-0.13535 -0.07413,-0.47744 0.525942,-0.32868 0.720138,-0.59124 0.236807,-0.36381 0.396679,-0.7428 0.323993,-1.16771 0.199464,-0.43153 -0.483779,-0.41018 -0.716673,-0.20892 -0.268132,0.2553 -0.78819,0.40868 -0.657357,0.82539 -0.432156,-0.1839 -0.444809,0.57099 -0.01775,0.40353 0.204836,0.41528 -0.271773,0.43921 -0.64846,0.461 -0.473666,-0.007 -0.824572,0.13593 -0.943902,0.56369 -0.221592,0.45983 -0.522456,0.86808 -0.972741,1.17908 -0.330632,0.23968 -0.618129,0.58623 -0.982137,0.75545 -0.552861,-0.17181 -0.24073,0.41849 -0.768218,0.26903 -0.373558,0.0391 -0.524494,0.43003 -1.024693,0.26902 -0.477678,0.007 -0.98139,-0.0774 -1.37782,0.2151 -0.171348,0.19244 -0.364562,0.62318 -0.206392,0.86717 0.05255,0.15704 0.162922,0.13219 0.31874,0.12832 z m -11.437483,-2.01767 c 0.459409,0.2002 0.490297,-0.49563 0.170226,-0.57476 -0.287126,-0.0415 -0.969943,-0.64055 -0.887782,-0.15145 -0.100844,0.33485 0.162789,0.74154 0.568775,0.72623 0.0496,-10e-6 0.09919,-10e-6 0.148781,-2e-5 z m 20.350955,-0.18151 c 0.408514,0.0289 0.163518,-0.62339 -0.0137,-0.79091 -0.280766,-0.26448 -0.53452,-0.56792 -0.977378,-0.59864 -0.298896,-0.11754 -0.691193,0.30156 -0.688345,0.55099 0.02805,0.32968 0.488933,0.60006 0.836058,0.70114 0.280447,0.0529 0.551969,0.2121 0.843368,0.13742 z m -22.213538,-0.71142 c 0.342833,0.006 0.359101,-0.79726 0.02664,-0.72116 -0.489376,-0.0898 -0.15951,0.54203 -0.255636,0.79862 0.07633,-0.0258 0.15267,-0.0517 0.229002,-0.0775 z m -1.879218,-0.0618 c 0.375426,0.007 0.517561,-0.36632 0.956373,-0.29786 0.307138,-0.18497 0.610651,-0.58103 0.197706,-0.81783 -0.24108,-0.40022 -0.745844,-0.13 -1.109022,-0.0334 -0.358705,0.24402 -0.68811,0.51798 -1.022388,0.78697 0.32466,0.11858 0.606272,0.39135 0.977331,0.362 z m 4.717828,-0.59395 c 0.576922,0.007 1.120441,-0.10627 1.627906,-0.34917 0.537041,-0.13118 0.935525,-0.4497 1.316198,-0.79231 0.523428,-0.0776 0.01106,0.52719 0.01863,0.77299 -0.09449,0.41732 0.3551,0.57006 0.637155,0.2 0.408539,-0.16605 0.610067,-0.42613 0.508,-0.82412 0.0558,-0.44219 -0.945186,0.13273 -0.763356,-0.36648 0.134182,-0.19481 0.77173,-0.71031 0.255183,-0.72396 -0.485144,-0.10881 -0.676909,0.38581 -1.00243,0.6053 -0.327323,0.22359 -0.522604,0.71877 -1.01381,0.6053 -0.319873,0.0426 -0.246082,0.43201 -0.799285,0.26901 0.08018,0.40849 -0.496606,0.23814 -0.844992,0.26903 -0.646196,0 -1.292393,0 -1.938591,0 0.104825,-0.47789 -0.670317,-0.25161 -0.03376,0.024 0.556558,0.20133 1.162081,0.44764 1.784171,0.32693 0.08299,-0.006 0.165986,-0.011 0.24898,-0.0166 z m 6.623241,0.069 c 0.424637,0.0836 0.966337,-0.0363 0.728588,-0.50361 -0.08467,-0.35195 -0.657248,-0.0814 -0.955079,-0.16142 -0.247279,0.11804 -0.867323,0.33644 -0.468488,0.62228 0.165469,0.0981 0.482532,0.0149 0.694979,0.0428 z m 3.667801,-0.41292 c 0.403796,0.0527 0.76184,-0.0148 1.041717,-0.28736 0.262385,-0.26152 -0.22595,-0.62494 -0.5592,-0.67206 -0.365037,-0.12699 -0.730421,-0.412 -1.094561,-0.13118 -0.481815,0.0269 -0.466466,0.52869 -0.291072,0.79701 0.219056,0.35272 0.500161,0.30613 0.903116,0.29359 z m 4.796396,-0.25958 c 0.460608,0.11644 0.46986,-0.42908 0.285406,-0.67256 -0.454391,0 -0.908783,0 -1.363174,0 0.165782,0.33979 0.70009,0.33561 0.785159,0.53805 -0.07313,0.22612 0.142244,0.10399 0.292609,0.13451 z m -18.543879,-0.29705 c 0.456971,0.061 0.435291,-0.49004 0.350204,-0.76183 -0.01887,-0.51985 -0.595996,-0.74852 -0.950606,-1.09325 -0.589729,-0.15686 -0.33335,0.43173 -0.384798,0.74912 -0.09501,0.38818 0.09127,0.67822 0.430293,0.91495 0.163573,0.19107 0.27515,0.28075 0.554907,0.19101 z m 1.146229,0.028 c 0.44781,0.0882 0.617308,-0.38714 0.921971,-0.58878 0.0241,-0.255 0.05987,-0.84925 -0.305342,-0.56239 0.119563,0.44154 -0.60435,0.005 -0.732813,0.371 -0.238637,0.12816 -0.341571,0.83305 0.01916,0.78017 h 0.06746 z m 18.603871,-0.43383 c 0.472541,-8.2e-4 0.145317,-0.63154 0.11403,-0.88646 -0.312333,-0.44776 -0.496309,-0.25227 -0.635831,0.16589 -0.167016,0.22912 0.154316,0.81869 0.463125,0.73119 z m -14.755725,-0.13767 c 0.430774,-0.006 0.847212,-0.0401 1.092383,-0.39413 0.153381,-0.23277 0.07336,-0.71082 -0.0358,-0.93531 -0.41702,-0.32839 -0.566807,0.27346 -0.933462,0.28677 -0.470612,-0.0728 -0.669186,0.43307 -1.009916,0.63657 -0.242958,0.34234 0.309397,0.57337 0.644372,0.42631 0.0808,-0.006 0.161608,-0.0135 0.242413,-0.0202 z m 6.995769,-0.005 c 0.443386,-0.009 0.227536,-0.58891 0.36257,-0.86497 0.04408,-0.66867 0.49365,-1.23716 0.746081,-1.85436 0.589608,-0.42702 0.891207,-1.09658 1.466569,-1.54686 0.486473,0.11616 0.195655,-0.4525 0.758525,-0.26902 0.204718,-0.41798 -0.3543,-0.2298 -0.588896,-0.0602 -0.457579,0.1983 -0.709634,0.67747 -1.273054,0.68544 -0.07844,-0.19306 -0.196021,-0.35378 -0.443768,-0.5218 -0.135928,-0.16779 -0.295929,-0.92314 -0.416509,-0.71658 -0.209327,0.3309 -0.150849,0.64044 0.111451,0.93372 0.03124,0.312 0.945954,0.39078 0.462332,0.67073 -0.535378,0.51581 -1.212934,0.98743 -1.372945,1.70619 -0.0178,0.37903 -0.461684,0.59486 -0.42139,0.95682 -0.06546,0.36181 0.03473,0.669 0.368017,0.89931 0.05928,0.0325 0.168,-0.0215 0.24102,-0.0184 z m -8.907951,-0.36538 c 0.449703,0.0427 0.638114,-0.45311 0.966651,-0.66011 0.312174,-0.21621 0.197647,-0.67286 -0.258789,-0.58911 -0.433444,-0.14991 -0.80121,0.10112 -0.653159,0.50495 -0.0404,0.29173 -0.492208,0.22099 -0.305342,0.71295 -0.009,0.076 0.192575,0.009 0.250639,0.0313 z m 5.038436,-1.21059 c 0.499454,0.0636 0.09084,-0.60881 0.16686,-0.8884 -0.03841,-0.40584 -0.07683,-0.81168 -0.115246,-1.21753 0.356212,-0.0309 0.852375,0.27715 1.103619,-0.008 0.277471,-0.31726 0.681764,-0.59201 0.883868,-0.93454 0.177501,-0.5257 -0.41425,-0.27441 -0.773967,-0.25749 -0.430169,-0.002 -0.791235,0.10899 -1.009388,0.45224 -0.339171,0.10351 -0.215118,0.95471 -0.565619,0.53417 -0.309117,-0.23714 -0.279803,-0.59188 -0.694028,-0.78021 -0.311191,-0.18101 -0.515112,-0.60514 -0.938389,-0.53213 0.23077,0.29988 0.620287,0.542 0.775394,0.86052 -0.148017,-0.008 -0.79921,-0.1009 -0.569166,0.388 -0.09799,0.38702 0.68738,0.56789 0.569166,0.12797 -0.103318,-0.57517 0.463974,-0.18225 0.49532,0.16444 0.251592,0.56846 0.504566,1.15332 0.420705,1.77438 0.01892,0.21726 -0.106661,0.38367 0.250871,0.31648 z m 6.199367,-0.0434 c 0.760849,-0.0201 1.516722,-0.0721 2.251893,-0.25615 -0.202104,-0.47872 0.64426,-0.0337 0.610675,-0.36393 0.04891,-0.30358 0.698258,-0.18308 0.85221,-0.5211 0.257556,-0.24937 0.65429,-0.44477 0.82717,-0.72697 0.01288,-0.48418 -0.398078,-0.15625 -0.40074,0.13173 -0.223017,0.31741 -0.618406,0.26819 -0.847145,0.57343 -0.473575,0.29622 -1.118172,0.34612 -1.660229,0.54369 -0.734172,0.27924 -1.548217,0.0648 -2.321948,0.0998 -0.534848,-0.11697 -0.662359,0.16456 -0.571415,0.58275 0.419844,-0.0211 0.839687,-0.0421 1.259529,-0.0632 z m -9.809071,-0.22563 c 0.40415,0.003 0.318494,-0.33635 0.743841,-0.37846 0.07284,-0.2419 0.617037,-0.82499 0.122486,-0.83166 -0.562612,-0.14847 -0.449576,0.20842 -0.818167,0.32281 -0.557095,1e-4 -0.295722,0.52789 -0.353502,0.8499 -0.01876,0.0868 0.243234,0.0136 0.305342,0.0374 z m -1.05048,-0.23425 c 0.448003,0.003 0.564029,-0.49948 0.31971,-0.77257 -0.105828,-0.51402 -0.675216,-0.7088 -1.088882,-1.01083 -0.580454,-0.14664 -0.251332,0.43481 -0.27668,0.73251 0.0096,0.36641 0.03238,0.72686 0.450881,0.90753 0.19021,0.18045 0.320502,0.2637 0.594971,0.14336 z m 17.653384,-0.57872 c 0.331447,0.0347 0.226439,-0.65694 0.09057,-0.83398 -0.339037,-0.2829 -0.742051,-0.64214 -1.220542,-0.61346 -0.267798,0.20428 -0.913429,0.32159 -0.493131,0.6843 0.09522,0.3696 0.466319,0.48411 0.836343,0.56978 0.261827,0.0627 0.508756,0.20865 0.786764,0.19336 z m -3.083942,-0.94478 c 0.444635,-0.002 0.615159,-0.42621 0.155698,-0.606 -0.253006,-0.0515 -1.027032,-0.20744 -1.003021,0.12088 -0.04765,0.33139 0.54836,0.39034 0.821657,0.48367 z m -13.43172,-0.66332 c 0.392382,-0.0351 0.879425,0.13139 1.116394,-0.23419 0.331172,-0.22692 0.195155,-0.69252 -0.143098,-0.8683 -0.4793,-0.0884 -0.420531,-0.2684 -0.251135,-0.68158 -0.376486,-0.22908 -0.694105,-0.60798 -1.202547,-0.50119 -0.602075,0.0176 -0.254945,0.51544 0.09253,0.6855 0.145847,0.22096 0.977802,0.57992 0.391035,0.65353 -0.356197,0.11949 -0.559484,0.45692 -0.853866,0.66451 -0.161876,0.5045 0.535161,0.19842 0.850671,0.28172 z m 14.416447,-0.0124 c 0.272128,-0.11135 0.793022,-0.31143 0.567735,-0.65775 -0.05653,-0.37411 -0.126484,-0.74255 -0.483387,-0.9896 -0.155798,-0.29901 -0.717155,-0.58758 -0.779164,-0.0894 -0.14552,0.35819 -0.03235,0.7586 -0.0685,1.13464 0.2589,0.17813 0.469734,0.4989 0.763318,0.60213 z m 1.679371,-0.25662 c 0.484558,0.18339 0.65044,-0.33376 0.250381,-0.52241 -0.196793,-0.30998 -0.857182,-0.10382 -0.708393,0.2491 -0.08471,0.3924 0.13097,0.24841 0.458012,0.27331 z m -9.351058,-0.2733 c 0.387246,0.0727 0.859316,-0.17658 0.954187,-0.48031 0.06257,-0.35114 -0.645849,-0.14808 -0.893416,-0.14367 -0.325369,0.0879 -0.804918,0.68367 -0.210805,0.62544 0.05002,-4.8e-4 0.10002,-8.1e-4 0.150034,-0.002 z m -3.748255,-0.2801 c 0.364258,-0.12917 0.569745,-0.49345 0.733016,-0.77648 0.163309,-0.50662 -0.435423,-0.17839 -0.75108,-0.16027 -0.32886,0.0542 -0.704435,0.34047 -0.622957,0.66351 0.172724,0.17133 0.345379,0.55583 0.641021,0.27324 z m 6.167623,0.006 c 0.418375,-0.23371 0.772042,-0.59213 0.958773,-1.01805 0.08336,-0.36535 0.06721,-0.73118 -0.466797,-0.58694 -0.37727,0.27508 -0.901266,0.48231 -1.188073,0.79924 -0.134655,0.43044 0.13407,0.64059 0.579924,0.75398 0.03655,0.0207 0.0811,0.0288 0.116173,0.0519 z m 2.857797,-0.27053 c 0.40214,-0.0357 0.807765,-0.27371 0.92888,-0.63594 0.245318,-0.28741 0.277406,-0.62051 0.244276,-0.9676 -0.527806,-0.13799 -0.541295,0.16896 -0.801516,0.2731 -0.342009,0.0394 -0.776163,0.35325 -0.877856,0.62789 -0.04714,0.34428 -0.03493,0.6911 0.448767,0.69728 z"
       style="fill:#53c324;fill-opacity:1;stroke-width:0.867926"
       id="path1-2" /><path
       d="M 24.362824,145.10304 H 10.257148 v -14.10919 -14.10917 l 0.241493,-0.0816 0.241492,-0.0816 H 24.513781 38.28743 l 0.183205,0.16142 0.183204,0.1614 v 13.81666 13.81664 l -0.09267,0.21277 -0.09266,0.21277 z m -0.03432,-0.27965 13.384341,0.0106 0.241491,-0.0816 0.241493,-0.0816 v -13.77293 -13.7729 H 24.379158 10.562489 v 13.77609 13.77609 l 0.190839,0.0678 0.190838,0.0678 z"
       style="fill:#0350bc;fill-opacity:1;stroke-width:0.867926"
       id="path1-3"
       sodipodi:nodetypes="cccccccccccccccccccccccccccc" /><path
       d="m 24.478009,144.39834 c -4.39655,0 -8.793101,0 -13.189652,0 -0.335671,-0.56895 -0.133196,-1.22599 -0.188861,-1.84078 -0.0043,-3.88321 -0.0086,-7.76641 -0.01286,-11.64963 0.236635,-0.36045 0.667776,-0.0674 1.021879,-0.0334 0.69036,0.18404 1.450585,0.21825 2.043737,0.61073 0.521151,-0.13466 0.549163,0.16516 0.799579,0.26902 0.526577,0.006 0.952362,0.37832 1.435794,0.5411 0.306345,0.17536 0.759967,0.27154 0.974848,0.49607 -0.04977,0.31062 0.550047,0.11884 0.722383,0.41099 0.445878,0.28013 0.961969,0.50761 1.363681,0.82084 0.06978,0.36343 0.695709,-0.0623 0.770721,0.33285 0.323451,0.15472 0.678983,0.0254 0.828784,0.35448 0.652888,0.24757 1.305777,0.49514 1.958668,0.7427 -0.06967,0.36654 0.559703,0.0997 0.770563,0.37473 0.542403,0.20506 1.033492,0.59915 1.658579,0.4996 0.103171,0.44159 0.656392,0.17199 0.9484,0.31516 0.153164,0.35108 0.677288,0.19739 1.015113,0.29719 1.112951,0.12028 2.206459,0.4041 3.32421,0.46156 1.127019,-0.0249 2.263635,0.0332 3.384616,-0.044 1.03247,-0.17989 2.060707,-0.37998 3.101295,-0.52114 -0.17576,-0.50482 0.516626,-0.009 0.458011,0.22516 0,2.44562 0,4.89123 0,7.33685 -4.396494,-5e-5 -8.792988,-1.1e-4 -13.189482,-1.6e-4 z"
       style="fill:#0350bc;fill-opacity:1;stroke-width:0.867926"
       id="path1" /></g></svg>
