<?xml version="1.0" encoding="UTF-8" standalone="no"?>
<!-- Created with Inkscape (http://www.inkscape.org/) -->

<svg
   width="197.84901mm"
   height="34.838097mm"
   viewBox="0 0 197.84901 34.838097"
   version="1.1"
   id="svg1"
   xml:space="preserve"
   xmlns:inkscape="http://www.inkscape.org/namespaces/inkscape"
   xmlns:sodipodi="http://sodipodi.sourceforge.net/DTD/sodipodi-0.dtd"
   xmlns="http://www.w3.org/2000/svg"
   xmlns:svg="http://www.w3.org/2000/svg"><sodipodi:namedview
     id="namedview1"
     pagecolor="#ffffff"
     bordercolor="#666666"
     borderopacity="1.0"
     inkscape:showpageshadow="2"
     inkscape:pageopacity="0.0"
     inkscape:pagecheckerboard="0"
     inkscape:deskcolor="#d1d1d1"
     inkscape:document-units="mm" /><defs
     id="defs1" /><g
     inkscape:label="Layer 1"
     inkscape:groupmode="layer"
     id="layer1"
     transform="translate(-6.5782649,-113.19671)"><rect
       style="display:inline;fill:#ffffff;fill-opacity:1;stroke-width:2.44001;paint-order:markers fill stroke"
       id="rect5"
       width="30.16691"
       height="34.320816"
       x="6.8096857"
       y="113.51746"
       inkscape:export-filename="logowse.svg"
       inkscape:export-xdpi="96"
       inkscape:export-ydpi="96" /><path
       d="m 29.928342,137.14325 c -1.033037,-0.0247 -2.081062,0.083 -3.080384,-0.23972 -0.983877,-0.25516 -2.023719,-0.3512 -2.974486,-0.6958 -0.394145,-0.34609 -0.959473,-0.0749 -1.339697,-0.44677 -0.385246,-0.15704 -0.777376,-0.42733 -0.459545,-0.86133 0.357773,-0.69123 0.574128,-1.48553 1.065466,-2.07876 0.496257,-1.06348 1.052296,-2.12062 1.521656,-3.18313 0,-0.92967 0,-1.85934 0,-2.78901 -0.555765,-0.0208 -0.20428,-0.67952 -0.694996,-0.88895 -0.348635,-0.31838 -0.631454,-0.78813 -1.019736,-1.01533 -0.529358,-0.1824 -0.962283,-0.6643 -1.454847,-0.96098 -0.223462,-0.39847 -0.974484,0.0693 -0.809601,-0.52501 -0.494377,0.14674 -0.691174,-0.18048 -1.043149,-0.33794 -0.372176,-0.13403 -0.918144,-0.01 -1.17834,-0.31022 -0.213492,-0.37394 -0.793787,-0.0783 -1.166364,-0.1618 -0.732421,-0.0369 0.407408,0.2116 0.636919,0.32134 0.548105,-0.003 0.68914,0.54755 1.161686,0.48865 0.604248,-0.2146 0.253565,0.52572 0.838713,0.33022 0.59981,0.20634 1.151721,0.63214 1.714654,0.94924 0.58545,0.49417 1.252046,0.92212 1.565065,1.65199 0.47418,0.52468 0.208713,1.25727 0.277356,1.89594 -0.134544,0.58833 -0.499812,1.12594 -0.72449,1.69445 -0.785699,0.82934 -1.327641,1.87532 -2.11414,2.7152 -0.474679,0.50461 -0.971348,0.98931 -1.45427,1.48646 -0.797978,-0.40993 -1.595954,-0.81986 -2.39393,-1.2298 -0.135292,-0.38155 -0.695868,-0.24071 -0.967292,-0.607 -0.448297,-0.34966 -1.048619,-0.57001 -1.399168,-1.00281 -0.409765,-0.10777 -0.487036,-0.28486 -0.868093,-0.49086 -0.811814,-0.28971 -1.661796,-0.55369 -2.425664,-0.92738 -0.341781,-0.3316 -0.929422,-0.25609 -1.3674297,-0.44205 -0.7311494,-0.22693 -1.5176204,-0.30399 -2.1942834,-0.67852 0.076272,-4.75331 0.041825,-9.50738 0.0588,-14.26109 2.9719701,0 5.9439401,0 8.9159101,0 0.212618,0.52814 -0.467687,0.55845 -0.33022,1.04469 0.06379,0.39732 -0.133394,0.90274 0.10317,1.22849 0.270231,0.4327 0.585763,0.46438 0.945837,0.1019 0.150714,-0.38341 0.44873,-0.82636 0.127579,-1.21058 -0.12133,-0.36776 -0.503707,-0.916 -0.470634,-1.1645 1.856096,0 3.712192,0 5.568288,0 0.0327,0.59227 -0.05134,1.22421 0.05411,1.79176 0.212542,0.44019 0.556841,0.61493 1.03511,0.51978 0.434395,-0.25505 0.430642,-0.69157 0.39627,-1.14078 -0.461476,0.0631 -0.491639,-0.61316 -0.7324,-0.92309 -0.314693,-0.48229 0.673976,-0.14957 0.973687,-0.24767 3.925478,0 7.850955,0 11.776433,0 0.372035,0.7719 0.128353,1.65783 0.197807,2.48577 -6.02e-4,6.1586 -0.0012,12.3172 -0.0018,18.4758 -0.167502,0.39967 -0.207889,0.94824 -0.76701,0.88922 -1.223238,0.22664 -2.427127,0.60635 -3.656753,0.76224 -0.615262,-0.004 -1.230525,-0.008 -1.845787,-0.0123 z m -10.97978,-6.84405 c 0.915916,-0.0539 1.873523,-0.0977 2.748628,-0.31703 0.265649,-0.30326 0.769155,-0.50304 0.636122,-0.97976 -0.22317,-0.25666 -0.85331,-0.001 -1.206187,0.0993 -0.423961,0.0972 -0.82795,0.32902 -1.270463,0.30115 -0.0014,-0.43492 0.106806,-0.91751 -0.36135,-1.14934 -0.213171,-0.33957 -0.794423,-0.54494 -0.94632,-0.0594 0.215944,0.40291 0.431891,0.80582 0.64784,1.20873 -0.927375,-0.0484 -1.894469,0.15582 -2.766211,-0.24631 -0.408776,-0.16195 -0.910028,-0.18867 -1.182921,-0.54608 -0.653165,-0.0817 -0.497973,-0.38001 -0.09671,-0.74433 -0.0183,-0.44477 -0.160632,-0.8255 -0.535466,-1.08617 -0.204653,0.30802 -0.234439,0.74732 -0.207584,1.1369 -0.43986,0.0394 -0.9725,-0.1569 -1.248654,0.29837 -0.165456,0.46223 -0.865678,0.17146 -0.732656,0.67751 0.119828,0.45196 0.539331,-0.27682 0.641197,-0.3125 0.279631,0.0424 1.328116,-0.0881 0.600887,0.18097 -0.398817,0.18639 -0.83576,0.33596 -0.925722,0.82062 -0.382699,0.47249 0.02592,0.55469 0.447455,0.48156 0.347976,-0.076 0.943817,-0.23217 1.050308,-0.55867 -0.277094,-0.50062 0.64378,-0.6498 0.496825,-0.13979 0.705056,0.37093 1.413377,0.73589 2.217753,0.82313 0.663743,0.21716 1.308543,0.17021 1.993227,0.11117 z m 6.29335,0.0939 c 0.649507,-0.0479 1.30888,-0.22289 1.925517,-0.42123 0.314475,-0.3144 0.751622,-0.14882 1.094157,-0.346 0.656394,-0.37977 1.386962,-0.66613 1.827986,-1.31715 0.774038,-0.70263 1.067357,-1.73812 1.58069,-2.62126 0.333842,-0.096 1.018573,0.28365 1.091458,-0.16614 -0.08017,-0.58605 0.568793,-0.40345 0.778812,-0.72575 0.256101,-0.44656 0.428999,-0.91177 0.35039,-1.43334 0.215716,-0.5297 -0.523195,-0.50349 -0.775064,-0.25644 -0.289979,0.31338 -0.852409,0.50164 -0.710916,1.01314 -0.467367,-0.22572 -0.481051,0.7009 -0.0192,0.49533 0.221526,0.50976 -0.293915,0.53913 -0.701295,0.56588 -0.512257,-0.009 -0.891754,0.16686 -1.020807,0.69192 -0.239645,0.56444 -0.565023,1.06555 -1.051996,1.44731 -0.357571,0.29419 -0.668492,0.71958 -1.062159,0.9273 -0.597905,-0.21089 -0.260343,0.51368 -0.83081,0.33023 -0.403992,0.048 -0.567228,0.52785 -1.10818,0.33021 -0.516597,0.009 -1.06135,-0.095 -1.49008,0.26403 -0.18531,0.23622 -0.394265,0.76496 -0.223208,1.06444 0.05683,0.19278 0.176195,0.16227 0.34471,0.15752 z m -12.36937,-2.47666 c 0.49684,0.24574 0.530244,-0.60839 0.184095,-0.70551 -0.31052,-0.051 -1.04897,-0.78627 -0.960115,-0.1859 -0.109064,0.41102 0.176053,0.91022 0.615117,0.89144 0.05363,-1e-5 0.107269,-2e-5 0.160903,-3e-5 z m 22.00908,-0.22281 c 0.441799,0.0355 0.176841,-0.7652 -0.01482,-0.97082 -0.30364,-0.32465 -0.578069,-0.69712 -1.05701,-0.73482 -0.32325,-0.14429 -0.74751,0.37015 -0.744429,0.67633 0.03033,0.40467 0.528769,0.73656 0.904176,0.86063 0.303298,0.0649 0.596942,0.26035 0.912084,0.16868 z m -24.02342,-0.87325 c 0.370765,0.008 0.38836,-0.97862 0.0288,-0.88522 -0.529248,-0.11033 -0.172505,0.66534 -0.276463,0.9803 0.08255,-0.0317 0.165107,-0.0634 0.24766,-0.0951 z m -2.0323301,-0.0759 c 0.4060151,0.009 0.5597301,-0.44965 1.0342952,-0.36561 0.3321639,-0.22706 0.6604049,-0.71322 0.2138139,-1.00388 -0.2607212,-0.49126 -0.8066118,-0.15958 -1.1993805,-0.0409 -0.387931,0.29953 -0.7441754,0.63581 -1.1056886,0.96599 0.3511125,0.14556 0.6556692,0.48038 1.05696,0.44436 z m 5.1022201,-0.72906 c 0.623928,0.009 1.211731,-0.13045 1.760542,-0.42861 0.580797,-0.16101 1.011749,-0.55199 1.423438,-0.97254 0.566075,-0.0952 0.01193,0.64711 0.02015,0.94884 -0.102188,0.51225 0.384032,0.69973 0.689069,0.24549 0.441825,-0.20383 0.659773,-0.52307 0.549389,-1.01159 0.06034,-0.54279 -1.022195,0.16292 -0.82555,-0.44985 0.145113,-0.23913 0.834608,-0.8719 0.275973,-0.88866 -0.524671,-0.13356 -0.73206,0.47357 -1.084103,0.743 -0.353994,0.27446 -0.565185,0.88228 -1.096412,0.74299 -0.345936,0.0523 -0.266133,0.53029 -0.864408,0.33022 0.08672,0.50141 -0.537068,0.29231 -0.91384,0.33022 -0.698846,0 -1.397693,0 -2.09654,0 0.113362,-0.58659 -0.724933,-0.30885 -0.03651,0.0295 0.601905,0.24713 1.256763,0.54947 1.929539,0.40131 0.08976,-0.007 0.17951,-0.0136 0.269265,-0.0203 z m 7.16288,0.0848 c 0.459235,0.10258 1.04507,-0.0445 0.787951,-0.61818 -0.09157,-0.43201 -0.710799,-0.0999 -1.032896,-0.19814 -0.267426,0.14489 -0.937989,0.41297 -0.506658,0.76384 0.178949,0.12038 0.521847,0.0183 0.751603,0.0525 z m 3.96664,-0.50686 c 0.436697,0.0647 0.823913,-0.0181 1.126593,-0.35273 0.283764,-0.32102 -0.244359,-0.7671 -0.604762,-0.82495 -0.394779,-0.15587 -0.789933,-0.50572 -1.183741,-0.16102 -0.521072,0.033 -0.504472,0.64896 -0.314787,0.97832 0.236902,0.43296 0.540911,0.37577 0.976697,0.36038 z m 5.18719,-0.31868 c 0.498137,0.14292 0.508143,-0.52669 0.30866,-0.82555 -0.491413,0 -0.982827,0 -1.47424,0 0.179289,0.41708 0.757131,0.41195 0.84913,0.66044 -0.07908,0.27755 0.153835,0.12765 0.31645,0.16511 z m -20.05477,-0.36463 c 0.494204,0.0749 0.470758,-0.60151 0.378738,-0.93513 -0.0204,-0.63811 -0.6445556,-0.91879 -1.0280581,-1.34194 -0.6377779,-0.19255 -0.3605107,0.52994 -0.41615,0.91952 -0.1027545,0.47649 0.098704,0.8325 0.4653513,1.12308 0.1769,0.23454 0.2975688,0.34463 0.6001188,0.23447 z m 1.23962,0.0344 c 0.484297,0.1083 0.667604,-0.4752 0.99709,-0.72271 0.02607,-0.313 0.06475,-1.04244 -0.33022,-0.69033 0.129305,0.542 -0.65359,0.006 -0.79252,0.4554 -0.258079,0.15731 -0.369401,1.02256 0.02072,0.95764 h 0.07295 z m 20.11965,-0.53252 c 0.511042,-0.001 0.157158,-0.7752 0.123322,-1.08811 -0.337781,-0.54962 -0.536746,-0.30966 -0.687636,0.20363 -0.180623,0.28124 0.166889,1.00493 0.500859,0.89752 z m -15.95797,-0.16898 c 0.465871,-0.008 0.916239,-0.0492 1.181386,-0.48379 0.165879,-0.28572 0.07935,-0.87251 -0.03871,-1.14808 -0.450997,-0.4031 -0.612989,0.33566 -1.009516,0.35201 -0.508958,-0.0893 -0.723711,0.53159 -1.092201,0.78138 -0.262755,0.42022 0.334606,0.7038 0.696873,0.52328 0.08739,-0.008 0.174775,-0.0165 0.262163,-0.0248 z m 7.56576,-0.006 c 0.479512,-0.0112 0.246076,-0.72289 0.392111,-1.06174 0.04767,-0.82078 0.533871,-1.5186 0.806869,-2.2762 0.637646,-0.52416 0.963819,-1.34603 1.58606,-1.89875 0.526109,0.14259 0.211595,-0.55544 0.820327,-0.33022 0.221397,-0.51306 -0.383168,-0.28208 -0.636877,-0.0739 -0.494861,0.24341 -0.767453,0.83158 -1.376779,0.84136 -0.08483,-0.23697 -0.211992,-0.43425 -0.479924,-0.64049 -0.147004,-0.20596 -0.320041,-1.13315 -0.450445,-0.87961 -0.226382,0.40618 -0.163139,0.78614 0.120529,1.14614 0.03379,0.38298 1.023025,0.47968 0.5,0.82332 -0.578999,0.63314 -1.311759,1.21204 -1.484807,2.09432 -0.01926,0.46525 -0.4993,0.73017 -0.455724,1.17448 -0.07079,0.44412 0.03756,0.82118 0.398002,1.10389 0.06411,0.0399 0.181688,-0.0264 0.260658,-0.0226 z m -9.63374,-0.4485 c 0.486343,0.0524 0.690105,-0.55618 1.045411,-0.81027 0.337608,-0.2654 0.21375,-0.82593 -0.279876,-0.72312 -0.468758,-0.18402 -0.866489,0.12412 -0.706375,0.61981 -0.04369,0.35809 -0.532312,0.27126 -0.33022,0.87514 -0.0098,0.0933 0.208265,0.0107 0.27106,0.0384 z m 5.44895,-1.48598 c 0.540148,0.0781 0.09824,-0.7473 0.180456,-1.0905 -0.04154,-0.49817 -0.08309,-0.99633 -0.124636,-1.4945 0.385235,-0.0379 0.921823,0.3402 1.193538,-0.01 0.300078,-0.38944 0.73731,-0.72669 0.955882,-1.14714 0.191963,-0.64529 -0.448001,-0.33684 -0.837027,-0.31607 -0.465217,-0.002 -0.855703,0.13379 -1.09163,0.55513 -0.366805,0.12706 -0.232645,1.17189 -0.611704,0.65568 -0.334302,-0.29109 -0.3026,-0.72653 -0.750574,-0.9577 -0.336545,-0.22219 -0.557083,-0.74279 -1.014845,-0.65318 0.249573,0.3681 0.670825,0.6653 0.83857,1.05627 -0.160077,-0.01 -0.864328,-0.12384 -0.615541,0.47628 -0.105966,0.47506 0.743386,0.69706 0.615541,0.15708 -0.111735,-0.70603 0.501776,-0.22372 0.535676,0.20184 0.272092,0.69778 0.545677,1.41568 0.454984,2.17803 0.02047,0.26669 -0.115347,0.47094 0.27131,0.38848 z m 6.70447,-0.0533 c 0.82284,-0.0247 1.6403,-0.0884 2.43537,-0.31442 -0.218571,-0.58762 0.696751,-0.0413 0.66043,-0.44672 0.05289,-0.37263 0.755151,-0.22473 0.921646,-0.63964 0.278539,-0.3061 0.707599,-0.54594 0.894564,-0.89234 0.01394,-0.59433 -0.430513,-0.1918 -0.43339,0.16169 -0.241188,0.38962 -0.668792,0.3292 -0.916168,0.70388 -0.512161,0.36361 -1.209277,0.42485 -1.795499,0.66738 -0.79399,0.34276 -1.67436,0.0796 -2.511131,0.12244 -0.578427,-0.14357 -0.716327,0.202 -0.617972,0.71532 0.45405,-0.0259 0.9081,-0.0517 1.36215,-0.0776 z m -10.60828,-0.27696 c 0.437079,0.004 0.344443,-0.41286 0.804447,-0.46455 0.07878,-0.29694 0.667311,-1.01267 0.132466,-1.02086 -0.608453,-0.18223 -0.486207,0.25585 -0.884829,0.39625 -0.602485,1.2e-4 -0.319816,0.64798 -0.382304,1.04325 -0.02029,0.10651 0.263052,0.0167 0.33022,0.0459 z m -1.13607,-0.28753 c 0.484506,0.004 0.609984,-0.61311 0.34576,-0.94833 -0.114454,-0.63094 -0.730231,-0.87004 -1.1776,-1.24077 -0.627748,-0.18 -0.271811,0.53371 -0.299224,0.89914 0.0104,0.44977 0.03502,0.89221 0.487617,1.11399 0.205708,0.2215 0.346616,0.32369 0.643447,0.17597 z m 19.09172,-0.71038 c 0.358453,0.0426 0.24489,-0.80637 0.09795,-1.0237 -0.366661,-0.34725 -0.802511,-0.78821 -1.319988,-0.75301 -0.289616,0.25076 -0.987852,0.39475 -0.533309,0.83997 0.102978,0.45368 0.504313,0.59424 0.904486,0.6994 0.283159,0.077 0.550207,0.25612 0.850864,0.23734 z m -3.33521,-1.15969 c 0.480862,-0.003 0.665281,-0.52317 0.168384,-0.74386 -0.27362,-0.0632 -1.110711,-0.25464 -1.084744,0.14837 -0.05154,0.40678 0.593038,0.47914 0.888604,0.5937 z m -14.52609,-0.81437 c 0.424352,-0.043 0.951078,0.16127 1.207355,-0.28746 0.358154,-0.27854 0.211054,-0.85007 -0.154758,-1.06583 -0.518352,-0.10855 -0.454795,-0.32947 -0.271597,-0.83664 -0.407161,-0.28119 -0.750658,-0.74628 -1.300526,-0.6152 -0.65113,0.0216 -0.275716,0.63269 0.100087,0.84144 0.157729,0.27123 1.057469,0.71184 0.422894,0.8022 -0.385219,0.14667 -0.605068,0.56086 -0.923435,0.81568 -0.175067,0.61926 0.578764,0.24355 0.91998,0.34581 z m 15.59105,-0.0152 c 0.294299,-0.13668 0.857634,-0.38227 0.613991,-0.80738 -0.06114,-0.45922 -0.136788,-0.91147 -0.522771,-1.21472 -0.168493,-0.36702 -0.775587,-0.72124 -0.842647,-0.10976 -0.157378,0.43967 -0.03498,0.93117 -0.07408,1.39275 0.279993,0.21865 0.508006,0.6124 0.82551,0.73911 z m 1.8162,-0.31499 c 0.524037,0.2251 0.703435,-0.4097 0.270781,-0.64125 -0.212827,-0.38051 -0.927023,-0.12744 -0.766111,0.30576 -0.09161,0.48167 0.141642,0.30492 0.49533,0.33549 z m -10.11295,-0.33547 c 0.418798,0.0892 0.92933,-0.21676 1.03193,-0.58958 0.06767,-0.43102 -0.69847,-0.18177 -0.966208,-0.17636 -0.35188,0.10789 -0.8705,0.8392 -0.22798,0.76772 0.05409,-5.9e-4 0.108172,-0.001 0.162258,-0.002 z m -4.05365,-0.34383 c 0.393936,-0.15855 0.616166,-0.60571 0.79274,-0.95311 0.176614,-0.62187 -0.470901,-0.21898 -0.812275,-0.19674 -0.355655,0.0665 -0.76183,0.41793 -0.673715,0.81446 0.186798,0.2103 0.37352,0.68226 0.69325,0.33539 z m 6.67014,0.008 c 0.452463,-0.28688 0.834945,-0.72683 1.03689,-1.24965 0.09015,-0.44846 0.07268,-0.89751 -0.50483,-0.72046 -0.408009,0.33766 -0.974697,0.59203 -1.284873,0.98105 -0.145626,0.52837 0.144994,0.78632 0.627174,0.92551 0.03952,0.0254 0.08771,0.0354 0.125639,0.0636 z m 3.09064,-0.33208 c 0.434904,-0.0438 0.873579,-0.33597 1.004562,-0.7806 0.265306,-0.35279 0.300008,-0.76167 0.264178,-1.18771 -0.57081,-0.16939 -0.585397,0.20738 -0.86682,0.33522 -0.369875,0.0483 -0.839403,0.43361 -0.94938,0.77072 -0.05098,0.4226 -0.03777,0.84832 0.485331,0.85591 z"
       style="fill:#53c324;fill-opacity:1"
       id="path1-2" /><path
       d="M 21.833222,148.03481 H 6.578265 v -17.31883 -17.31882 l 0.261168,-0.10022 0.261168,-0.10022 h 14.895878 14.895878 l 0.198131,0.19813 0.198132,0.19813 v 16.95975 16.95974 l -0.10022,0.26117 -0.10022,0.26117 z m -0.03712,-0.34326 14.474849,0.013 0.261168,-0.10022 0.261168,-0.10022 V 130.5981 113.69205 H 21.850887 6.908484 v 16.90995 16.90996 l 0.206387,0.0833 0.206387,0.0833 z"
       style="fill:#0350bc;fill-opacity:1"
       id="path1-3"
       sodipodi:nodetypes="cccccccccccccccccccccccccccc" /><path
       d="m 45.247766,132.25414 c -1.53264,0.004 -1.990992,-1.98464 -2.156567,-2.88513 -0.826463,-1.29032 -1.250519,-3.47555 -2.146423,-5.03102 -0.127169,-1.42563 -1.885902,-3.46756 -1.15454,-4.13133 1.804507,-0.38493 3.18731,0.23731 2.970744,2.14644 0.86769,0.79573 1.099578,2.96841 1.844798,4.197 0.458926,1.73746 0.780542,2.32297 1.45739,0.92148 0.267426,-1.47041 1.337592,-3.09708 1.651098,-4.12774 0.679831,-0.65505 0.591079,-2.99964 2.16196,-3.46729 2.481794,-0.1746 2.413079,3.20124 3.485539,4.78642 0.618456,0.98824 1.030894,4.07406 1.947531,3.49264 0.116616,-1.2036 1.115686,-2.69658 1.48599,-3.99596 0.36725,-0.91428 1.058566,-2.54996 1.61474,-3.87033 1.991488,-0.34263 3.525299,-0.21899 1.86187,1.95876 -0.93283,2.40791 -1.940269,4.31599 -2.81618,6.81318 -0.600998,0.58337 -0.53112,2.47307 -1.8162,2.86812 -1.186891,1.29427 -2.602698,-1.15243 -2.888103,-2.45092 -0.771268,-1.85179 -1.710095,-4.04371 -2.418477,-5.63944 -1.102138,1.0121 -1.022613,1.86546 -1.74527,3.33259 -0.763963,1.48017 -0.892105,2.21981 -1.680971,3.72945 -0.287772,0.64233 -0.834953,1.55023 -1.658929,1.35308 z m 122.459794,-0.27189 c -2.38236,1.03975 -2.85932,-0.83627 -2.34504,-2.91021 0.13388,-2.92671 0.21639,-5.8554 0.32245,-8.78318 3.97078,0.17988 8.04082,-0.54913 11.93927,0.29301 2.05901,1.50109 1.47643,4.56505 0.8824,6.68996 -1.85933,2.40954 -5.29689,0.97324 -7.90595,1.35514 -2.71355,-0.76427 -3.0662,0.83236 -2.68717,3.16066 z m 4.1454,-5.50421 c 1.54265,-0.23303 4.68314,0.8986 4.48157,-1.64701 0.71794,-2.30128 -1.72833,-2.82776 -3.4714,-2.47867 -1.55549,0.4503 -4.97255,-1.16576 -4.69557,1.31859 -1.00279,2.55759 0.60263,3.29773 2.92979,2.8075 0.25187,-1.3e-4 0.50374,-2.7e-4 0.75561,-4.1e-4 z m 15.96493,5.75695 c -2.33951,-0.1171 -5.08857,0.34538 -7.02541,-1.25032 -0.73118,-2.02373 -0.17706,-4.96411 -0.33306,-7.39848 -0.34272,-2.12254 0.20767,-4.18948 2.72719,-3.29728 -0.0949,2.92396 -0.19764,5.84766 -0.29578,8.77151 1.82151,1.49272 4.54483,0.38033 6.76471,0.72228 2.30883,-1.28988 2.74885,3.00129 0.47856,2.46933 -0.77207,-0.006 -1.54414,-0.0114 -2.31621,-0.017 z m 8.44386,0.0181 c -2.49331,0.34261 -0.55275,-2.00916 -1.10475,-3.58282 0.68255,-2.35632 -1.40851,-3.5571 -2.82391,-5.03937 -0.53097,-1.01548 -4.79881,-3.53807 -2.07059,-3.42432 2.78805,-0.62383 4.1963,2.35682 6.09019,3.86549 1.0934,0.49345 2.30213,-1.68433 3.32432,-2.25435 1.18278,-1.34396 2.46549,-1.90982 4.32601,-1.61049 1.65982,0.38232 -2.05854,1.99517 -2.4592,2.99704 -1.49778,1.59781 -4.28297,2.72489 -3.84454,5.3429 -0.45743,1.14467 0.67299,4.30232 -1.43753,3.70592 z M 113.304,132.05897 c -1.95713,-0.22141 -4.05594,0.37193 -5.5224,-1.21004 -1.56138,-1.09012 -2.97813,-1.79306 -4.2958,-2.90333 -1.12943,0.1576 0.47062,4.04528 -1.12276,3.98355 -2.813674,0.88164 -1.64346,-2.19287 -1.72516,-3.83968 0.0976,-2.62576 0.0409,-5.25566 0.0766,-7.88308 4.00885,0.21192 8.11885,-0.45789 12.05299,0.4053 0.82989,0.70051 1.35266,1.70785 1.15338,3.43471 0.50977,2.37053 -1.59802,4.42766 -3.95927,3.87792 -2.69055,-0.26799 -2.34772,0.66323 -0.22502,1.51803 1.03996,1.13309 3.28331,1.41007 3.85743,2.65184 z m -6.39799,-6.07375 c 1.60594,-0.16413 4.72131,0.81778 4.54005,-1.7561 0.30586,-2.16478 -1.88851,-1.95241 -3.4768,-1.87631 -1.45656,0.46767 -4.93203,-1.08357 -4.77836,0.99433 -0.76907,2.75325 0.99834,2.97002 3.31445,2.63808 h 0.33144 z m 20.28645,6.02904 c -1.65735,-0.34753 -4.54802,0.78093 -5.46439,-0.51377 -0.39351,-2.80223 3.08822,-1.25718 4.81654,-1.67913 1.60352,-0.41389 4.48763,0.85882 5.21037,-0.91652 0.58334,-2.48925 -2.4446,-1.64795 -3.91834,-1.7638 -1.93569,-0.10426 -5.54862,0.69855 -5.75415,-2.06518 -0.60142,-2.27441 0.5999,-5.46916 3.41878,-4.86941 1.95734,-0.51107 4.46797,0.29647 2.95031,2.14642 -1.6545,0.0203 -4.74727,-0.60387 -4.11652,2.06387 1.21177,1.32206 3.62741,0.21885 5.31722,0.57788 1.93774,-0.32315 4.69751,0.3407 4.44642,2.80165 0.11794,1.50454 -0.15233,3.65349 -1.71748,3.98622 -1.45144,0.43849 -3.51291,0.0953 -5.18876,0.23177 z m 15.71217,-0.004 c -2.40542,-0.14869 -6.1348,0.88771 -7.19202,-2.05612 0.0292,-3.22188 0.0584,-6.44375 0.0876,-9.66563 2.88009,-0.95882 2.7531,1.18708 2.53913,3.42278 0.37077,1.98599 -1.15563,4.63826 0.76302,6.06007 2.00973,-0.15693 4.29573,0.32793 6.13236,-0.23112 1.66404,-1.41512 0.532,-3.95331 0.88081,-5.8967 -0.29526,-2.03607 -0.1066,-4.24566 2.52402,-3.43852 0.30189,2.56875 -0.11336,5.83468 -0.0839,8.66824 -0.26687,1.52074 -0.69687,2.38722 -2.28717,3.05794 -1.10308,0.0885 -2.24688,0.0423 -3.36388,0.0791 z m 8.82859,0.0437 c -2.5496,0.57718 -0.89548,-2.92907 -1.22169,-4.33961 0.0914,-2.43413 0.034,-4.87215 0.0658,-7.30784 3.62957,-0.38742 7.46719,-0.21253 11.12795,-0.0882 2.98783,0.56366 2.23249,4.10738 2.07822,6.33471 -1.27387,3.08814 -4.95784,1.65135 -7.67198,1.97269 -2.34963,-0.48344 -3.66537,0.1571 -3.24656,2.68325 0.20335,1.06161 -0.42802,0.62059 -1.13178,0.74502 z m 5.17488,-5.60642 c 1.72871,-0.20013 5.0225,0.83108 4.39194,-2.03684 0.52426,-2.38712 -1.70541,-2.10135 -3.46766,-2.05824 -1.53971,0.40391 -4.95151,-1.11212 -4.72744,1.4066 -0.83906,2.77731 0.82213,3.10142 3.227,2.69587 l 0.33142,-0.004 z m -96.741574,5.48128 c -2.613351,0.3384 0.07868,-1.90621 0.469307,-3.17878 1.234682,-1.97396 2.451192,-4.0561 3.527853,-5.8192 0.910069,-1.21335 0.997596,-2.48093 2.749035,-3.05491 2.145068,-0.22805 2.581946,2.20148 3.498295,3.38532 0.886849,1.44362 1.149621,1.91125 1.90455,3.32183 0.844156,1.25429 2.070438,3.50693 2.97197,5.1365 -1.30856,0.70097 -3.248998,0.15621 -3.79751,-1.27665 -0.33643,-2.07011 -3.170177,-0.81896 -4.672004,-1.1525 -1.816366,-0.006 -4.054693,-0.53058 -4.654759,1.7575 -0.262308,1.03552 -1.018814,0.91806 -1.996737,0.88089 z m 6.9481,-4.78817 c 2.90866,0.67083 2.740976,-0.79023 1.10076,-2.60215 -0.329264,-1.23407 -1.396793,-2.51722 -2.09139,-0.28727 -0.143836,0.98421 -2.779162,3.22315 -0.574086,2.88948 0.521572,-2e-5 1.043144,-4e-5 1.564716,-6e-5 z m 12.36454,4.78817 c -2.445035,0.3848 -0.735434,-3.3482 -1.213219,-4.91321 -0.451032,-1.51749 1.230689,-5.18767 -1.332129,-4.66313 -1.916875,0.473 -4.500833,-0.23255 -2.883217,-2.06387 3.850638,0 7.701277,0 11.551915,0 0.926157,2.68561 -1.841969,2.05672 -3.572108,2.06387 -2.271261,-0.0747 -0.816189,3.2562 -1.2538,4.71777 -0.485475,1.47753 1.042021,4.98463 -1.034026,4.85857 z m 14.42446,-0.0114 c -2.329716,-0.27468 -5.862549,0.98578 -6.932783,-1.87317 -0.643575,-2.55048 -0.115945,-5.31796 0.07836,-7.92778 1.237079,-2.67056 4.551654,-1.74945 6.8957,-1.91032 0.855064,2.72835 -1.571921,2.17465 -3.473443,2.14642 -1.141019,0.1439 -2.050679,3.37466 0.176141,2.64168 2.750194,0 5.500388,0 8.250582,0 0.884069,2.81484 -1.722522,2.13902 -3.64589,2.14642 -1.976823,0 -3.953647,0 -5.93047,0 -0.805905,2.66412 1.763852,2.96669 3.747281,2.64175 1.943026,0 3.886053,0 5.829079,0 0.884067,2.81686 -1.722517,2.13508 -3.645881,2.13808 -0.449559,-0.001 -0.899119,-0.002 -1.348679,-0.003 z"
       style="fill:#ffffff;fill-opacity:1"
       id="path1-9" /><path
       d="m 108.75045,140.51258 c -1.25087,-0.63676 -1.97554,-2.21629 -3.01737,-3.21161 -0.77297,-1.58825 -0.99177,0.36265 -0.902,1.34748 0.6185,1.28116 -1.14836,2.54408 -1.07611,0.81663 -0.0259,-1.72433 -0.0519,-3.44867 -0.0778,-5.173 0.89359,-0.74316 1.75505,0.3051 2.17105,0.97849 1.03204,1.20025 1.90235,2.4372 2.91605,3.60648 1.40683,-1.56376 2.60232,-3.40757 4.08436,-4.79278 1.59687,-0.35474 0.95951,1.52555 1.04748,2.46038 -0.0189,1.24006 -0.0379,2.48011 -0.0568,3.72017 -1.72541,0.5316 -1.07593,-1.41771 -1.26449,-2.49146 0.32621,-2.08896 -0.83655,-0.57125 -1.50055,0.34121 -0.77343,0.7929 -1.26847,2.00696 -2.32383,2.39801 z m 51.3538,-0.13139 c -1.46274,0.34392 -0.50811,-1.82392 -0.77804,-2.64587 0.46655,-1.6199 -1.45795,-1.1228 -2.4362,-1.18533 -0.77329,1.00711 -0.33848,2.5067 -0.61832,3.71496 -1.7339,0.53163 -1.02062,-1.38383 -1.1557,-2.45098 -0.26736,-1.23756 0.58611,-2.57065 1.92072,-2.41851 1.07588,-0.0448 2.15866,-0.11419 2.99796,0.68355 0.73173,-1.0291 2.31561,-0.57817 3.42989,-0.68479 1.53784,0.15149 1.35068,1.79397 1.22581,2.95344 -0.0599,1.13048 0.17123,2.25258 -1.23642,2.20028 0,-1.21871 0,-2.43741 0,-3.65612 -0.8398,-0.52462 -2.55122,-0.64321 -2.97197,0.37219 -0.2566,0.86686 0.50775,2.80138 -0.37773,3.11718 z m 25.00011,0.11836 c -1.3037,0.0117 -0.43672,-1.77499 -0.6815,-2.60608 -0.30866,-1.48357 1.0171,-2.70034 2.46539,-2.49929 1.43102,0.16916 3.62263,-0.62482 4.21613,1.19436 0.20385,1.13794 0.0292,2.37678 0.088,3.55338 -1.26999,0.99823 -1.69791,-0.34063 -1.4488,-1.51107 0.14882,-1.28955 0.0293,-2.34206 -1.53306,-2.11988 -1.04024,0.0688 -2.7443,-0.14635 -2.35618,1.44904 -0.24556,0.74399 0.30502,2.44244 -0.74995,2.53954 z m 8.26452,-0.064 c -1.35835,0.1192 -0.41559,-1.95456 -0.69054,-2.81373 0.56037,-1.19317 -1.47641,-1.17861 -0.30546,-2.23824 0.43198,-0.49274 1.16865,-2.13232 1.93049,-0.83121 -0.41353,1.37902 2.20586,0.29641 1.51375,1.73626 -0.97434,0.25847 -2.05368,0.10578 -1.66294,1.64428 -0.14975,0.70408 0.31075,2.681 -0.7853,2.50264 z m 5.90029,-0.0244 c -1.31097,0.2776 -3.13694,-0.4022 -2.79156,-2.00009 0.16548,-1.11044 -0.19694,-2.58543 1.22249,-2.91109 1.88404,0.11772 3.94733,-0.63702 5.62745,0.47322 -0.11164,0.82142 0.65778,2.69518 -0.81172,2.41806 -1.46154,0.0981 -3.12654,-0.24192 -4.46685,0.11716 -0.81106,1.2847 1.45223,0.74571 2.18873,0.84839 0.5086,0.78335 -0.21845,1.20886 -0.96854,1.05435 z m 0.65608,-2.87052 c 1.05901,0.27199 2.86377,-0.12723 1.5988,-1.15538 -1.10745,0.13927 -2.37984,-0.28607 -3.37093,0.25154 -0.77612,1.58964 0.82313,0.66106 1.77213,0.90384 z m -82.28917,2.79014 c -1.28763,0.22602 -2.95736,-0.51795 -2.5505,-2.05639 0.024,-1.0287 -0.33253,-2.50365 1.04961,-2.75676 1.49427,-0.28682 3.10114,-0.0405 4.63881,-0.12181 1.16153,0.48013 1.11264,1.68824 0.95307,2.74588 -0.74667,0.53956 -2.20716,0.0662 -3.22258,0.22445 -1.10745,-0.5152 -3.00925,0.63071 -1.34171,0.99066 1.09201,-0.53749 2.837,0.77739 1.06404,0.98091 -0.19691,-0.002 -0.39383,-0.005 -0.59074,-0.007 z m 0.82555,-2.79014 c 1.06344,0.3058 2.73697,-0.16927 1.49835,-1.15538 -1.10503,0.13847 -2.37441,-0.28365 -3.3641,0.24823 -0.54117,1.50602 1.02899,0.71589 1.86575,0.90715 z m 8.03295,2.7475 c -1.15061,0.06 -2.31697,0.20241 -3.32733,-0.47127 -0.36493,-0.70198 -0.3791,-1.75472 -0.33022,-2.87051 0.12766,-1.48947 2.06141,-1.69576 3.27236,-1.55213 1.15935,0.007 2.65695,0.37834 2.25157,-1.29698 1.11449,-1.08829 1.73746,0.5563 1.41072,1.61631 0.002,1.32654 0.0632,2.84551 -0.51566,4.01006 -0.72865,0.81869 -1.79001,0.43135 -2.76144,0.56452 z m -0.092,-0.94247 c 1.13756,0.33331 2.30356,-0.39206 1.85021,-1.66215 0.44381,-1.69575 -1.56011,-0.89542 -2.55873,-1.12024 -1.54626,-0.47675 -1.46125,1.14827 -1.37095,2.18511 0.1335,0.77083 1.4987,0.5627 2.07947,0.59728 z m 5.07823,1.00183 c -1.16102,0.0155 -0.32864,-1.95343 -0.55591,-2.80686 -0.0953,-0.9356 -0.1406,-2.70925 1.18368,-1.94293 0.37138,1.50766 -0.026,3.18365 -0.0736,4.74976 -0.18473,10e-6 -0.36945,2e-5 -0.55418,3e-5 z m 5.47821,-0.0522 c -1.23691,0.041 -3.13968,0.31481 -3.55458,-1.18894 0.0898,-1.25007 -0.39181,-3.02753 1.09083,-3.56434 1.30433,-0.29611 2.83725,-0.14444 4.19303,-0.0767 1.79348,0.42828 1.82814,2.82791 1.09706,4.15385 -0.77346,0.90497 -1.76353,0.60151 -2.82634,0.67615 z m -0.25839,-0.93847 c 1.13338,0.27417 2.42235,-0.34658 1.98691,-1.66882 0.26028,-1.48269 -1.71618,-1.09451 -2.67154,-1.13804 -1.27453,-0.26705 -1.60325,1.44984 -1.14477,2.26987 0.48231,0.71449 1.06943,0.52684 1.8294,0.53699 z m 8.77042,0.99065 c -1.45262,-0.0261 0.40901,-1.58765 0.60661,-2.28574 0.48044,-0.5652 0.73554,-1.25863 1.39867,-2.06331 0.85067,-0.59628 0.82175,-2.08305 2.10846,-1.95133 1.15764,-0.053 1.36023,1.17194 1.77492,1.70481 0.75367,0.84677 1.12046,1.70004 1.5802,2.46123 0.48792,0.87436 1.13075,1.41712 1.26794,2.08651 -0.99489,0.26461 -1.94909,-0.0162 -2.26421,-1.05524 -0.95592,-0.50744 -2.35128,-0.076 -3.47825,-0.21794 -1.36606,-0.50444 -1.72657,0.86026 -2.53903,1.32087 -0.15177,5e-5 -0.30354,9e-5 -0.45531,1.4e-4 z m 3.94861,-2.47664 c 1.90702,0.48849 1.46686,-0.75075 0.57814,-1.83055 -0.77929,-1.27884 -1.35277,1.1957 -2.06413,1.6515 0.0102,0.41178 1.14337,0.0632 1.48599,0.17905 z m 20.00891,2.4371 c -1.24186,0.036 -3.2525,0.37743 -3.49652,-1.29449 0.12551,-1.72387 -0.22179,-3.51403 0.26118,-5.1878 1.88265,-0.73985 0.54163,2.07442 2.30491,1.52902 1.39525,0.27186 3.5395,-0.4987 4.20203,1.1736 -0.15289,1.22394 0.4994,2.79145 -0.79466,3.52848 -0.60694,0.47196 -1.71825,0.11193 -2.47694,0.25119 z m -0.16377,-0.95111 c 1.27501,0.34321 2.35822,-0.34725 1.94931,-1.73905 0.41473,-1.55901 -1.56361,-0.95744 -2.47151,-1.06781 -1.45057,-0.47176 -1.74795,1.01047 -1.39462,2.10174 0.13292,1.01505 1.19314,0.64012 1.91682,0.70512 z m 5.41071,0.95723 c -1.51674,0.2204 -0.53618,-2.04462 -0.80207,-2.96886 -0.27621,-1.0938 0.62996,-2.36847 1.47469,-1.60644 -0.0293,1.50873 -0.0586,3.01745 -0.0879,4.52617 -0.1949,0.0164 -0.3898,0.0328 -0.5847,0.0491 z m 4.41283,0.0109 c -1.1287,0.16097 -2.76183,-0.17342 -2.59072,-1.61259 -0.10179,-1.25683 -0.0967,-2.9792 1.46265,-3.24387 1.50381,-0.19651 3.08563,0.006 4.61828,-0.0424 1.0133,0.51291 1.08863,2.23532 0.57127,2.86378 -1.73276,0.13025 -3.59502,-0.0378 -5.25062,0.27031 -0.43258,1.58321 2.1341,0.17735 2.47806,1.12545 0.4192,0.94896 -0.78824,0.59136 -1.28892,0.63935 z m 0.97679,-2.78438 c 1.03038,0.35136 2.82545,-0.26739 1.43323,-1.12718 -1.03957,0.1058 -2.38427,-0.35009 -3.2553,0.23088 -1.01096,1.23198 1.19138,0.84693 1.82207,0.8963 z m -5.37991,-2.31153 c -1.2721,-0.31913 -0.20866,-2.2188 0.59976,-1.23111 0.60942,0.45011 -0.18803,1.10724 -0.59976,1.23111 z m -43.01327,-0.17814 c -1.23749,0.21476 -0.88596,-1.75933 0.25476,-1.30784 0.63769,0.29312 0.50436,1.38378 -0.25476,1.30784 z"
       style="fill:#53c324;fill-opacity:1"
       id="path1-4" /><path
       d="m 58.156473,142.26287 c -0.554603,-0.16631 -1.6782,0.39683 -1.731292,-0.41241 -0.383048,-0.84042 0.430695,-1.06567 1.106233,-0.90847 0.712194,-0.0515 1.471,0.1486 2.128063,-0.20044 0.302937,-0.98164 -0.544134,-0.81328 -1.245909,-0.79021 -1.354564,-0.063 -2.746458,0.1286 -4.077115,-0.0975 -0.650639,-0.12038 -1.218814,-0.3513 -1.459866,-1.02074 0.03199,-0.97164 0.06397,-1.94327 0.09596,-2.91491 0.610413,-0.38705 1.158746,-0.98362 1.948506,-0.7653 1.844179,0.031 3.688358,0.0619 5.532537,0.0929 0.431351,0.54693 1.247652,0.93956 1.022093,1.74979 -0.0436,1.37004 0.08698,2.79502 -0.06498,4.13089 -0.348889,0.7394 -1.198924,1.07514 -1.966235,1.13646 -0.429332,-1e-5 -0.858663,-2e-5 -1.287995,-3e-5 z m -0.684697,-3.48034 c 0.729233,0.004 1.458467,0.009 2.1877,0.013 -0.06433,-0.65847 0.1263,-1.44964 -0.09277,-2.02757 -0.752067,-0.76985 -1.882473,-0.34007 -2.842956,-0.44907 -0.662911,0.0915 -1.517918,-0.28067 -1.932537,0.41031 -0.430112,0.40275 -0.323036,1.28596 -0.06092,1.76427 0.742247,0.54278 1.863601,0.17009 2.741483,0.28906 z m 35.803261,3.48034 c -0.579805,-0.13389 -1.70609,0.2787 -1.91455,-0.22653 -0.191052,-0.79796 0.157523,-1.1732 0.978705,-0.9477 0.809394,0.0769 1.607441,0.0906 2.323485,-0.35179 0.30295,-0.98008 -0.547835,-0.80642 -1.245909,-0.78548 -1.404254,-0.0542 -2.848386,0.10869 -4.227841,-0.0805 -0.671159,-0.13353 -1.194127,-0.7018 -1.4641,-1.27105 0.02863,-1.11802 0.05727,-2.23604 0.0859,-3.35406 0.522593,0.13856 1.752466,-0.47205 1.73364,0.23999 0,0.99595 0,1.99189 0,2.98783 1.167697,0.59169 2.512561,0.21887 3.769991,0.32205 0.703405,-0.007 1.656932,0.24321 1.358182,-0.79257 0.02429,-0.9191 0.04857,-1.83819 0.07286,-2.75728 0.522593,0.13856 1.752466,-0.47205 1.73364,0.23999 0,1.87381 0,3.74761 0,5.62141 -0.482119,0.0131 -0.378868,0.86568 -1.086543,1.0114 -0.576508,0.32864 -1.45536,0.0542 -2.117457,0.1443 z m -40.921654,-1.68164 c -0.644449,-0.14194 -1.42713,0.0129 -1.994718,-0.24416 -0.480201,-0.58298 -0.823466,-1.62857 -1.757084,-1.37643 -1.626448,0 -3.252895,0 -4.879343,0 -0.4213,0.48829 -0.759727,1.1865 -1.303586,1.48598 -0.597312,-0.0808 -1.520759,0.16262 -1.911107,-0.12383 0.344533,-0.66676 1.074134,-1.17697 1.465188,-1.86586 0.30988,-0.56682 0.972122,-0.94626 1.083289,-1.56077 0.923447,-1.03721 1.661044,-2.22171 2.651707,-3.2001 0.743202,0.0135 1.674369,-0.30847 2.174582,0.42115 0.571443,0.57888 0.935768,1.34016 1.54038,1.89507 0.01756,0.59406 0.742108,0.92364 0.981525,1.4707 0.358634,0.5689 0.935594,1.01193 1.152796,1.60322 0.294885,0.45034 1.323383,1.06454 0.890712,1.50898 z m -5.808981,-2.77632 c 0.469253,-0.16509 1.884622,0.36216 1.641982,-0.32387 0.01028,-0.58122 -0.801122,-0.75727 -0.745006,-1.31221 -0.417633,-0.37625 -0.973703,-1.32953 -1.398076,-0.42132 -0.446126,0.38498 -0.631447,1.14221 -1.119842,1.39571 -0.593804,0.67463 0.513635,0.77273 1.122077,0.66162 0.166289,2e-5 0.332577,5e-5 0.498865,7e-5 z m 31.076674,2.69301 c -1.530252,-0.0134 -3.15022,0.20144 -4.612843,-0.21779 -0.760579,-0.44372 -0.38295,-1.3589 -0.470222,-2.08151 -0.07989,-0.82222 0.972804,-0.50058 1.175255,-1.05405 1.974817,0 3.949634,0 5.924451,0 0.173263,-0.84243 -0.655596,-0.91547 -1.275789,-0.8509 -0.638614,-0.10062 -1.523775,0.22421 -1.748678,-0.59031 0.06347,-0.9314 1.065335,-0.44628 1.692847,-0.52624 0.719435,0.0776 1.534144,-0.0542 2.193638,0.1552 0.422314,0.52593 1.171098,0.92308 0.954242,1.70111 -0.06774,1.06889 0.309107,2.36982 -0.676878,3.12517 -0.509799,0.57942 -1.421001,0.18562 -2.113839,0.32125 -0.347394,0.006 -0.694789,0.012 -1.042184,0.0181 z m -0.804764,-0.8768 c 0.769117,0 1.538235,0 2.307352,0 0.36324,-0.32881 0.938487,-1.52302 0.174312,-1.48843 -1.620403,0.0284 -3.240805,0.0567 -4.861207,0.0851 -0.03633,0.45916 -0.333762,1.49649 0.411993,1.40342 0.65585,-2e-5 1.3117,-3e-5 1.96755,-5e-5 z m -9.757335,0.81251 c -1.104734,-0.10396 -2.28849,0.20305 -3.335558,-0.2008 -0.483156,-0.45344 -1.044491,-0.8743 -0.829429,-1.61876 -0.005,-1.12277 -0.0099,-2.24553 -0.01489,-3.36829 0.591624,0.0508 1.507774,-0.23602 1.908073,0.0139 -0.01463,1.181 -0.02925,2.36201 -0.04388,3.54302 0.365383,0.79787 1.295783,0.39257 1.990917,0.48826 0.802039,-0.0541 1.694232,0.10945 2.440167,-0.0801 0.717171,-0.4969 0.266255,-1.47763 0.391651,-2.21965 0.148056,-0.53679 -0.299349,-1.66903 0.226529,-1.828 0.470617,0.17254 1.666042,-0.37973 1.589675,0.33979 0,1.26265 0,2.5253 0,3.78795 -0.502,-0.0171 -0.477543,0.94612 -1.206904,1.01802 -0.887694,0.30953 -1.917862,0.0453 -2.862428,0.12585 -0.08464,-3.9e-4 -0.169281,-7.7e-4 -0.253922,-0.001 z"
       style="fill:#ffffff;fill-opacity:1"
       id="path1-5" /><path
       d="m 21.957792,147.16981 c -4.754766,0 -9.509533,0 -14.2642995,0 -0.3630209,-0.69838 -0.1440478,-1.50489 -0.2042491,-2.25954 -0.00464,-4.76659 -0.00928,-9.53317 -0.013915,-14.29976 0.2559158,-0.44244 0.7221853,-0.0828 1.1051401,-0.0409 0.7466071,0.2259 1.5687715,0.2679 2.2102525,0.74967 0.563613,-0.1653 0.593907,0.20272 0.864726,0.33021 0.569482,0.007 1.029958,0.46438 1.552778,0.66419 0.331305,0.21525 0.821886,0.33332 1.054275,0.60892 -0.05382,0.38129 0.594862,0.14589 0.781239,0.50449 0.482208,0.34385 1.040348,0.62309 1.47479,1.00757 0.07546,0.44611 0.752394,-0.0765 0.833517,0.40857 0.349805,0.18992 0.734304,0.0312 0.89631,0.43511 0.706083,0.30389 1.412168,0.60778 2.118254,0.91166 -0.07535,0.44993 0.605306,0.12233 0.833346,0.45998 0.586596,0.25171 1.117697,0.73544 1.793715,0.61324 0.11158,0.54205 0.709871,0.21112 1.025671,0.38687 0.165645,0.43095 0.732471,0.24228 1.097821,0.36479 1.203631,0.14765 2.386234,0.49603 3.595056,0.56656 1.218844,-0.0306 2.448067,0.0407 3.660382,-0.054 1.116593,-0.22081 2.228606,-0.46641 3.353977,-0.63969 -0.19008,-0.61966 0.55872,-0.0107 0.495329,0.27638 0,3.00196 0,6.00392 0,9.00588 -4.754705,-6e-5 -9.50941,-1.3e-4 -14.264115,-1.9e-4 z"
       style="fill:#0350bc;fill-opacity:1"
       id="path1" /></g></svg>
