<?xml version="1.0" encoding="UTF-8" standalone="no"?>
<!-- Created with Inkscape (http://www.inkscape.org/) -->

<svg
   width="502.92407"
   height="138.1875"
   viewBox="0 0 133.06528 36.56211"
   version="1.1"
   id="svg1"
   xml:space="preserve"
   xmlns:xlink="http://www.w3.org/1999/xlink"
   xmlns="http://www.w3.org/2000/svg"
   xmlns:svg="http://www.w3.org/2000/svg"><defs
     id="defs1"><linearGradient
       id="linearGradient43"><stop
         style="stop-color:#37abc8;stop-opacity:1;"
         offset="0"
         id="stop43" /><stop
         style="stop-color:#37abc8;stop-opacity:0;"
         offset="1"
         id="stop44" /></linearGradient><linearGradient
       xlink:href="#linearGradient43"
       id="linearGradient168"
       gradientUnits="userSpaceOnUse"
       gradientTransform="matrix(0.96869245,0,0,1,3.532277,-130.04126)"
       x1="90.07209"
       y1="347.0498"
       x2="88.299118"
       y2="245.47621" /></defs><g
     id="layer1"
     transform="translate(-25.15693,-341.16608)"><g
       id="g168"
       transform="translate(-3.367596,101.77623)"><text
         xml:space="preserve"
         style="font-weight:bold;font-size:40.4196px;line-height:1.25;font-family:'Tw Cen MT';-inkscape-font-specification:'Tw Cen MT, Bold';text-align:end;text-anchor:end;fill:#006680;stroke-width:0.483337"
         x="162.67534"
         y="269.0766"
         id="text167"><tspan
           id="tspan167"
           style="fill:#006680;stroke-width:0.483337"
           x="162.67534"
           y="269.0766">MUT</tspan></text><g
         id="g167"
         transform="matrix(0.46275424,0,0,0.46275424,33.297538,182.85872)"
         style="display:inline"><path
           id="path140"
           style="fill:url(#linearGradient168);stroke:none;stroke-width:0.162397;paint-order:markers fill stroke"
           d="m 139.13004,166.22171 c 0,7.31054 -1.98838,14.20523 -5.50731,20.27409 -19.06779,5.05769 -24.14615,5.74702 -42.972088,3.01845 -19.396051,-2.8112 -37.504523,10.34908 -45.33821,-4.6839 -0.304986,-0.58527 -0.596031,-1.17754 -0.872753,-1.77647 -2.396101,-5.186 -3.718284,-10.87082 -3.718284,-16.83217 -2e-6,-24.33332 22.029526,-44.05938 49.204321,-44.05938 27.174794,0 49.204324,19.72606 49.204324,44.05938 z" /><g
           id="g142"
           transform="translate(2.3303474,-130.04126)"
           style="stroke:#782121"><path
             style="fill:#ffffff;stroke:none;stroke-width:0.254531px;stroke-linecap:butt;stroke-linejoin:miter;stroke-opacity:1"
             d="m 113.0152,286.89872 c 0,0 -3.76486,-1.5283 -3.75531,2.84001 0.003,1.36975 0.25896,2.67071 0.65103,3.56384 0.86713,1.97531 1.23151,2.54852 2.36094,3.28546 1.3028,0.85004 12.35002,7.34229 23.49264,-0.96844 5.16402,-4.2002 9.10977,-12.11091 1.97234,-23.99345 0.5196,8.1348 -0.0961,15.01574 -7.95866,19.46845 -6.73718,3.81536 -11.75942,-0.3584 -11.75942,-0.3584 z"
             id="path141" /><path
             style="display:none;fill:#e6e6e6;stroke:#782121;stroke-width:0.264583px;stroke-linecap:butt;stroke-linejoin:miter;stroke-opacity:1"
             d="m 109.45071,289.32182 c 0.10102,2.73983 0.57237,4.2913 1.2874,5.5952 7.22706,3.16116 14.24029,5.31355 20.94487,1.58448 11.7611,-7.16312 9.55897,-14.55895 6.38745,-24.36141 2.18168,11.56328 3.05314,16.45205 -7.5263,22.33129 -6.51815,3.62229 -13.92023,-0.88659 -21.09342,-5.14956 z"
             id="path142" /></g><path
           id="path143"
           style="fill:#ff0000;stroke:none;stroke-width:0.264583px;stroke-linecap:butt;stroke-linejoin:miter;stroke-opacity:1"
           d="m 105.19142,127.32953 -7.75815,5.99172 -3.547479,-2.28278 c 0.08818,1.53687 0.191323,3.0725 -0.752007,4.69533 l -7.218018,-2.53493 c 1.849822,1.81848 3.544504,3.68868 3.831237,6.02819 0,0 -11.376063,-0.59413 -30.19179,13.66621 -11.775843,15.10064 -5.081509,33.27873 -5.081509,33.27873 1.594094,0.2555 3.999406,0.41888 5.620329,0.22634 l 0.735872,-5.57899 c 0,0 3.96153,0.39648 6.140194,-1.98024 2.178661,-2.37673 2.581855,-3.88564 2.57452,-3.76307 -0.0075,0.12565 -0.0204,0.24723 -0.03876,0.36586 -0.276235,1.78509 -1.722681,2.80443 -2.623096,3.90778 l -1.915645,3.89433 c 1.583108,0.79034 4.361748,2.86099 5.944856,2.8267 -0.08451,-3.06639 1.601011,-4.36281 2.401404,-6.5443 5.17799,-1.08128 6.24847,-5.05389 6.482809,-5.58157 0.292164,-0.045 3.167946,-0.61293 4.501534,-1.11776 4.351782,3.28573 -2.319755,11.17399 -2.319755,11.17399 0.522136,0.72149 3.986371,2.3503 6.330879,2.37143 0.221811,-1.44117 0.09719,-2.03793 0.345199,-2.46858 0.804527,-1.39699 2.53047,-1.82071 3.58376,-6.43785 l 0.08062,1.3901 c 0.07559,1.30392 2.58262,3.931 1.18494,7.64242 0.842151,0.088 6.259458,0.13473 7.301876,0.0403 -0.850499,-1.2897 -1.337715,-1.90514 -1.28984,-2.59054 0.222409,-3.18412 -0.427365,-10.02893 -1.006979,-15.64528 -0.01627,-0.15765 1.277136,-2.27877 1.260997,-2.43438 -0.09948,-0.9592 -1.38876,-0.19372 -1.477574,-1.04581 5.154196,2.94313 9.973416,3.93853 13.266186,4.9853 -0.8989,4.02715 -2.48342,6.84853 -6.1681,6.51123 -2.74368,-0.25116 -3.01844,-1.90759 -2.46233,-3.94916 0.0653,-0.23952 0.13054,-0.46374 0.22634,-0.68368 0.15771,-0.36204 0.36173,-0.7762 0.56999,-1.0387 -2.17641,0.0975 -3.8747,-1.37097 -3.8747,-1.37097 0,0 -2.24795,9.20441 2.26859,11.4179 0.77704,0.40043 2.03299,1.09954 3.03238,0.98754 l 0.009,-1.2144 0.87333,1.09399 c 1.18816,-0.19111 2.30745,-0.49033 3.35845,-0.87901 l -0.3452,-1.66812 1.01027,1.40664 c 1.26589,-0.52759 2.42704,-1.18551 3.48506,-1.93632 l -0.67903,-1.36064 1.02992,1.10536 c 1.10154,-0.82076 2.08617,-1.7419 2.95537,-2.71922 l -0.97462,-1.23971 1.38545,0.76326 c 0.75943,-0.90736 1.42301,-1.85529 1.99161,-2.80965 l -0.83819,-0.80719 1.16427,0.2403 c 0.72401,-1.30268 1.27234,-2.60455 1.64744,-3.81992 4.11158,-13.32218 -4.90201,-22.02377 -9.14156,-25.24962 0.12791,-0.77748 3.05526,-1.46969 4.28947,-1.35649 -3.21703,-2.26859 -5.45769,-3.4008 -5.45769,-3.4008 2.07881,-1.07026 6.66108,-1.16851 7.22838,-1.22689 l -9.97942,-2.00216 c 2.30179,-1.98401 6.29071,-3.55152 7.76479,-4.20941 l -12.82,2.6969 c 0.14497,-2.1398 1.07064,-3.96732 2.08412,-5.75971 z" /><path
           style="fill:#ffffff;stroke:none;stroke-width:0.264583px;stroke-linecap:butt;stroke-linejoin:miter;stroke-opacity:1"
           d="m 99.819576,144.24769 0.665234,1.26045 c 0,0 -0.637793,1.3989 -2.800992,0.29761 -1.138309,-0.57952 -1.29361,-1.58017 -2.45087,-2.95856 z"
           id="path144" /><g
           id="g145"
           style="stroke:#501616"
           transform="translate(2.3303473,-130.04126)"><path
             style="fill:#ffffff;stroke:none;stroke-width:0.264583px;stroke-linecap:butt;stroke-linejoin:miter;stroke-opacity:1"
             d="m 98.364541,286.15817 c 0,0 -3.819354,-1.8034 -4.061443,2.73098 -0.07591,1.42183 0.1147,2.78684 0.470102,3.73644 0.786025,2.10018 1.131148,2.71613 2.260868,3.54614 1.303119,0.95741 12.394402,8.33296 24.438682,0.35013 5.60199,-4.06145 10.15361,-12.04428 3.43122,-24.78881 0.07,8.47301 -0.96594,15.57916 -9.38334,19.74701 -7.21256,3.57127 -12.18432,-1.05037 -12.18432,-1.05037 z"
             id="path145" /></g><path
           style="font-variation-settings:normal;opacity:1;vector-effect:none;fill:#000000;fill-opacity:0.191453;stroke:none;stroke-width:0.264583px;stroke-linecap:butt;stroke-linejoin:miter;stroke-miterlimit:4;stroke-dasharray:none;stroke-dashoffset:0;stroke-opacity:1;-inkscape-stroke:none;stop-color:#000000;stop-opacity:1"
           d="m 95.208887,142.82782 5.013723,0.8051 0.27594,1.89318 -0.700552,-1.27047 z"
           id="path146" /><path
           style="fill:#000000;fill-opacity:0.191453;stroke:none;stroke-width:0.264583px;stroke-linecap:butt;stroke-linejoin:miter;stroke-opacity:1"
           d="m 85.274539,140.75239 c -1.980602,0.59418 -7.411299,6.79309 -7.411299,6.79309 l 2.970903,8.91272 6.932109,3.16896 2.772844,-2.37672 -3.565083,0.39612 -3.961207,-2.77285 -0.792241,-7.72435 7.92241,-7.13017 c -1.615586,0.23862 -2.827303,0.15414 -4.868436,0.7332 z"
           id="path147" /><path
           style="fill:#000000;fill-opacity:0.191453;stroke:none;stroke-width:0.264583px;stroke-linecap:butt;stroke-linejoin:miter;stroke-opacity:1"
           d="m 98.185619,165.09186 c 0.361939,-0.20682 -1.108032,4.22058 -3.95654,5.82329 -1.570806,0.88381 -1.902166,6.6994 -1.902166,6.6994 l 2.135759,-5.56698 c 1.781504,-0.92086 2.991471,-2.30069 4.038325,-3.71132 l 0.97373,-1.92811 c -0.618937,-0.48719 -1.044124,-0.89142 -1.289108,-1.31628 z"
           id="path148" /><path
           style="fill:#000000;fill-opacity:0.191453;stroke:none;stroke-width:0.264583px;stroke-linecap:butt;stroke-linejoin:miter;stroke-opacity:1"
           d="m 66.802843,179.01504 c 0.153473,0.0505 -1.955107,4.19378 -1.818159,4.27177 0.845523,0.4815 0.964487,0.59356 1.279788,0.6039 0.737039,-2.71335 3.695813,-7.67114 3.558607,-9.45063 2.738525,1.5257 7.198263,0.91811 9.972482,-0.49666 -3.77204,0.72413 -6.7172,2.03421 -11.032021,-1.93086 0.843684,0.9316 0.860275,4.12608 -1.960697,7.00248 z"
           id="path149" /><path
           style="fill:#000000;fill-opacity:0.191453;stroke:none;stroke-width:0.263371px;stroke-linecap:butt;stroke-linejoin:miter;stroke-opacity:1"
           d="m 99.839926,169.3229 0.446484,0.75373 c 1.13685,1.18975 2.25984,1.26829 3.27421,0.68818 -1.25613,0.25326 -2.83847,-0.35309 -3.720694,-1.44191 z"
           id="path150" /><path
           style="fill:#000000;fill-opacity:0.191453;stroke:none;stroke-width:0.264583px;stroke-linecap:butt;stroke-linejoin:miter;stroke-opacity:1"
           d="m 99.839926,169.65362 c 0.660824,2.6905 2.755404,2.11815 3.621484,1.28984 -1.30575,0.91705 -3.05346,-0.0752 -3.621484,-1.28984 z"
           id="path151" /><path
           style="fill:#000000;fill-opacity:0.191453;stroke:none;stroke-width:0.264583px;stroke-linecap:butt;stroke-linejoin:miter;stroke-opacity:1"
           d="m 102.93224,172.15063 c -2.3e-4,5.8e-4 -2.02816,2.33492 0.3142,3.98529 2.25494,1.58877 4.10104,0.0992 4.10104,0.0992 -5.17032,0.67733 -4.9023,-2.00927 -4.41524,-4.08451 z"
           id="path152" /><path
           style="fill:#000000;fill-opacity:0.191453;stroke:none;stroke-width:0.264583px;stroke-linecap:butt;stroke-linejoin:miter;stroke-opacity:1"
           d="m 111.49814,170.24894 c 3.38974,0.0211 5.36765,-0.30514 9.64075,-2.09186 l -0.4834,1.26503 c -4.63152,2.93317 -7.53574,1.5141 -9.15735,0.82683 z"
           id="path153" /><path
           style="fill:#000000;fill-opacity:0.191453;stroke:none;stroke-width:0.264583px;stroke-linecap:butt;stroke-linejoin:miter;stroke-opacity:1"
           d="m 121.25465,168.03305 -0.4961,1.09141 2.01745,0.33073 c 2.73064,-1.10844 5.42631,-3.47617 6.05234,-7.0776 l -1.09141,0.26458 c -1.74481,2.26804 -3.76919,4.09114 -6.48228,5.39088 z"
           id="path154" /><path
           style="fill:#000000;fill-opacity:0.191453;stroke:none;stroke-width:0.264583px;stroke-linecap:butt;stroke-linejoin:miter;stroke-opacity:1"
           d="m 95.304511,142.8707 4.501821,1.37978 0.678198,1.23947 -1.718881,-0.44434 z"
           id="path155" /><path
           style="fill:#000000;fill-opacity:0.191453;stroke:none;stroke-width:0.264583px;stroke-linecap:butt;stroke-linejoin:miter;stroke-opacity:1"
           d="m 93.138992,135.76351 c 1.02545,-1.84759 0.809045,-3.22612 0.756078,-4.71424 0.502098,1.69277 1.147599,3.33031 0.111843,4.99293 z"
           id="path156" /><path
           style="fill:#000000;fill-opacity:0.191453;stroke:none;stroke-width:0.264583px;stroke-linecap:butt;stroke-linejoin:miter;stroke-opacity:1"
           d="m 101.93025,133.33624 c -0.0794,-1.43517 0.54063,-3.44479 3.21989,-5.96482 -0.85477,1.71461 -1.85702,3.26163 -2.05964,5.71731 z"
           id="path157" /><path
           style="fill:#000000;fill-opacity:0.191453;stroke:none;stroke-width:0.264583px;stroke-linecap:butt;stroke-linejoin:miter;stroke-opacity:1"
           d="m 107.00021,134.34828 c 1.80536,-1.97609 6.42489,-3.26288 8.92555,-3.94807 -4.12872,1.65164 -6.65417,3.19903 -7.768,4.22919 z"
           id="path158" /><path
           style="fill:#000000;fill-opacity:0.191453;stroke:none;stroke-width:0.264583px;stroke-linecap:butt;stroke-linejoin:miter;stroke-opacity:1"
           d="m 109.71219,137.37445 c 5.40352,-1.67069 7.13217,-0.78389 8.43359,-0.76067 -3.80237,0.18593 -6.16194,0.59649 -7.23896,1.24407 z"
           id="path159" /><path
           style="fill:#000000;fill-opacity:0.191453;stroke:none;stroke-width:0.264583px;stroke-linecap:butt;stroke-linejoin:miter;stroke-opacity:1"
           d="m 111.3989,142.26925 c 1.41541,-1.70741 2.94936,-1.35063 4.9444,-1.05006 -2.1982,0.0306 -4.32582,0.83758 -4.24294,1.38078 z"
           id="path160" /><path
           style="fill:#000000;fill-opacity:0.191453;stroke:none;stroke-width:0.264583px;stroke-linecap:butt;stroke-linejoin:miter;stroke-opacity:1"
           d="m 91.33604,139.25134 c 0.197425,-2.40412 -2.634408,-4.21718 -5.353676,-5.97792 1.409519,1.41998 3.551372,3.85314 3.774441,5.95312 z"
           id="path161" /><path
           style="fill:#f2f2f2;stroke:none;stroke-width:0.264583px;stroke-linecap:butt;stroke-linejoin:miter;stroke-opacity:1"
           d="m 51.011268,185.77248 c 11.786587,1.12253 11.225321,-0.56127 11.225321,-0.56127 l 9.354431,1.12253 7.10937,-1.6838 5.238483,1.49671 4.677217,0.18709 4.677216,0.18709 7.109374,0.18709 6.17392,-0.18709 20.20558,-1.12253 9.9157,1.30962 -6.92228,3.18051 -12.72203,0.56126 -8.79317,3.74178 -20.392666,0.93544 -1.496708,-2.99342 -11.225321,-1.49671 c 0,0 -7.857723,7.10937 -8.606078,6.92228 -0.748355,-0.18709 -1.683798,-6.17393 -4.864304,-6.17393 -3.180508,0 -11.599499,-0.93544 -11.599499,-0.93544 l -5.799749,-4.49013 1.6838,-1.49671 z"
           id="path162" /><path
           style="fill:#cccccc;stroke:none;stroke-width:0.264583px;stroke-linecap:butt;stroke-linejoin:miter;stroke-opacity:1"
           d="m 62.450994,185.16482 8.995833,1.25677 -1.190625,1.12448 -5.688541,-0.99218 z"
           id="path163" /><path
           style="fill:#cccccc;stroke:none;stroke-width:0.264583px;stroke-linecap:butt;stroke-linejoin:miter;stroke-opacity:1"
           d="m 80.244223,189.39815 4.894791,0.33073 1.785938,0.99219 -5.754687,-0.26458 z"
           id="path164" /><path
           style="fill:#cccccc;stroke:none;stroke-width:0.264583px;stroke-linecap:butt;stroke-linejoin:miter;stroke-opacity:1"
           d="m 116.82287,188.40596 4.16719,-0.7276 c 1.81736,-1.71249 2.11667,0.74965 3.175,1.12448 l -5.75469,-0.26458 z"
           id="path165" /><path
           style="fill:#cccccc;stroke:none;stroke-width:0.264583px;stroke-linecap:butt;stroke-linejoin:miter;stroke-opacity:1"
           d="m 105.11506,187.7445 0.13229,-0.59531 3.175,1.12448 -5.49011,0.19844 z"
           id="path166" /><path
           style="fill:#37abc8;stroke:none;stroke-width:0.264583px;stroke-linecap:butt;stroke-linejoin:miter;stroke-opacity:1"
           d="m 44.327036,186.02472 5.754688,4.49791 11.509375,0.92605 2.248958,0.13229 2.645833,6.01927 5.754688,-4.43177 2.976562,-2.77813 11.244792,1.65365 1.455208,3.175 20.76979,-1.05833 8.40053,-3.83646 12.5677,-0.39688 6.81302,-3.24114 -4.16718,3.77031 -14.2875,1.71979 -9.06198,5.02708 -20.042193,-0.52916 -2.910416,-3.30729 -10.847917,-2.05053 -7.739062,9.85573 -4.365625,-8.40052 -13.030729,0.92604 z"
           id="path167" /></g><text
         xml:space="preserve"
         style="font-weight:bold;font-size:40.4196px;line-height:1.25;font-family:'Tw Cen MT';-inkscape-font-specification:'Tw Cen MT, Bold';text-align:end;text-anchor:end;fill:#006680;stroke-width:0.483337"
         x="69.990143"
         y="269.0766"
         id="text168"><tspan
           id="tspan168"
           style="fill:#006680;stroke-width:0.483337"
           x="80.746338"
           y="269.0766">M  </tspan></text></g></g></svg>
