<?xml version="1.0" encoding="UTF-8" standalone="no"?>
<!-- Created with Inkscape (http://www.inkscape.org/) -->

<svg
   width="32.804443mm"
   height="30.123671mm"
   viewBox="0 0 32.804443 30.123671"
   version="1.1"
   id="svg1"
   xml:space="preserve"
   xmlns="http://www.w3.org/2000/svg"
   xmlns:svg="http://www.w3.org/2000/svg"><defs
     id="defs1"><linearGradient
       id="paint0_linear_51_800"
       x1="72.987503"
       y1="111.561"
       x2="72.987503"
       y2="25.3929"
       gradientUnits="userSpaceOnUse"><stop
         stop-color="#8CAAB4"
         id="stop88" /><stop
         offset="1"
         stop-color="#8CAAB4"
         id="stop89" /></linearGradient><linearGradient
       id="paint1_linear_51_800"
       x1="72.987503"
       y1="32.371899"
       x2="72.987503"
       y2="86.870903"
       gradientUnits="userSpaceOnUse"><stop
         stop-color="#8CAAB4"
         id="stop90" /><stop
         offset="1"
         stop-color="#8CAAB4"
         id="stop91" /></linearGradient><linearGradient
       id="paint2_linear_51_800"
       x1="42.9142"
       y1="46.667"
       x2="108.744"
       y2="112.497"
       gradientUnits="userSpaceOnUse"><stop
         stop-color="white"
         id="stop92" /><stop
         offset="0.00049321"
         stop-color="white"
         id="stop93" /><stop
         offset="1"
         stop-color="white"
         id="stop94" /></linearGradient></defs><g
     id="layer1"
     transform="translate(-36.661008,-68.818518)"><g
       style="display:inline;fill:none"
       id="g5"
       transform="matrix(0.26458333,0,0,0.26458333,31.273906,63.207442)"><g
         mask="url(#mask0_51_800)"
         id="g39"
         style="display:inline"><mask
           id="mask1_51_800"
           maskUnits="userSpaceOnUse"
           x="20"
           y="21"
           width="125"
           height="115"><path
             d="M 20.3604,21.2072 H 144.346 V 135.061 H 20.3604 Z"
             fill="#ffffff"
             id="path2" /></mask><g
           mask="url(#mask1_51_800)"
           id="g4"
           style="display:inline"><g
             opacity="0.389999"
             id="g3"><path
               d="m 137.719,57.2664 c 0.198,-1.3372 0.304,-2.7048 0.311,-4.0958 0.071,-15.7464 -12.78,-28.6602 -28.527,-28.6599 -1.446,0 -2.868,0.1075 -4.257,0.3155 C 95.0983,26.3448 84.7367,25.4712 74.9086,22.5223 72.1275,21.6877 69.1838,21.2298 66.136,21.2076 49.1763,21.084 35.0737,34.6897 34.6193,51.6437 c -0.0141,0.5248 -0.0151,1.0471 -0.0038,1.5659 0.1858,8.361 -2.1359,16.629 -7.1014,23.3585 -4.5486,6.1634 -7.2154,13.8006 -7.1523,22.0634 0.1549,20.3015 16.9958,36.7395 37.2953,36.4245 4.3857,-0.067 8.5849,-0.905 12.4682,-2.383 8.9806,-3.416 18.7877,-4.24 28.0752,-1.777 3.0095,0.797 6.1695,1.222 9.4305,1.223 20.193,0 36.515,-16.155 36.714,-36.3468 0.053,-5.4637 -1.087,-10.655 -3.176,-15.3298 -3.251,-7.2766 -4.622,-15.2924 -3.45,-23.176 z"
               fill="#5f91a0"
               id="path3" /></g></g></g><path
         d="m 58.7772,32.8492 c -4.3032,0 -7.8043,3.5011 -7.8043,7.8043 v 72.3315 c 0,4.303 3.5011,7.804 7.8043,7.804 h 28.4204 c 4.3035,0 7.8046,-3.501 7.8046,-7.804 V 40.6535 c 0,-4.3032 -3.5011,-7.8043 -7.8046,-7.8043 z"
         fill="url(#paint0_linear_51_800)"
         id="path40"
         style="display:inline;fill:url(#paint0_linear_51_800)" /><path
         d="m 58.7776,34.3329 c -3.4853,0 -6.3212,2.8352 -6.3212,6.3206 v 72.3315 c 0,3.485 2.8359,6.321 6.3212,6.321 h 28.4197 c 3.4857,0 6.3212,-2.836 6.3212,-6.321 V 40.6535 c 0,-3.4854 -2.8355,-6.3206 -6.3212,-6.3206 z"
         fill="url(#paint1_linear_51_800)"
         id="path41"
         style="display:inline;fill:url(#paint1_linear_51_800)" /><path
         d="m 84.1804,36.0231 c -0.5258,0 -0.983,0.362 -1.1028,0.8743 l -0.2309,0.9821 c -0.1784,0.7589 -0.8552,1.2954 -1.6345,1.2954 H 64.921 c -0.7796,0 -1.4564,-0.5365 -1.6348,-1.2954 l -0.2306,-0.9821 c -0.1204,-0.5123 -0.5773,-0.8743 -1.1035,-0.8743 h -3.0957 c -2.5573,0 -4.6303,2.0734 -4.6303,4.6304 v 72.3315 c 0,2.557 2.073,4.63 4.6303,4.63 h 28.4204 c 2.5567,0 4.63,-2.073 4.63,-4.63 V 40.6535 c 0,-2.557 -2.0733,-4.6304 -4.63,-4.6304 z"
         fill="url(#paint2_linear_51_800)"
         id="path42"
         style="display:inline;fill:url(#paint2_linear_51_800)" /><g
         mask="url(#mask2_51_800)"
         id="g88"
         style="display:inline"><mask
           id="mask3_51_800"
           maskUnits="userSpaceOnUse"
           x="54"
           y="36"
           width="32"
           height="82"><path
             d="M 54.2261,36.0234 H 85.5167 V 117.615 H 54.2261 Z"
             fill="#ffffff"
             id="path44" /></mask><g
           mask="url(#mask3_51_800)"
           id="g47"><g
             opacity="0.380005"
             id="g46"><path
               d="m 84.183,37.8795 0.2309,-0.9821 c 0.1201,-0.5123 0.577,-0.8743 1.1028,-0.8743 h -1.3363 c -0.5261,0 -0.983,0.362 -1.1031,0.8743 l -0.2306,0.9821 c -0.1784,0.7589 -0.8555,1.2951 -1.6348,1.2951 h 1.3363 c 0.7796,0 1.4564,-0.5362 1.6348,-1.2951 z"
               fill="#ffffff"
               id="path45" /><path
               d="M 55.5621,112.985 V 40.654 c 0,-2.5574 2.0731,-4.6307 4.6304,-4.6307 h -1.3363 c -2.5573,0 -4.6304,2.0733 -4.6304,4.6307 v 72.331 c 0,2.557 2.0731,4.63 4.6304,4.63 h 1.3363 c -2.5573,0 -4.6304,-2.073 -4.6304,-4.63 z"
               fill="#ffffff"
               id="path46" /></g></g><path
           d="m 64.3561,64.0075 h 3.0471 v 3.0484 h -3.0471 z m -1.3527,4.4008 h 5.7538 v -5.7535 h -5.7538 z"
           fill="#5f91a0"
           id="path47" /><path
           d="m 65.1808,66.2306 h 1.3981 v -1.3985 h -1.3981 z"
           fill="#5f91a0"
           id="path48" /><path
           d="m 64.3561,78.2219 h 3.0471 v 3.0483 h -3.0471 z m -1.3527,4.4011 h 5.7538 v -5.7539 h -5.7538 z"
           fill="#5f91a0"
           id="path49" /><path
           d="m 65.1808,80.4449 h 1.3981 v -1.3984 h -1.3981 z"
           fill="#5f91a0"
           id="path50" /><path
           d="m 81.6177,67.0555 h -3.0471 v -3.0483 h 3.0471 z m -4.3998,1.3528 h 5.7538 v -5.7535 h -5.7538 z"
           fill="#5f91a0"
           id="path51" /><path
           d="m 80.7937,64.8321 h -1.3984 v 1.3985 h 1.3984 z"
           fill="#5f91a0"
           id="path52" /><path
           d="m 78.7916,71.0989 h 2.1703 v 2.5509 h 2.0099 V 71.0989 70.4771 69.174 h -4.1802 z"
           fill="#5f91a0"
           id="path53" /><path
           d="m 75.1596,64.4754 h -0.8813 v -0.8797 h 0.8813 z m 0.0029,-0.0017 h 1.2899 v -1.8189 h -3.068 v 3.4347 h 1.7781 z"
           fill="#5f91a0"
           id="path54" /><path
           d="m 69.5229,80.4736 h 1.0449 v -1.8869 h -1.0449 z"
           fill="#5f91a0"
           id="path55" /><path
           d="m 70.9739,81.252 h -0.4061 v -0.0032 h -1.0449 v 1.3742 h 2.3903 v -4.0362 h -0.9393 z"
           fill="#5f91a0"
           id="path56" /><path
           d="m 80.4333,82.623 h 0.9332 v -0.8633 h -0.0029 v -0.7274 h 1.6081 V 79.526 h -2.5384 z"
           fill="#5f91a0"
           id="path57" /><path
           d="M 82.1255,82.623 H 82.972 V 81.7597 H 82.1255 Z"
           fill="#5f91a0"
           id="path58" /><path
           d="m 68.4861,69.174 h -5.4827 v 1.0957 h 5.4827 z"
           fill="#5f91a0"
           id="path59" /><path
           d="m 65.8464,71.4033 h 1.6753 v 1.4892 0.4653 h 0.9644 v -2.6314 h -5.4827 v 1.3624 h 2.843 z"
           fill="#5f91a0"
           id="path60" /><path
           d="m 67.5217,76.1034 h 0.9644 v -1.8318 h -0.9644 z"
           fill="#5f91a0"
           id="path61" /><path
           d="M 70.8722,72.5712 H 68.994 v 3.5323 h 0.5291 v 1.4429 h 1.3491 z"
           fill="#5f91a0"
           id="path62" /><path
           d="m 80.6445,75.8448 h 2.3274 v -1.8527 h -2.3274 z"
           fill="#5f91a0"
           id="path63" /><path
           d="m 73.1693,75.338 h -1.6371 v 2.2083 h 1.6371 z"
           fill="#5f91a0"
           id="path64" /><path
           d="m 71.5999,65.4256 v 2.5261 h 1.9629 v -1.1934 h -1.2185 v -1.3327 z"
           fill="#5f91a0"
           id="path65" /><path
           d="m 71.2276,65.4256 h -1.7047 v 2.5261 h 1.7047 z"
           fill="#5f91a0"
           id="path66" /><path
           d="m 74.6965,67.9517 h 1.7559 v -1.1934 h -1.7559 z"
           fill="#5f91a0"
           id="path67" /><path
           d="m 64.6959,73.2566 h -1.6921 v 1.3115 h 1.6921 z"
           fill="#5f91a0"
           id="path68" /><path
           d="m 65.525,74.5678 h 1.1847 V 73.2563 H 65.525 Z"
           fill="#5f91a0"
           id="path69" /><path
           d="m 66.7097,74.9404 h -3.7059 v 1.1634 h 3.7059 z"
           fill="#5f91a0"
           id="path70" /><path
           d="m 80.4333,78.6128 h 2.5384 v -1.3206 h -2.5384 z"
           fill="#5f91a0"
           id="path71" /><path
           d="m 72.3698,79.7292 h 2.0047 v -1.1425 h -2.0047 z"
           fill="#5f91a0"
           id="path72" /><path
           d="m 72.3698,82.623 h 2.0047 v -1.9295 h -2.0047 z"
           fill="#5f91a0"
           id="path73" /><path
           d="m 70.8596,62.6548 h -1.3367 v 2.1239 h 1.3367 z"
           fill="#5f91a0"
           id="path74" /><path
           d="m 72.3443,63.9666 h -1.1292 v 0.8121 h 1.1292 z"
           fill="#5f91a0"
           id="path75" /><path
           d="m 72.3443,62.6548 h -1.1292 v 0.7785 h 1.1292 z"
           fill="#5f91a0"
           id="path76" /><path
           d="m 78.7915,73.5355 h 1.2948 V 72.241 h -1.2948 z"
           fill="#5f91a0"
           id="path77" /><path
           d="m 77.15,71.5899 h -1.2516 v 0.9641 h -0.9731 v -0.9731 h 0.9731 V 70.3367 H 77.15 Z m 0.8797,-2.4156 h -1.5775 v -0.7651 h -2.4588 v 4.4417 h -1.2178 v -4.4417 h -3.2528 v 0.7651 h -0.5294 v 2.4829 h 1.8789 v -1.2944 h 0.6594 v 3.6292 h 2.9837 v 0.6611 h 5.3932 V 73.992 h -1.8789 z"
           fill="#5f91a0"
           id="path78" /><path
           d="m 78.0511,75.8448 h 1.8577 v -0.7985 h -1.8577 z"
           fill="#5f91a0"
           id="path79" /><path
           d="m 77.1668,80.6935 h -1.5224 v 1.9294 h 2.1487 v -1.3711 h -0.6263 z"
           fill="#5f91a0"
           id="path80" /><path
           d="m 78.8927,81.252 h -0.4563 v 1.371 h 1.1173 v -3.8082 h -0.6671 z"
           fill="#5f91a0"
           id="path81" /><path
           d="m 76.2595,76.7522 h -1.1856 v -1.1856 h 1.1856 z m 1.2378,-1.7059 h -2.982 v 2.5 h 1.1292 v 2.4021 h 1.5224 V 79.373 h 1.0233 v -1.2774 h 1.3634 v -0.8034 h -2.0563 z"
           fill="#5f91a0"
           id="path82" /><path
           d="m 60.1101,68.2443 h -0.7693 v -8.9909 h 8.9912 v 0.7693 h -8.2219 z"
           fill="#5f91a0"
           id="path83" /><path
           d="m 86.6339,68.2443 h -0.7693 v -8.2216 h -8.2213 v -0.7693 h 8.9906 z"
           fill="#5f91a0"
           id="path84" /><path
           d="m 86.6339,86.0244 h -8.9906 v -0.7692 h 8.2213 v -8.222 h 0.7693 z"
           fill="#5f91a0"
           id="path85" /><path
           d="m 68.3321,86.0244 h -8.9912 v -8.9912 h 0.7693 v 8.222 h 8.2219 z"
           fill="#5f91a0"
           id="path86" /><path
           d="m 59.3411,65.783 h 27.293 v -0.9232 h -27.293 z"
           fill="#fc2b2b"
           id="path87" /><path
           d="M 80.8821,115.304 H 65.0929 c -0.1678,0 -0.3053,0.137 -0.3053,0.305 0,0.168 0.1375,0.305 0.3053,0.305 h 15.7892 c 0.1678,0 0.3053,-0.137 0.3053,-0.305 0,-0.168 -0.1375,-0.305 -0.3053,-0.305 z"
           fill="#5f91a0"
           id="path88" /></g></g></g></svg>
